<?xml version="1.0" encoding="UTF-8"?>
<!--Generator: Apple Native CoreSVG 149-->
<!DOCTYPE svg
PUBLIC "-//W3C//DTD SVG 1.1//EN"
       "http://www.w3.org/Graphics/SVG/1.1/DTD/svg11.dtd">
<svg version="1.1" xmlns="http://www.w3.org/2000/svg" xmlns:xlink="http://www.w3.org/1999/xlink" width="3300" height="2200">
 <!--glyph: "uni10032E.medium", point size: 100.000000, font version: "Version 16.0d12e3", template writer version: "8"-->
 <g id="Notes">
  <rect height="2200" id="artboard" style="fill:white;opacity:1" width="3300" x="0" y="0"/>
  <line id="" style="fill:none;stroke:black;opacity:1;stroke-width:0.5;" x1="263" x2="3036" y1="292" y2="292"/>
  <text style="stroke:none;fill:black;font-family:-apple-system,&quot;SF Pro Display&quot;,&quot;SF Pro Text&quot;,Helvetica,sans-serif;font-weight:bold;" transform="matrix(1 0 0 1 263 322)">Weight/Scale Variations</text>
  <text style="stroke:none;fill:black;font-family:-apple-system,&quot;SF Pro Display&quot;,&quot;SF Pro Text&quot;,Helvetica,sans-serif;text-anchor:middle;" transform="matrix(1 0 0 1 559.711 322)">Ultralight</text>
  <text style="stroke:none;fill:black;font-family:-apple-system,&quot;SF Pro Display&quot;,&quot;SF Pro Text&quot;,Helvetica,sans-serif;text-anchor:middle;" transform="matrix(1 0 0 1 856.422 322)">Thin</text>
  <text style="stroke:none;fill:black;font-family:-apple-system,&quot;SF Pro Display&quot;,&quot;SF Pro Text&quot;,Helvetica,sans-serif;text-anchor:middle;" transform="matrix(1 0 0 1 1153.13 322)">Light</text>
  <text style="stroke:none;fill:black;font-family:-apple-system,&quot;SF Pro Display&quot;,&quot;SF Pro Text&quot;,Helvetica,sans-serif;text-anchor:middle;" transform="matrix(1 0 0 1 1449.84 322)">Regular</text>
  <text style="stroke:none;fill:black;font-family:-apple-system,&quot;SF Pro Display&quot;,&quot;SF Pro Text&quot;,Helvetica,sans-serif;text-anchor:middle;" transform="matrix(1 0 0 1 1746.56 322)">Medium</text>
  <text style="stroke:none;fill:black;font-family:-apple-system,&quot;SF Pro Display&quot;,&quot;SF Pro Text&quot;,Helvetica,sans-serif;text-anchor:middle;" transform="matrix(1 0 0 1 2043.27 322)">Semibold</text>
  <text style="stroke:none;fill:black;font-family:-apple-system,&quot;SF Pro Display&quot;,&quot;SF Pro Text&quot;,Helvetica,sans-serif;text-anchor:middle;" transform="matrix(1 0 0 1 2339.98 322)">Bold</text>
  <text style="stroke:none;fill:black;font-family:-apple-system,&quot;SF Pro Display&quot;,&quot;SF Pro Text&quot;,Helvetica,sans-serif;text-anchor:middle;" transform="matrix(1 0 0 1 2636.69 322)">Heavy</text>
  <text style="stroke:none;fill:black;font-family:-apple-system,&quot;SF Pro Display&quot;,&quot;SF Pro Text&quot;,Helvetica,sans-serif;text-anchor:middle;" transform="matrix(1 0 0 1 2933.4 322)">Black</text>
  <line id="" style="fill:none;stroke:black;opacity:1;stroke-width:0.5;" x1="263" x2="3036" y1="1903" y2="1903"/>
  <g id="" transform="matrix(1 0 0 1 263 1933)">
   <path d="M9.24805 0.830078C13.5547 0.830078 17.1387-2.74414 17.1387-7.05078C17.1387-11.3574 13.5449-14.9316 9.23828-14.9316C4.94141-14.9316 1.36719-11.3574 1.36719-7.05078C1.36719-2.74414 4.95117 0.830078 9.24805 0.830078ZM9.24805-0.654297C5.70312-0.654297 2.87109-3.49609 2.87109-7.05078C2.87109-10.6055 5.69336-13.4473 9.23828-13.4473C12.793-13.4473 15.6348-10.6055 15.6445-7.05078C15.6543-3.49609 12.8027-0.654297 9.24805-0.654297ZM9.22852-3.62305C9.69727-3.62305 9.9707-3.93555 9.9707-4.45312L9.9707-6.31836L12.002-6.31836C12.5-6.31836 12.832-6.57227 12.832-7.04102C12.832-7.51953 12.5195-7.7832 12.002-7.7832L9.9707-7.7832L9.9707-9.81445C9.9707-10.332 9.69727-10.6543 9.22852-10.6543C8.75977-10.6543 8.50586-10.3125 8.50586-9.81445L8.50586-7.7832L6.49414-7.7832C5.97656-7.7832 5.64453-7.51953 5.64453-7.04102C5.64453-6.57227 5.99609-6.31836 6.49414-6.31836L8.50586-6.31836L8.50586-4.45312C8.50586-3.95508 8.75977-3.62305 9.22852-3.62305Z"/>
  </g>
  <g id="" transform="matrix(1 0 0 1 281.506 1933)">
   <path d="M11.709 2.91016C17.1582 2.91016 21.6699-1.61133 21.6699-7.05078C21.6699-12.5 17.1484-17.0117 11.6992-17.0117C6.25977-17.0117 1.74805-12.5 1.74805-7.05078C1.74805-1.61133 6.26953 2.91016 11.709 2.91016ZM11.709 1.25C7.09961 1.25 3.41797-2.44141 3.41797-7.05078C3.41797-11.6602 7.08984-15.3516 11.6992-15.3516C16.3086-15.3516 20-11.6602 20.0098-7.05078C20.0195-2.44141 16.3184 1.25 11.709 1.25ZM11.6797-2.66602C12.207-2.66602 12.5098-3.01758 12.5098-3.59375L12.5098-6.23047L15.3223-6.23047C15.8691-6.23047 16.25-6.51367 16.25-7.03125C16.25-7.55859 15.8887-7.86133 15.3223-7.86133L12.5098-7.86133L12.5098-10.6836C12.5098-11.25 12.207-11.6113 11.6797-11.6113C11.1621-11.6113 10.8789-11.2305 10.8789-10.6836L10.8789-7.86133L8.07617-7.86133C7.50977-7.86133 7.13867-7.55859 7.13867-7.03125C7.13867-6.51367 7.5293-6.23047 8.07617-6.23047L10.8789-6.23047L10.8789-3.59375C10.8789-3.03711 11.1621-2.66602 11.6797-2.66602Z"/>
  </g>
  <g id="" transform="matrix(1 0 0 1 304.924 1933)">
   <path d="M14.9707 5.66406C21.9336 5.66406 27.6953-0.0976562 27.6953-7.05078C27.6953-14.0137 21.9238-19.7754 14.9609-19.7754C8.00781-19.7754 2.25586-14.0137 2.25586-7.05078C2.25586-0.0976562 8.01758 5.66406 14.9707 5.66406ZM14.9707 3.84766C8.93555 3.84766 4.08203-1.01562 4.08203-7.05078C4.08203-13.0957 8.92578-17.9492 14.9609-17.9492C21.0059-17.9492 25.8594-13.0957 25.8691-7.05078C25.8789-1.01562 21.0156 3.84766 14.9707 3.84766ZM14.9414-1.38672C15.5176-1.38672 15.8594-1.77734 15.8594-2.38281L15.8594-6.13281L19.7754-6.13281C20.3711-6.13281 20.7812-6.46484 20.7812-7.02148C20.7812-7.59766 20.3906-7.93945 19.7754-7.93945L15.8594-7.93945L15.8594-11.8652C15.8594-12.4805 15.5176-12.8711 14.9414-12.8711C14.375-12.8711 14.0527-12.4609 14.0527-11.8652L14.0527-7.93945L10.1465-7.93945C9.53125-7.93945 9.13086-7.59766 9.13086-7.02148C9.13086-6.46484 9.55078-6.13281 10.1465-6.13281L14.0527-6.13281L14.0527-2.38281C14.0527-1.79688 14.375-1.38672 14.9414-1.38672Z"/>
  </g>
  <text style="stroke:none;fill:black;font-family:-apple-system,&quot;SF Pro Display&quot;,&quot;SF Pro Text&quot;,Helvetica,sans-serif;font-weight:bold;" transform="matrix(1 0 0 1 263 1953)">Design Variations</text>
  <text style="stroke:none;fill:black;font-family:-apple-system,&quot;SF Pro Display&quot;,&quot;SF Pro Text&quot;,Helvetica,sans-serif;" transform="matrix(1 0 0 1 263 1971)">Symbols are supported in up to nine weights and three scales.</text>
  <text style="stroke:none;fill:black;font-family:-apple-system,&quot;SF Pro Display&quot;,&quot;SF Pro Text&quot;,Helvetica,sans-serif;" transform="matrix(1 0 0 1 263 1989)">For optimal layout with text and other symbols, vertically align</text>
  <text style="stroke:none;fill:black;font-family:-apple-system,&quot;SF Pro Display&quot;,&quot;SF Pro Text&quot;,Helvetica,sans-serif;" transform="matrix(1 0 0 1 263 2007)">symbols with the adjacent text.</text>
  <line id="" style="fill:none;stroke:#00AEEF;stroke-width:0.5;opacity:1.0;" x1="776" x2="776" y1="1919" y2="1933"/>
  <g id="" transform="matrix(1 0 0 1 776 1933)">
   <path d="M3.31055 0.126953C3.82812 0.126953 4.08203-0.0683594 4.26758-0.605469L5.52734-4.0625L11.2891-4.0625L12.5488-0.605469C12.7344-0.0683594 12.9883 0.126953 13.4961 0.126953C14.0137 0.126953 14.3457-0.185547 14.3457-0.673828C14.3457-0.839844 14.3164-0.986328 14.2383-1.20117L9.6582-13.3887C9.43359-13.9941 9.0332-14.2871 8.4082-14.2871C7.80273-14.2871 7.39258-13.9941 7.17773-13.3984L2.59766-1.19141C2.51953-0.976562 2.49023-0.830078 2.49023-0.664062C2.49023-0.175781 2.80273 0.126953 3.31055 0.126953ZM6.00586-5.53711L8.37891-12.1094L8.42773-12.1094L10.8008-5.53711Z"/>
  </g>
  <line id="" style="fill:none;stroke:#00AEEF;stroke-width:0.5;opacity:1.0;" x1="792.836" x2="792.836" y1="1919" y2="1933"/>
  <text style="stroke:none;fill:black;font-family:-apple-system,&quot;SF Pro Display&quot;,&quot;SF Pro Text&quot;,Helvetica,sans-serif;font-weight:bold;" transform="matrix(1 0 0 1 776 1953)">Margins</text>
  <text style="stroke:none;fill:black;font-family:-apple-system,&quot;SF Pro Display&quot;,&quot;SF Pro Text&quot;,Helvetica,sans-serif;" transform="matrix(1 0 0 1 776 1971)">Leading and trailing margins on the left and right side of each symbol</text>
  <text style="stroke:none;fill:black;font-family:-apple-system,&quot;SF Pro Display&quot;,&quot;SF Pro Text&quot;,Helvetica,sans-serif;" transform="matrix(1 0 0 1 776 1989)">can be adjusted by modifying the x-location of the margin guidelines.</text>
  <text style="stroke:none;fill:black;font-family:-apple-system,&quot;SF Pro Display&quot;,&quot;SF Pro Text&quot;,Helvetica,sans-serif;" transform="matrix(1 0 0 1 776 2007)">Modifications are automatically applied proportionally to all</text>
  <text style="stroke:none;fill:black;font-family:-apple-system,&quot;SF Pro Display&quot;,&quot;SF Pro Text&quot;,Helvetica,sans-serif;" transform="matrix(1 0 0 1 776 2025)">scales and weights.</text>
  <g id="" transform="matrix(1 0 0 1 1289 1933)">
   <path d="M2.8418 1.86523L4.54102 3.57422C5.40039 4.44336 6.38672 4.38477 7.31445 3.35938L17.4902-7.85156C17.7539-7.76367 18.0273-7.7832 18.3398-7.8418L19.4043-8.03711L20.0684-7.36328L20.0293-6.80664C19.9902-6.30859 20.1172-5.92773 20.6055-5.44922L21.3672-4.70703C21.8457-4.22852 22.4609-4.19922 22.9297-4.66797L25.8398-7.58789C26.3086-8.05664 26.2891-8.65234 25.8105-9.13086L25.0391-9.89258C24.5605-10.3711 24.1895-10.5273 23.7109-10.4883L23.1348-10.4395L22.4902-11.0742L22.7344-12.1973C22.8613-12.7637 22.7051-13.2031 22.1191-13.7891L19.9219-15.9766C16.582-19.2969 12.1484-19.2188 9.25781-16.3281C8.83789-15.918 8.80859-15.3418 9.04297-14.9512C9.27734-14.5898 9.73633-14.3555 10.3809-14.5215C11.8457-14.8633 13.3691-14.9219 14.7949-13.9844L14.209-12.5293C14.0137-12.0508 13.9844-11.6504 14.1113-11.2891L3.04688-0.898438C2.06055 0.0195312 1.98242 0.996094 2.8418 1.86523ZM10.752-15.957C13.1836-17.7344 16.4746-17.4316 18.7012-15.2051L21.1328-12.793C21.3672-12.5586 21.4062-12.373 21.3379-12.0312L21.0156-10.5469L22.5195-9.0625L23.5059-9.12109C23.7598-9.13086 23.8379-9.11133 24.0332-8.91602L24.6094-8.33984L22.168-5.89844L21.5918-6.47461C21.3965-6.66992 21.3672-6.74805 21.377-7.01172L21.4453-7.98828L19.9512-9.47266L18.4277-9.21875C18.1055-9.15039 17.959-9.17969 17.7148-9.41406L15.7129-11.416C15.459-11.6504 15.4297-11.8164 15.5859-12.1875L16.4648-14.2773C14.9023-15.7324 12.8711-16.3574 10.8398-15.7617C10.6836-15.7227 10.625-15.8496 10.752-15.957ZM5.27344 2.30469L4.10156 1.14258C3.63281 0.683594 3.74023 0.341797 4.14062-0.0195312L14.9512-10.1953L16.416-8.71094L6.42578 2.27539C6.07422 2.67578 5.74219 2.77344 5.27344 2.30469Z"/>
  </g>
  <text style="stroke:none;fill:black;font-family:-apple-system,&quot;SF Pro Display&quot;,&quot;SF Pro Text&quot;,Helvetica,sans-serif;font-weight:bold;" transform="matrix(1 0 0 1 1289 1953)">Exporting</text>
  <text style="stroke:none;fill:black;font-family:-apple-system,&quot;SF Pro Display&quot;,&quot;SF Pro Text&quot;,Helvetica,sans-serif;" transform="matrix(1 0 0 1 1289 1971)">Symbols should be outlined when exporting to ensure the</text>
  <text style="stroke:none;fill:black;font-family:-apple-system,&quot;SF Pro Display&quot;,&quot;SF Pro Text&quot;,Helvetica,sans-serif;" transform="matrix(1 0 0 1 1289 1989)">design is preserved when submitting to Xcode.</text>
  <text id="template-version" style="stroke:none;fill:black;font-family:-apple-system,&quot;SF Pro Display&quot;,&quot;SF Pro Text&quot;,Helvetica,sans-serif;text-anchor:end;" transform="matrix(1 0 0 1 3036 1933)">Template v.2.0</text>
  <text style="stroke:none;fill:black;font-family:-apple-system,&quot;SF Pro Display&quot;,&quot;SF Pro Text&quot;,Helvetica,sans-serif;text-anchor:end;" transform="matrix(1 0 0 1 3036 1951)">Requires Xcode 12 or greater</text>
  <text style="stroke:none;fill:black;font-family:-apple-system,&quot;SF Pro Display&quot;,&quot;SF Pro Text&quot;,Helvetica,sans-serif;text-anchor:end;" transform="matrix(1 0 0 1 3036 1969)">Generated from quote.bubble</text>
  <text style="stroke:none;fill:black;font-family:-apple-system,&quot;SF Pro Display&quot;,&quot;SF Pro Text&quot;,Helvetica,sans-serif;text-anchor:end;" transform="matrix(1 0 0 1 3036 1987)">Typeset at 100 points</text>
  <text style="stroke:none;fill:black;font-family:-apple-system,&quot;SF Pro Display&quot;,&quot;SF Pro Text&quot;,Helvetica,sans-serif;" transform="matrix(1 0 0 1 263 726)">Small</text>
  <text style="stroke:none;fill:black;font-family:-apple-system,&quot;SF Pro Display&quot;,&quot;SF Pro Text&quot;,Helvetica,sans-serif;" transform="matrix(1 0 0 1 263 1156)">Medium</text>
  <text style="stroke:none;fill:black;font-family:-apple-system,&quot;SF Pro Display&quot;,&quot;SF Pro Text&quot;,Helvetica,sans-serif;" transform="matrix(1 0 0 1 263 1586)">Large</text>
 </g>
 <g id="Guides">
  <g id="H-reference" style="fill:#27AAE1;stroke:none;" transform="matrix(1 0 0 1 339 696)">
   <path d="M0.976562 0L3.66211 0L12.9883-24.4629L45.752-24.4629L55.127 0L57.7637 0L30.6152-70.459L28.125-70.459ZM29.3457-67.1387L29.4434-67.1387L44.873-26.709L13.8672-26.709Z"/>
  </g>
  <line id="Baseline-S" style="fill:none;stroke:#27AAE1;opacity:1;stroke-width:0.5;" x1="263" x2="3036" y1="696" y2="696"/>
  <line id="Capline-S" style="fill:none;stroke:#27AAE1;opacity:1;stroke-width:0.5;" x1="263" x2="3036" y1="625.541" y2="625.541"/>
  <g id="H-reference" style="fill:#27AAE1;stroke:none;" transform="matrix(1 0 0 1 339 1126)">
   <path d="M0.976562 0L3.66211 0L12.9883-24.4629L45.752-24.4629L55.127 0L57.7637 0L30.6152-70.459L28.125-70.459ZM29.3457-67.1387L29.4434-67.1387L44.873-26.709L13.8672-26.709Z"/>
  </g>
  <line id="Baseline-M" style="fill:none;stroke:#27AAE1;opacity:1;stroke-width:0.5;" x1="263" x2="3036" y1="1126" y2="1126"/>
  <line id="Capline-M" style="fill:none;stroke:#27AAE1;opacity:1;stroke-width:0.5;" x1="263" x2="3036" y1="1055.54" y2="1055.54"/>
  <g id="H-reference" style="fill:#27AAE1;stroke:none;" transform="matrix(1 0 0 1 339 1556)">
   <path d="M0.976562 0L3.66211 0L12.9883-24.4629L45.752-24.4629L55.127 0L57.7637 0L30.6152-70.459L28.125-70.459ZM29.3457-67.1387L29.4434-67.1387L44.873-26.709L13.8672-26.709Z"/>
  </g>
  <line id="Baseline-L" style="fill:none;stroke:#27AAE1;opacity:1;stroke-width:0.5;" x1="263" x2="3036" y1="1556" y2="1556"/>
  <line id="Capline-L" style="fill:none;stroke:#27AAE1;opacity:1;stroke-width:0.5;" x1="263" x2="3036" y1="1485.54" y2="1485.54"/>
  <line id="left-margin" style="fill:none;stroke:#00AEEF;stroke-width:0.5;opacity:1.0;" x1="1383.58" x2="1383.58" y1="1030.79" y2="1150.12"/>
  <line id="right-margin" style="fill:none;stroke:#00AEEF;stroke-width:0.5;opacity:1.0;" x1="1516.1" x2="1516.1" y1="1030.79" y2="1150.12"/>
 </g>
 <g id="Symbols">
  <g id="Black-L" transform="matrix(1 0 0 1 2846.24 1556)">
   <path d="M59.7168 38.5742C64.8438 38.5742 69.0918 36.5234 75.3418 31.1035L96.2891 12.8418L125.83 12.8418C145.703 12.8418 158.252 0.195312 158.252-19.5801L158.252-70.1172C158.252-89.8926 145.703-102.539 125.83-102.539L48.4863-102.539C28.6133-102.539 16.0645-89.8926 16.0645-70.1172L16.0645-19.5801C16.0645 0.195312 29.7852 12.8418 46.7285 12.8418L47.7051 12.8418L47.7051 25.3906C47.7051 33.5938 52.2949 38.5742 59.7168 38.5742ZM64.5508 16.2598L64.5508-0.732422C64.5508-5.56641 62.0117-7.37305 57.8613-7.37305L50-7.37305C40.8203-7.37305 36.3281-11.8652 36.3281-21.0938L36.3281-68.6035C36.3281-77.832 40.8203-82.2754 50-82.2754L124.316-82.2754C133.496-82.2754 138.037-77.832 138.037-68.6035L138.037-21.0938C138.037-11.8652 133.496-7.37305 124.316-7.37305L94.5801-7.37305C89.5996-7.37305 87.5488-6.34766 83.8867-2.7832ZM55.8105-50.9277C55.8105-43.1152 60.7422-37.4512 67.8223-37.4512C71.2402-37.4512 74.0234-38.4277 75.8301-40.5273L77.1973-40.5273C75.8789-36.377 71.5332-32.4707 65.0879-31.0547C63.3301-30.6152 62.3047-29.4922 62.3047-27.8809C62.3047-25.9277 63.9648-24.8047 66.0156-24.8047C73.9258-24.8047 85.4004-34.2285 85.4004-47.5586C85.4004-57.2266 79.6387-65.0391 69.9707-65.0391C61.7676-65.0391 55.8105-59.1797 55.8105-50.9277ZM90.3809-50.9277C90.3809-43.1152 95.3125-37.4512 102.393-37.4512C105.811-37.4512 108.643-38.4277 110.4-40.5273L111.768-40.5273C110.498-36.377 106.152-32.4707 99.707-31.0547C97.9004-30.6152 96.875-29.4922 96.875-27.8809C96.875-25.9277 98.5352-24.8047 100.586-24.8047C108.545-24.8047 119.971-34.2285 119.971-47.5586C119.971-57.2266 114.258-65.0391 104.59-65.0391C96.3379-65.0391 90.3809-59.1797 90.3809-50.9277Z"/>
  </g>
  <g id="Heavy-L" transform="matrix(1 0 0 1 2550.07 1556)">
   <path d="M58.1543 37.2559C62.6953 37.2559 66.4062 35.3516 71.9238 30.5176L93.1152 12.0117L125.879 12.0117C145.264 12.0117 157.178-0.0488281 157.178-19.2383L157.178-69.6289C157.178-88.8184 145.264-100.879 125.879-100.879L47.3145-100.879C27.9785-100.879 16.0645-88.8672 16.0645-69.6289L16.0645-19.2383C16.0645 0 28.8574 12.0117 45.9961 12.0117L47.5586 12.0117L47.5586 25.5371C47.5586 32.8125 51.6113 37.2559 58.1543 37.2559ZM62.3535 17.8711L62.3535 0.585938C62.3535-3.80859 60.2051-5.46875 56.2988-5.46875L48.4863-5.46875C38.5254-5.46875 33.5938-10.498 33.5938-20.4102L33.5938-68.4082C33.5938-78.3691 38.5254-83.3496 48.4863-83.3496L124.707-83.3496C134.668-83.3496 139.648-78.3691 139.648-68.4082L139.648-20.4102C139.648-10.498 134.668-5.46875 124.707-5.46875L91.7969-5.46875C87.2559-5.46875 85.3027-4.58984 81.9824-1.31836ZM55.9082-50.5371C55.9082-43.0176 60.6934-37.4512 67.6758-37.4512C70.8496-37.4512 73.584-38.3301 75.3418-40.3809L76.4648-40.3809C75-35.9863 70.5566-32.2754 64.7461-30.957C62.8906-30.5176 61.9629-29.4434 61.9629-27.8809C61.9629-26.0254 63.5254-24.9023 65.4297-24.9023C72.8516-24.9023 84.4727-33.7402 84.4727-47.4609C84.4727-56.7383 78.8086-64.1113 69.6777-64.1113C61.7188-64.1113 55.9082-58.4473 55.9082-50.5371ZM89.8926-50.5371C89.8926-43.0176 94.6777-37.4512 101.611-37.4512C104.834-37.4512 107.568-38.3301 109.326-40.3809L110.449-40.3809C108.984-35.9863 104.541-32.2754 98.7305-30.957C96.875-30.5176 95.9473-29.4434 95.9473-27.8809C95.9473-26.0254 97.4609-24.9023 99.4141-24.9023C106.836-24.9023 118.457-33.7402 118.457-47.4609C118.457-56.7383 112.793-64.1113 103.662-64.1113C95.7031-64.1113 89.8926-58.4473 89.8926-50.5371Z"/>
  </g>
  <g id="Bold-L" transform="matrix(1 0 0 1 2253.97 1556)">
   <path d="M56.4453 35.791C60.3516 35.791 63.3789 34.0332 68.1152 29.9316L89.5996 11.084L125.977 11.084C144.727 11.084 155.957-0.292969 155.957-18.8965L155.957-69.043C155.957-87.6465 144.727-99.0234 125.977-99.0234L46.0449-99.0234C27.2461-99.0234 16.0645-87.6953 16.0645-69.043L16.0645-18.8965C16.0645-0.244141 27.832 11.084 45.166 11.084L47.4609 11.084L47.4609 25.7324C47.4609 31.9336 50.8301 35.791 56.4453 35.791ZM59.9609 19.6777L59.9609 2.00195C59.9609-1.9043 58.1055-3.36914 54.5898-3.36914L46.8262-3.36914C35.9375-3.36914 30.5176-8.93555 30.5176-19.6777L30.5176-68.2617C30.5176-78.9551 35.9375-84.5703 46.8262-84.5703L125.195-84.5703C135.986-84.5703 141.504-78.9551 141.504-68.2617L141.504-19.6777C141.504-8.93555 135.986-3.36914 125.195-3.36914L88.6719-3.36914C84.6191-3.36914 82.8125-2.58789 79.8828 0.292969ZM56.0547-50.0977C56.0547-42.8711 60.6445-37.4512 67.4805-37.4512C70.459-37.4512 73.0957-38.2324 74.8047-40.2344L75.7324-40.2344C74.0234-35.5957 69.4336-32.0801 64.3555-30.8594C62.4023-30.3711 61.6211-29.3457 61.6211-27.8809C61.6211-26.1719 62.9883-25 64.8438-25C71.6309-25 83.4473-33.2031 83.4473-47.3145C83.4473-56.2012 77.8809-63.0859 69.3359-63.0859C61.7188-63.0859 56.0547-57.666 56.0547-50.0977ZM89.3555-50.0977C89.3555-42.8711 93.9453-37.4512 100.781-37.4512C103.76-37.4512 106.396-38.2324 108.105-40.2344L108.984-40.2344C107.275-35.5957 102.686-32.0801 97.6562-30.8594C95.7031-30.3711 94.873-29.3457 94.873-27.8809C94.873-26.1719 96.2891-25 98.1445-25C104.932-25 116.699-33.2031 116.699-47.3145C116.699-56.2012 111.182-63.0859 102.588-63.0859C94.9707-63.0859 89.3555-57.666 89.3555-50.0977Z"/>
  </g>
  <g id="Semibold-L" transform="matrix(1 0 0 1 1957.7 1556)">
   <path d="M55.2734 34.7656C58.6914 34.7656 61.3281 33.1055 65.4785 29.4922L87.1582 10.4492L126.025 10.4492C144.385 10.4492 155.078-0.439453 155.078-18.6035L155.078-68.6523C155.078-86.8164 144.385-97.7539 126.025-97.7539L45.166-97.7539C26.7578-97.7539 16.0645-86.8652 16.0645-68.6523L16.0645-18.6035C16.0645-0.390625 27.1484 10.4492 44.5801 10.4492L47.3633 10.4492L47.3633 25.8789C47.3633 31.3477 50.3418 34.7656 55.2734 34.7656ZM58.252 20.9473L58.252 3.02734C58.252-0.537109 56.6895-1.9043 53.3691-1.9043L45.6543-1.9043C34.1797-1.9043 28.418-7.91016 28.418-19.1406L28.418-68.1152C28.418-79.3945 34.1797-85.4004 45.6543-85.4004L125.488-85.4004C136.914-85.4004 142.773-79.3945 142.773-68.1152L142.773-19.1406C142.773-7.91016 136.914-1.9043 125.488-1.9043L86.5234-1.9043C82.8125-1.9043 81.0547-1.2207 78.418 1.41602ZM56.1523-49.8047C56.1523-42.7734 60.5957-37.4512 67.3828-37.4512C70.2148-37.4512 72.8027-38.1348 74.4141-40.1367L75.1953-40.1367C73.3398-35.3516 68.6523-31.8848 64.1113-30.8105C62.1094-30.2734 61.3281-29.2969 61.3281-27.8809C61.3281-26.2207 62.6465-25.0977 64.4043-25.0977C70.8008-25.0977 82.7148-32.8125 82.7148-47.2168C82.7148-55.8105 77.2461-62.4023 69.0918-62.4023C61.6699-62.4023 56.1523-57.1289 56.1523-49.8047ZM88.9648-49.8047C88.9648-42.7734 93.4082-37.4512 100.195-37.4512C103.027-37.4512 105.615-38.1348 107.227-40.1367L108.008-40.1367C106.104-35.3516 101.465-31.8848 96.875-30.8105C94.9219-30.2734 94.1406-29.2969 94.1406-27.8809C94.1406-26.2207 95.459-25.0977 97.2168-25.0977C103.613-25.0977 115.527-32.8125 115.527-47.2168C115.527-55.8105 110.059-62.4023 101.904-62.4023C94.4824-62.4023 88.9648-57.1289 88.9648-49.8047Z"/>
  </g>
  <g id="Medium-L" transform="matrix(1 0 0 1 1661.3 1556)">
   <path d="M54.3457 33.9844C57.4707 33.9844 59.7656 32.4219 63.4766 29.1504L85.3027 9.96094L126.025 9.96094C144.092 9.96094 154.443-0.585938 154.443-18.457L154.443-68.3594C154.443-86.2305 144.092-96.7773 126.025-96.7773L44.4824-96.7773C26.3672-96.7773 16.0645-86.2793 16.0645-68.3594L16.0645-18.457C16.0645-0.537109 26.6113 9.96094 44.1406 9.96094L47.3145 9.96094L47.3145 25.9766C47.3145 30.9082 49.9512 33.9844 54.3457 33.9844ZM56.9824 21.9238L56.9824 3.75977C56.9824 0.488281 55.6152-0.78125 52.4414-0.78125L44.7754-0.78125C32.8125-0.78125 26.8066-7.08008 26.8066-18.75L26.8066-68.0176C26.8066-79.6875 32.8125-86.0352 44.7754-86.0352L125.732-86.0352C137.598-86.0352 143.701-79.6875 143.701-68.0176L143.701-18.75C143.701-7.08008 137.598-0.78125 125.732-0.78125L84.8633-0.78125C81.4453-0.78125 79.7363-0.195312 77.2949 2.24609ZM56.2012-49.5605C56.2012-42.6758 60.5957-37.4512 67.2852-37.4512C69.9707-37.4512 72.5098-38.0859 74.1211-40.0391L74.8047-40.0391C72.8027-35.1074 68.0664-31.7871 63.8672-30.7617C61.8652-30.2246 61.1328-29.248 61.1328-27.8809C61.1328-26.3184 62.4023-25.1465 64.0625-25.1465C70.166-25.1465 82.1777-32.5195 82.1777-47.168C82.1777-55.5664 76.7578-61.8652 68.8965-61.8652C61.6699-61.8652 56.2012-56.7383 56.2012-49.5605ZM88.6719-49.5605C88.6719-42.6758 93.0176-37.4512 99.7559-37.4512C102.441-37.4512 104.98-38.0859 106.592-40.0391L107.227-40.0391C105.225-35.1074 100.488-31.7871 96.3379-30.7617C94.2871-30.2246 93.6035-29.248 93.6035-27.8809C93.6035-26.3184 94.8242-25.1465 96.5332-25.1465C102.637-25.1465 114.6-32.5195 114.6-47.168C114.6-55.5664 109.18-61.8652 101.318-61.8652C94.0918-61.8652 88.6719-56.7383 88.6719-49.5605Z"/>
  </g>
  <g id="Regular-L" transform="matrix(1 0 0 1 1365.01 1556)">
   <path d="M53.1738 32.959C55.8594 32.959 57.7148 31.543 60.8887 28.7109L82.9102 9.32617L126.074 9.32617C143.75 9.32617 153.613-0.78125 153.613-18.1641L153.613-67.9688C153.613-85.4004 143.75-95.5078 126.074-95.5078L43.6035-95.5078C25.8789-95.5078 16.0645-85.4492 16.0645-67.9688L16.0645-18.1641C16.0645-0.683594 25.8789 9.32617 43.6035 9.32617L47.2656 9.32617L47.2656 26.123C47.2656 30.2734 49.4141 32.959 53.1738 32.959ZM55.3223 23.1445L55.3223 4.78516C55.3223 1.80664 54.1992 0.683594 51.2695 0.683594L43.6523 0.683594C31.0547 0.683594 24.707-6.05469 24.707-18.2617L24.707-67.9199C24.707-80.127 31.0547-86.8652 43.6523-86.8652L126.025-86.8652C138.477-86.8652 144.971-80.127 144.971-67.9199L144.971-18.2617C144.971-6.05469 138.477 0.683594 126.025 0.683594L82.7148 0.683594C79.6387 0.683594 78.0273 1.17188 75.8789 3.36914ZM56.2988-49.2676C56.2988-42.627 60.5469-37.4512 67.1875-37.4512C69.7266-37.4512 72.2168-37.9883 73.7793-39.9414L74.2676-39.9414C72.1191-34.8633 67.2852-31.6406 63.623-30.6641C61.5234-30.127 60.8887-29.1992 60.8887-27.8809C60.8887-26.3672 62.0605-25.2441 63.6719-25.2441C69.3848-25.2441 81.4453-32.1777 81.4453-47.0703C81.4453-55.1758 76.123-61.1816 68.6523-61.1816C61.6211-61.1816 56.2988-56.2012 56.2988-49.2676ZM88.2812-49.2676C88.2812-42.627 92.5293-37.4512 99.1699-37.4512C101.709-37.4512 104.199-37.9883 105.762-39.9414L106.25-39.9414C104.102-34.8633 99.2676-31.6406 95.6055-30.6641C93.5059-30.127 92.8711-29.1992 92.8711-27.8809C92.8711-26.3672 94.043-25.2441 95.6543-25.2441C101.318-25.2441 113.428-32.1777 113.428-47.0703C113.428-55.1758 108.105-61.1816 100.635-61.1816C93.6035-61.1816 88.2812-56.2012 88.2812-49.2676Z"/>
  </g>
  <g id="Light-L" transform="matrix(1 0 0 1 1069.2 1556)">
   <path d="M50.9277 31.5918C52.9785 31.5918 54.4922 30.4688 56.7871 28.418L79.1504 8.98438L126.074 8.98438C142.334 8.98438 151.807-0.683594 151.807-16.6992L151.807-68.6035C151.807-84.6191 142.334-94.2871 126.074-94.2871L41.7969-94.2871C25.5371-94.2871 16.0645-84.7168 16.0645-68.6035L16.0645-16.6992C16.0645-0.585938 25.5371 8.98438 41.7969 8.98438L46.3379 8.98438L46.3379 26.3184C46.3379 29.541 48.0957 31.5918 50.9277 31.5918ZM52.5391 24.1211L52.5391 5.51758C52.5391 3.27148 51.6602 2.34375 49.3652 2.34375L41.8945 2.34375C29.541 2.34375 22.7051-4.73633 22.7051-16.8457L22.7051-68.5059C22.7051-80.5664 29.541-87.6953 41.8945-87.6953L125.977-87.6953C138.135-87.6953 145.166-80.5664 145.166-68.5059L145.166-16.8457C145.166-4.73633 138.135 2.34375 125.977 2.34375L79.3457 2.34375C76.8066 2.34375 75.4883 2.7832 73.584 4.63867ZM56.543-48.3887C56.543-42.0898 60.6934-37.2559 66.9922-37.2559C69.5312-37.2559 71.9238-37.9395 73.4863-39.8926L73.9746-39.8926C71.9238-34.668 66.7969-31.3965 63.5742-30.5176C61.7188-30.0293 61.1328-29.1992 61.1328-28.0273C61.1328-26.709 62.1582-25.6836 63.5742-25.6836C68.6523-25.6836 80.4688-32.0801 80.4688-46.2891C80.4688-54.1992 75.0977-59.7168 68.2617-59.7168C61.6211-59.7168 56.543-54.8828 56.543-48.3887ZM87.4512-48.3887C87.4512-42.0898 91.6016-37.2559 97.9004-37.2559C100.439-37.2559 102.832-37.9395 104.395-39.8926L104.883-39.8926C102.832-34.668 97.7051-31.3965 94.4824-30.5176C92.627-30.0293 92.041-29.1992 92.041-28.0273C92.041-26.709 93.0664-25.6836 94.4824-25.6836C99.5605-25.6836 111.328-32.0801 111.328-46.2891C111.328-54.1992 106.006-59.7168 99.1699-59.7168C92.4805-59.7168 87.4512-54.8828 87.4512-48.3887Z"/>
  </g>
  <g id="Thin-L" transform="matrix(1 0 0 1 773.683 1556)">
   <path d="M47.9492 29.7852C49.2188 29.7852 50.2441 29.0527 51.416 28.0273L74.2188 8.54492L126.074 8.54492C140.43 8.54492 149.414-0.634766 149.414-14.7949L149.414-69.3848C149.414-83.5449 140.43-92.7246 126.074-92.7246L39.3555-92.7246C25.0488-92.7246 16.0645-83.6914 16.0645-69.3848L16.0645-14.7949C16.0645-0.488281 25.0488 8.54492 39.3555 8.54492L45.1172 8.54492L45.1172 26.5137C45.1172 28.5156 46.2891 29.7852 47.9492 29.7852ZM48.8281 25.4395L48.8281 6.54297C48.8281 5.17578 48.2422 4.58984 46.875 4.58984L39.502 4.58984C27.5391 4.58984 19.9707-2.97852 19.9707-14.9414L19.9707-69.2383C19.9707-81.2012 27.5391-88.7695 39.502-88.7695L125.928-88.7695C137.646-88.7695 145.459-81.2012 145.459-69.2383L145.459-14.9414C145.459-2.97852 137.646 4.58984 125.928 4.58984L74.8535 4.58984C73.0469 4.58984 72.1191 4.93164 70.6055 6.34766ZM56.8848-47.2168C56.8848-41.4062 60.8398-37.0117 66.6992-37.0117C69.2383-37.0117 71.582-37.8418 73.1445-39.8438L73.6328-39.8438C71.7285-34.375 66.2109-31.1035 63.4766-30.3223C61.9629-29.9316 61.4746-29.248 61.4746-28.2715C61.4746-27.0996 62.3047-26.2695 63.4766-26.2695C67.7246-26.2695 79.1016-31.9824 79.1016-45.2637C79.1016-52.8809 73.7793-57.8125 67.7246-57.8125C61.5723-57.8125 56.8848-53.1738 56.8848-47.2168ZM86.377-47.2168C86.377-41.4062 90.332-37.0117 96.1914-37.0117C98.7305-37.0117 101.074-37.8418 102.637-39.8438L103.125-39.8438C101.221-34.375 95.7031-31.1035 92.9688-30.3223C91.4551-29.9316 90.918-29.248 90.918-28.2715C90.918-27.0996 91.7969-26.2695 92.9688-26.2695C97.2168-26.2695 108.594-31.9824 108.594-45.2637C108.594-52.8809 103.271-57.8125 97.2168-57.8125C91.0156-57.8125 86.377-53.1738 86.377-47.2168Z"/>
  </g>
  <g id="Ultralight-L" transform="matrix(1 0 0 1 477.607 1556)">
   <path d="M46.4355 28.8574C47.3145 28.8574 48.0469 28.3203 48.6816 27.832L71.6797 8.30078L126.074 8.30078C139.453 8.30078 148.145-0.585938 148.145-13.8184L148.145-69.8242C148.145-83.0078 139.453-91.8945 126.074-91.8945L38.1348-91.8945C24.8047-91.8945 16.0645-83.2031 16.0645-69.8242L16.0645-13.8184C16.0645-0.439453 24.8047 8.30078 38.1348 8.30078L44.4824 8.30078L44.4824 26.6113C44.4824 28.0273 45.3613 28.8574 46.4355 28.8574ZM46.9238 26.0742L46.9238 7.03125C46.9238 6.15234 46.4844 5.71289 45.6055 5.71289L38.3301 5.71289C26.5137 5.71289 18.6035-2.09961 18.6035-13.9648L18.6035-69.6289C18.6035-81.4941 26.5137-89.3555 38.3301-89.3555L125.928-89.3555C137.354-89.3555 145.605-81.4941 145.605-69.6289L145.605-13.9648C145.605-2.09961 137.354 5.71289 125.928 5.71289L72.5098 5.71289C71.0938 5.71289 70.4102 6.05469 69.043 7.22656ZM57.0312-46.6309C57.0312-41.0645 60.9375-36.9141 66.5527-36.9141C69.0918-36.9141 71.4355-37.8418 72.9492-39.8438L73.4375-39.8438C71.6309-34.2285 65.8691-30.9082 63.4277-30.2246C62.0605-29.834 61.6211-29.248 61.6211-28.418C61.6211-27.3438 62.3535-26.5625 63.4277-26.5625C67.2363-26.5625 78.418-31.9336 78.418-44.7266C78.418-52.2461 73.0957-56.8359 67.4316-56.8359C61.5234-56.8359 57.0312-52.2949 57.0312-46.6309ZM85.791-46.6309C85.791-41.0645 89.6973-36.9141 95.3125-36.9141C97.8516-36.9141 100.195-37.8418 101.709-39.8438L102.197-39.8438C100.391-34.2285 94.6289-30.9082 92.1875-30.2246C90.8203-29.834 90.3809-29.248 90.3809-28.418C90.3809-27.3438 91.1621-26.5625 92.1875-26.5625C95.9961-26.5625 107.178-31.9336 107.178-44.7266C107.178-52.2461 101.855-56.8359 96.1914-56.8359C90.2832-56.8359 85.791-52.2949 85.791-46.6309Z"/>
  </g>
  <g id="Black-M" transform="matrix(1 0 0 1 2865.58 1126)">
   <path d="M47.168 23.0469C51.5625 23.0469 55.4199 21.4355 60.8398 16.748L76.9043 2.97852L97.4609 2.97852C112.793 2.97852 123.193-7.42188 123.193-22.7539L123.193-63.2812C123.193-78.6133 112.793-89.0137 97.4609-89.0137L38.1836-89.0137C22.8516-89.0137 12.4512-78.6133 12.4512-63.2812L12.4512-22.7539C12.4512-7.42188 24.1211 2.97852 36.2793 2.97852L36.6211 2.97852L36.6211 11.5723C36.6211 18.75 40.7227 23.0469 47.168 23.0469ZM51.4648 2.97852L51.4648-9.81445C51.4648-13.8184 49.1699-15.332 45.9473-15.332L39.8438-15.332C33.9355-15.332 30.7617-18.2617 30.7617-24.4141L30.7617-61.6211C30.7617-67.7734 33.9355-70.7031 39.8438-70.7031L95.8008-70.7031C101.66-70.7031 104.883-67.7734 104.883-61.6211L104.883-24.4141C104.883-18.2617 101.66-15.332 95.8008-15.332L75.2441-15.332C71.0938-15.332 69.4824-14.4043 66.3574-11.377ZM43.2129-47.4609C43.2129-41.2109 47.2168-36.8652 52.6367-36.8652C55.5664-36.8652 57.8125-37.8418 59.2773-39.502L60.5957-39.502C59.9609-36.4746 56.5918-33.2031 50.9277-32.0312C49.7559-31.7871 48.877-30.9082 48.877-29.6387C48.877-28.0273 50.2441-27.2461 51.8555-27.2461C58.3984-27.2461 66.8945-35.0586 66.8945-44.5312C66.8945-52.3926 62.3047-58.7891 54.4434-58.7891C47.9004-58.7891 43.2129-54.0527 43.2129-47.4609ZM70.2637-47.4609C70.2637-41.2109 74.2676-36.8652 79.6875-36.8652C82.666-36.8652 84.9121-37.8418 86.3281-39.502L87.6465-39.502C87.0117-36.4746 83.6426-33.2031 77.9785-32.0312C76.8066-31.7871 75.9277-30.9082 75.9277-29.6387C75.9277-28.0273 77.2949-27.2461 78.9551-27.2461C85.4492-27.2461 93.9453-35.0586 93.9453-44.5312C93.9453-52.3926 89.4043-58.7891 81.4941-58.7891C74.9512-58.7891 70.2637-54.0527 70.2637-47.4609Z"/>
  </g>
  <g id="Heavy-M" transform="matrix(1 0 0 1 2569.23 1126)">
   <path d="M46.0449 21.9238C50 21.9238 53.3203 20.4102 58.1543 16.2109L74.4141 2.14844L97.5098 2.14844C112.646 2.14844 122.461-7.71484 122.461-22.8027L122.461-62.5488C122.461-77.6367 112.646-87.5 97.5098-87.5L37.4023-87.5C22.2656-87.5 12.4512-77.6367 12.4512-62.5488L12.4512-22.8027C12.4512-7.71484 23.2422 2.14844 35.9375 2.14844L36.7188 2.14844L36.7188 11.7676C36.7188 18.1152 40.332 21.9238 46.0449 21.9238ZM49.8047 4.54102L49.8047-8.59375C49.8047-12.3047 47.8516-13.6719 44.7266-13.6719L38.6719-13.6719C31.8359-13.6719 28.2715-17.1387 28.2715-24.0723L28.2715-61.2793C28.2715-68.2129 31.8359-71.6797 38.6719-71.6797L96.2402-71.6797C103.076-71.6797 106.641-68.2129 106.641-61.2793L106.641-24.0723C106.641-17.1387 103.076-13.6719 96.2402-13.6719L73.0957-13.6719C69.2871-13.6719 67.7246-12.8418 64.8926-10.1074ZM43.2617-47.2656C43.2617-41.2598 47.1191-36.9141 52.5391-36.9141C55.2246-36.9141 57.4219-37.7441 58.7891-39.3555L59.9121-39.3555C58.9844-36.1328 55.6152-33.0566 50.5371-31.9824C49.2188-31.6895 48.4375-30.8105 48.4375-29.5898C48.4375-28.0762 49.707-27.2461 51.2695-27.2461C57.373-27.2461 66.1621-34.5703 66.1621-44.5801C66.1621-52.1484 61.6699-58.1543 54.1992-58.1543C47.8516-58.1543 43.2617-53.6133 43.2617-47.2656ZM69.9707-47.2656C69.9707-41.2598 73.7793-36.9141 79.1992-36.9141C81.9336-36.9141 84.082-37.7441 85.498-39.3555L86.5723-39.3555C85.6934-36.1328 82.2754-33.0566 77.1973-31.9824C75.9277-31.6895 75.0977-30.8105 75.0977-29.5898C75.0977-28.0762 76.416-27.2461 77.9785-27.2461C84.082-27.2461 92.8223-34.5703 92.8223-44.5801C92.8223-52.1484 88.3301-58.1543 80.8594-58.1543C74.5605-58.1543 69.9707-53.6133 69.9707-47.2656Z"/>
  </g>
  <g id="Bold-M" transform="matrix(1 0 0 1 2272.94 1126)">
   <path d="M44.8242 20.7031C48.2422 20.7031 50.9766 19.2871 55.1758 15.625L71.6309 1.2207L97.5586 1.2207C112.5 1.2207 121.631-8.00781 121.631-22.8027L121.631-61.7676C121.631-76.5625 112.5-85.791 97.5586-85.791L36.4746-85.791C21.582-85.791 12.4512-76.6113 12.4512-61.7676L12.4512-22.8027C12.4512-7.95898 22.2168 1.2207 35.5469 1.2207L36.8652 1.2207L36.8652 11.9141C36.8652 17.3828 39.8926 20.7031 44.8242 20.7031ZM47.9492 6.20117L47.9492-7.22656C47.9492-10.5957 46.3379-11.8652 43.3594-11.8652L37.3535-11.8652C29.4434-11.8652 25.5371-15.8203 25.5371-23.6328L25.5371-60.9375C25.5371-68.75 29.4434-72.7539 37.3535-72.7539L96.7285-72.7539C104.59-72.7539 108.545-68.75 108.545-60.9375L108.545-23.6328C108.545-15.8203 104.59-11.8652 96.7285-11.8652L70.6543-11.8652C67.2363-11.8652 65.7227-11.1816 63.2324-8.69141ZM43.3594-47.0215C43.3594-41.2598 47.0215-36.9629 52.3926-36.9629C54.8828-36.9629 56.9824-37.5977 58.3008-39.209L59.1797-39.209C57.959-35.7422 54.4922-32.9102 50.1465-31.8848C48.6816-31.543 47.9492-30.7129 47.9492-29.541C47.9492-28.125 49.1211-27.2461 50.6348-27.2461C56.25-27.2461 65.2832-33.9844 65.2832-44.6777C65.2832-51.8066 60.9375-57.4707 53.9551-57.4707C47.8516-57.4707 43.3594-53.125 43.3594-47.0215ZM69.5801-47.0215C69.5801-41.2598 73.2422-36.9629 78.6621-36.9629C81.1035-36.9629 83.2031-37.5977 84.5215-39.209L85.4004-39.209C84.1797-35.7422 80.7129-32.9102 76.3672-31.8848C74.9023-31.543 74.1699-30.7129 74.1699-29.541C74.1699-28.125 75.3418-27.2461 76.8555-27.2461C82.5195-27.2461 91.5527-33.9844 91.5527-44.6777C91.5527-51.8066 87.1582-57.4707 80.1758-57.4707C74.0723-57.4707 69.5801-53.125 69.5801-47.0215Z"/>
  </g>
  <g id="Semibold-M" transform="matrix(1 0 0 1 1976.52 1126)">
   <path d="M43.9941 19.873C47.0215 19.873 49.3652 18.5059 53.0762 15.2344L69.7266 0.585938L97.6074 0.585938C112.402 0.585938 121.045-8.20312 121.045-22.8027L121.045-61.2305C121.045-75.8301 112.402-84.668 97.6074-84.668L35.8887-84.668C21.0938-84.668 12.4512-75.8789 12.4512-61.2305L12.4512-22.8027C12.4512-8.1543 21.4844 0.585938 35.2539 0.585938L36.9629 0.585938L36.9629 12.0117C36.9629 16.8457 39.5996 19.873 43.9941 19.873ZM46.6797 7.42188L46.6797-6.29883C46.6797-9.42383 45.3125-10.5469 42.4316-10.5469L36.4258-10.5469C27.7832-10.5469 23.6328-14.9414 23.6328-23.3887L23.6328-60.6934C23.6328-69.1406 27.7832-73.4863 36.4258-73.4863L97.0703-73.4863C105.664-73.4863 109.863-69.1406 109.863-60.6934L109.863-23.3887C109.863-14.9414 105.664-10.5469 97.0703-10.5469L68.9941-10.5469C65.8203-10.5469 64.3555-10.0098 62.0605-7.71484ZM43.4082-46.875C43.4082-41.2598 46.9727-37.0117 52.3438-37.0117C54.5898-37.0117 56.6406-37.5488 57.959-39.1113L58.6426-39.1113C57.2266-35.498 53.7109-32.8125 49.8535-31.8848C48.291-31.4941 47.6562-30.6641 47.6562-29.4922C47.6562-28.125 48.7305-27.2461 50.1953-27.2461C55.5176-27.2461 64.7461-33.5938 64.7461-44.7266C64.7461-51.6113 60.4492-56.9824 53.7598-56.9824C47.8027-56.9824 43.4082-52.7832 43.4082-46.875ZM69.3359-46.875C69.3359-41.2598 72.9004-37.0117 78.2715-37.0117C80.5176-37.0117 82.5684-37.5488 83.8867-39.1113L84.5703-39.1113C83.1543-35.498 79.6387-32.8125 75.7812-31.8848C74.2188-31.4941 73.584-30.6641 73.584-29.4922C73.584-28.125 74.6582-27.2461 76.123-27.2461C81.4453-27.2461 90.6738-33.5938 90.6738-44.7266C90.6738-51.6113 86.377-56.9824 79.6875-56.9824C73.7305-56.9824 69.3359-52.7832 69.3359-46.875Z"/>
  </g>
  <g id="Medium-M" transform="matrix(1 0 0 1 1680.03 1126)">
   <path d="M43.3105 19.2383C46.0938 19.2383 48.1445 17.8711 51.5137 14.8926L68.2617 0.146484L97.6562 0.146484C112.354 0.146484 120.605-8.34961 120.605-22.8516L120.605-60.791C120.605-75.293 112.354-83.7891 97.6562-83.7891L35.4004-83.7891C20.752-83.7891 12.4512-75.293 12.4512-60.791L12.4512-22.8516C12.4512-8.30078 20.9961 0.146484 35.0586 0.146484L37.0605 0.146484L37.0605 12.1094C37.0605 16.4551 39.3555 19.2383 43.3105 19.2383ZM45.752 8.30078L45.752-5.61523C45.752-8.49609 44.4824-9.61914 41.748-9.61914L35.7422-9.61914C26.5625-9.61914 22.168-14.2578 22.168-23.1445L22.168-60.498C22.168-69.3848 26.5625-74.0234 35.7422-74.0234L97.3633-74.0234C106.494-74.0234 110.889-69.3848 110.889-60.498L110.889-23.1445C110.889-14.2578 106.494-9.61914 97.3633-9.61914L67.7246-9.61914C64.7461-9.61914 63.2812-9.13086 61.2305-6.98242ZM43.457-46.7285C43.457-41.2598 46.9238-37.0117 52.2949-37.0117C54.3945-37.0117 56.3965-37.5 57.666-39.0137L58.252-39.0137C56.6895-35.3027 53.1738-32.7148 49.6094-31.8359C47.9492-31.3965 47.3633-30.6152 47.3633-29.4434C47.3633-28.1738 48.4375-27.2461 49.8535-27.2461C54.9316-27.2461 64.3066-33.3008 64.3066-44.7754C64.3066-51.4648 60.0586-56.6406 53.6133-56.6406C47.8027-56.6406 43.457-52.5391 43.457-46.7285ZM69.1406-46.7285C69.1406-41.2598 72.6074-37.0117 77.9785-37.0117C80.127-37.0117 82.1289-37.5 83.3984-39.0137L83.9355-39.0137C82.373-35.3027 78.8574-32.7148 75.293-31.8359C73.6816-31.3965 73.0957-30.6152 73.0957-29.4434C73.0957-28.1738 74.1211-27.2461 75.5371-27.2461C80.6152-27.2461 89.9902-33.3008 89.9902-44.7754C89.9902-51.4648 85.7422-56.6406 79.2969-56.6406C73.4863-56.6406 69.1406-52.5391 69.1406-46.7285Z"/>
  </g>
  <g id="Regular-M" transform="matrix(1 0 0 1 1383.58 1126)">
   <path d="M42.4805 18.4082C44.873 18.4082 46.5332 17.1387 49.5117 14.502L66.3574-0.488281L97.7051-0.488281C112.256-0.488281 120.068-8.54492 120.068-22.8516L120.068-60.2539C120.068-74.5605 112.256-82.6172 97.7051-82.6172L34.8145-82.6172C20.2637-82.6172 12.4512-74.6094 12.4512-60.2539L12.4512-22.8516C12.4512-8.49609 20.2637-0.488281 34.8145-0.488281L37.1582-0.488281L37.1582 12.207C37.1582 15.9668 39.0625 18.4082 42.4805 18.4082ZM44.4824 9.47266L44.4824-4.6875C44.4824-7.32422 43.457-8.34961 40.8203-8.34961L34.8145-8.34961C24.9512-8.34961 20.3125-13.3789 20.3125-22.9004L20.3125-60.2539C20.3125-69.7754 24.9512-74.7559 34.8145-74.7559L97.7051-74.7559C107.52-74.7559 112.207-69.7754 112.207-60.2539L112.207-22.9004C112.207-13.3789 107.52-8.34961 97.7051-8.34961L66.0645-8.34961C63.3301-8.34961 61.9629-7.95898 60.1074-6.05469ZM43.5059-46.582C43.5059-41.2598 46.875-37.0605 52.1973-37.0605C54.1504-37.0605 56.1035-37.4023 57.3242-38.916L57.7148-38.916C56.0059-35.0586 52.3926-32.5684 49.3164-31.7871C47.5586-31.3477 47.0703-30.5176 47.0703-29.3945C47.0703-28.2227 48.0469-27.2461 49.3652-27.2461C54.1504-27.2461 63.7207-32.9102 63.7207-44.873C63.7207-51.2695 59.5703-56.1523 53.4668-56.1523C47.8027-56.1523 43.5059-52.1973 43.5059-46.582ZM68.8965-46.582C68.8965-41.2598 72.2656-37.0605 77.5879-37.0605C79.541-37.0605 81.4941-37.4023 82.7148-38.916L83.1055-38.916C81.3965-35.0586 77.7832-32.5684 74.707-31.7871C72.9492-31.3477 72.4609-30.5176 72.4609-29.3945C72.4609-28.2227 73.4375-27.2461 74.7559-27.2461C79.541-27.2461 89.1113-32.9102 89.1113-44.873C89.1113-51.2695 84.9609-56.1523 78.8574-56.1523C73.1934-56.1523 68.8965-52.1973 68.8965-46.582Z"/>
  </g>
  <g id="Light-M" transform="matrix(1 0 0 1 1087.68 1126)">
   <path d="M40.4785 17.1875C42.334 17.1875 43.6523 16.1621 45.8496 14.2578L63.0371-0.830078L97.7051-0.830078C110.938-0.830078 118.457-8.49609 118.457-21.5332L118.457-60.791C118.457-73.877 110.938-81.543 97.7051-81.543L33.2031-81.543C19.9707-81.543 12.4512-73.9258 12.4512-60.791L12.4512-21.5332C12.4512-8.44727 19.9707-0.830078 33.2031-0.830078L36.3281-0.830078L36.3281 12.3535C36.3281 15.2832 37.8418 17.1875 40.4785 17.1875ZM41.9922 10.3516L41.9922-4.00391C41.9922-6.05469 41.1621-6.83594 39.1113-6.83594L33.252-6.83594C23.584-6.83594 18.5059-12.207 18.5059-21.582L18.5059-60.7422C18.5059-70.166 23.584-75.4883 33.252-75.4883L97.6562-75.4883C107.227-75.4883 112.402-70.166 112.402-60.7422L112.402-21.582C112.402-12.207 107.227-6.83594 97.6562-6.83594L62.9883-6.83594C60.791-6.83594 59.668-6.49414 58.0566-4.88281ZM43.7012-45.8008C43.7012-40.7715 46.9727-36.9141 52.002-36.9141C53.9551-36.9141 55.8594-37.3535 57.0801-38.8672L57.4707-38.8672C55.8594-34.8633 52.002-32.373 49.2676-31.6406C47.7539-31.25 47.2656-30.5664 47.2656-29.5898C47.2656-28.4668 48.1445-27.6367 49.3164-27.6367C53.5156-27.6367 62.793-32.8125 62.793-44.1406C62.793-50.3906 58.6426-54.834 53.0762-54.834C47.7539-54.834 43.7012-51.0254 43.7012-45.8008ZM68.1641-45.8008C68.1641-40.7715 71.3867-36.9141 76.416-36.9141C78.418-36.9141 80.3223-37.3535 81.543-38.8672L81.8848-38.8672C80.2734-34.8633 76.416-32.373 73.7305-31.6406C72.168-31.25 71.7285-30.5664 71.7285-29.5898C71.7285-28.4668 72.5586-27.6367 73.7305-27.6367C77.9785-27.6367 87.2559-32.8125 87.2559-44.1406C87.2559-50.3906 83.1055-54.834 77.4902-54.834C72.168-54.834 68.1641-51.0254 68.1641-45.8008Z"/>
  </g>
  <g id="Thin-M" transform="matrix(1 0 0 1 792.042 1126)">
   <path d="M37.8418 15.5273C38.9648 15.5273 39.8438 14.8926 41.0156 13.8672L58.5938-1.2207L97.7051-1.2207C109.229-1.2207 116.309-8.44727 116.309-19.8242L116.309-61.5234C116.309-72.9004 109.229-80.127 97.7051-80.127L31.0547-80.127C19.5312-80.127 12.4512-72.998 12.4512-61.5234L12.4512-19.8242C12.4512-8.34961 19.5312-1.2207 31.0547-1.2207L35.2051-1.2207L35.2051 12.5977C35.2051 14.4043 36.2793 15.5273 37.8418 15.5273ZM38.623 11.4746L38.623-3.07617C38.623-4.3457 38.1348-4.83398 36.8652-4.83398L31.1523-4.83398C21.7773-4.83398 16.0645-10.6445 16.0645-19.9219L16.0645-61.4258C16.0645-70.7031 21.7773-76.5137 31.1523-76.5137L97.6074-76.5137C106.787-76.5137 112.646-70.7031 112.646-61.4258L112.646-19.9219C112.646-10.6445 106.787-4.83398 97.6074-4.83398L58.9844-4.83398C57.4219-4.83398 56.6406-4.58984 55.3711-3.36914ZM43.9941-44.7754C43.9941-40.1855 47.1191-36.6699 51.7578-36.6699C53.7109-36.6699 55.5664-37.3047 56.7383-38.8184L57.1289-38.8184C55.6641-34.6191 51.4648-32.0801 49.2188-31.4941C47.9492-31.1523 47.5586-30.5664 47.5586-29.7852C47.5586-28.8574 48.2422-28.1738 49.2188-28.1738C52.6855-28.1738 61.6211-32.7637 61.6211-43.2129C61.6211-49.2188 57.4707-53.125 52.5879-53.125C47.7051-53.125 43.9941-49.5117 43.9941-44.7754ZM67.1875-44.7754C67.1875-40.1855 70.2637-36.6699 74.9023-36.6699C76.9043-36.6699 78.7109-37.3047 79.9316-38.8184L80.2734-38.8184C78.8086-34.6191 74.6094-32.0801 72.3633-31.4941C71.1426-31.1523 70.7031-30.5664 70.7031-29.7852C70.7031-28.8574 71.4355-28.1738 72.4121-28.1738C75.8789-28.1738 84.7656-32.7637 84.7656-43.2129C84.7656-49.2188 80.6152-53.125 75.7324-53.125C70.8984-53.125 67.1875-49.5117 67.1875-44.7754Z"/>
  </g>
  <g id="Ultralight-M" transform="matrix(1 0 0 1 495.893 1126)">
   <path d="M36.4746 14.6973C37.2559 14.6973 37.8906 14.2578 38.5742 13.7207L56.3477-1.41602L97.7051-1.41602C108.35-1.41602 115.186-8.39844 115.186-18.9453L115.186-61.9141C115.186-72.4121 108.35-79.3945 97.7051-79.3945L29.9316-79.3945C19.2871-79.3945 12.4512-72.5586 12.4512-61.9141L12.4512-18.9453C12.4512-8.25195 19.2871-1.41602 29.9316-1.41602L34.668-1.41602L34.668 12.6953C34.668 13.916 35.4492 14.6973 36.4746 14.6973ZM36.9141 12.1094L36.9141-2.63672C36.9141-3.4668 36.5723-3.80859 35.7422-3.80859L30.0781-3.80859C20.8496-3.80859 14.8438-9.81445 14.8438-19.043L14.8438-61.7676C14.8438-70.9961 20.8496-77.002 30.0781-77.002L97.6074-77.002C106.543-77.002 112.793-70.9961 112.793-61.7676L112.793-19.043C112.793-9.81445 106.543-3.80859 97.6074-3.80859L56.8848-3.80859C55.6641-3.80859 55.0781-3.56445 53.9551-2.58789ZM44.1406-44.2383C44.1406-39.8438 47.2168-36.5723 51.6113-36.5723C53.6133-36.5723 55.4199-37.2559 56.5918-38.8184L56.9824-38.8184C55.5176-34.5215 51.1719-31.9336 49.1699-31.3965C48.0957-31.1035 47.7051-30.5664 47.7051-29.9316C47.7051-29.0527 48.3398-28.418 49.1699-28.418C52.2949-28.418 60.9863-32.7148 60.9863-42.7734C60.9863-48.6328 56.8848-52.2461 52.3438-52.2461C47.7051-52.2461 44.1406-48.7305 44.1406-44.2383ZM66.6504-44.2383C66.6504-39.8438 69.7266-36.5723 74.1211-36.5723C76.123-36.5723 77.9297-37.2559 79.1016-38.8184L79.4922-38.8184C78.0273-34.5215 73.6816-31.9336 71.6797-31.3965C70.6055-31.1035 70.2148-30.5664 70.2148-29.9316C70.2148-29.0527 70.8496-28.418 71.6797-28.418C74.8047-28.418 83.4961-32.7148 83.4961-42.7734C83.4961-48.6328 79.3945-52.2461 74.8535-52.2461C70.2148-52.2461 66.6504-48.7305 66.6504-44.2383Z"/>
  </g>
  <g id="Black-S" transform="matrix(1 0 0 1 2880.28 696)">
   <path d="M36.9141 10.3516C40.332 10.3516 43.3105 9.08203 47.5098 5.46875L60.1074-5.37109L76.3672-5.37109C88.3789-5.37109 96.4844-13.4766 96.4844-25.4883L96.4844-57.1289C96.4844-69.1406 88.3789-77.2461 76.3672-77.2461L29.8828-77.2461C17.8711-77.2461 9.76562-69.1406 9.76562-57.1289L9.76562-25.4883C9.76562-13.4766 18.8477-5.37109 28.418-5.37109L28.7109-5.37109L28.7109 1.46484C28.7109 7.03125 31.8848 10.3516 36.9141 10.3516ZM40.2344-5.17578L40.2344-15.2344C40.2344-18.3594 38.4766-19.5312 35.9375-19.5312L31.1523-19.5312C26.4648-19.5312 23.9258-21.875 23.9258-26.7578L23.9258-55.8594C23.9258-60.7422 26.4648-63.0859 31.1523-63.0859L75.0977-63.0859C79.7852-63.0859 82.3242-60.7422 82.3242-55.8594L82.3242-26.7578C82.3242-21.875 79.7852-19.5312 75.0977-19.5312L58.8379-19.5312C55.6152-19.5312 54.3457-18.7988 51.9043-16.4551ZM33.8379-44.8242C33.8379-39.9414 36.9629-36.5234 41.2109-36.5234C43.5059-36.5234 45.2637-37.2559 46.3867-38.5742L47.4121-38.5742C46.875-36.1816 44.2383-33.6426 39.8438-32.7148C38.916-32.5195 38.2324-31.8359 38.2324-30.8594C38.2324-29.5898 39.3066-28.9551 40.5762-28.9551C45.6543-28.9551 52.3438-35.0586 52.3438-42.5293C52.3438-48.6816 48.7793-53.6621 42.627-53.6621C37.5-53.6621 33.8379-49.9512 33.8379-44.8242ZM55.0293-44.8242C55.0293-39.9414 58.1543-36.5234 62.4023-36.5234C64.6973-36.5234 66.4551-37.2559 67.5781-38.5742L68.6035-38.5742C68.0664-36.1816 65.4297-33.6426 61.0352-32.7148C60.1074-32.5195 59.4238-31.8359 59.4238-30.8594C59.4238-29.5898 60.498-28.9551 61.7676-28.9551C66.8457-28.9551 73.5352-35.0586 73.5352-42.5293C73.5352-48.6816 69.9707-53.6621 63.8184-53.6621C58.6914-53.6621 55.0293-49.9512 55.0293-44.8242Z"/>
  </g>
  <g id="Heavy-S" transform="matrix(1 0 0 1 2583.76 696)">
   <path d="M36.2793 9.66797C39.4043 9.66797 42.041 8.39844 45.8496 5.07812L58.5938-5.95703L76.416-5.95703C88.4277-5.95703 96.0938-13.6719 96.0938-25.6348L96.0938-56.543C96.0938-68.5059 88.4277-76.2207 76.416-76.2207L29.4434-76.2207C17.4316-76.2207 9.76562-68.5059 9.76562-56.543L9.76562-25.6348C9.76562-13.6719 18.2129-5.95703 28.3203-5.95703L28.9062-5.95703L28.9062 1.5625C28.9062 6.5918 31.7383 9.66797 36.2793 9.66797ZM39.2578-4.10156L39.2578-14.3555C39.2578-17.334 37.6953-18.457 35.2051-18.457L30.4199-18.457C25-18.457 22.2656-21.0938 22.2656-26.6113L22.2656-55.5664C22.2656-61.0352 25-63.7207 30.4199-63.7207L75.4395-63.7207C80.8594-63.7207 83.6426-61.0352 83.6426-55.5664L83.6426-26.6113C83.6426-21.0938 80.8594-18.457 75.4395-18.457L57.5195-18.457C54.4922-18.457 53.2227-17.8223 50.9766-15.625ZM33.8867-44.7266C33.8867-39.9902 36.8652-36.5723 41.1621-36.5723C43.2617-36.5723 44.9707-37.207 46.0449-38.4766L46.9238-38.4766C46.1914-35.9375 43.5547-33.5449 39.5508-32.666C38.5254-32.4707 37.8906-31.7871 37.8906-30.8105C37.8906-29.5898 38.916-28.9062 40.1367-28.9062C44.9707-28.9062 51.8555-34.668 51.8555-42.6758C51.8555-48.584 48.3887-53.3203 42.4805-53.3203C37.5-53.3203 33.8867-49.7559 33.8867-44.7266ZM54.8828-44.7266C54.8828-39.9902 57.8613-36.5723 62.1582-36.5723C64.2578-36.5723 65.9668-37.207 67.041-38.4766L67.9199-38.4766C67.1875-35.9375 64.5508-33.5449 60.5469-32.666C59.5215-32.4707 58.8867-31.7871 58.8867-30.8105C58.8867-29.5898 59.9121-28.9062 61.1328-28.9062C65.9668-28.9062 72.8516-34.668 72.8516-42.6758C72.8516-48.584 69.3848-53.3203 63.4766-53.3203C58.4961-53.3203 54.8828-49.7559 54.8828-44.7266Z"/>
  </g>
  <g id="Bold-S" transform="matrix(1 0 0 1 2287.27 696)">
   <path d="M35.5957 8.88672C38.3789 8.88672 40.5762 7.66602 44.043 4.6875L56.8848-6.64062L76.4648-6.64062C88.4766-6.64062 95.6543-13.916 95.6543-25.8301L95.6543-55.8594C95.6543-67.7734 88.4766-75.0488 76.4648-75.0488L28.9551-75.0488C16.9434-75.0488 9.76562-67.7734 9.76562-55.8594L9.76562-25.8301C9.76562-13.916 17.4316-6.64062 28.2227-6.64062L29.1016-6.64062L29.1016 1.66016C29.1016 6.10352 31.543 8.88672 35.5957 8.88672ZM38.1836-2.92969L38.1836-13.4277C38.1836-16.1621 36.8164-17.2363 34.375-17.2363L29.5898-17.2363C23.3398-17.2363 20.3613-20.2637 20.3613-26.4648L20.3613-55.2246C20.3613-61.4258 23.3398-64.4531 29.5898-64.4531L75.8301-64.4531C82.0801-64.4531 85.0586-61.4258 85.0586-55.2246L85.0586-26.4648C85.0586-20.2637 82.0801-17.2363 75.8301-17.2363L56.0547-17.2363C53.2227-17.2363 52.002-16.6992 50-14.6973ZM33.8867-44.6777C33.8867-40.0391 36.8164-36.6211 41.1133-36.6211C43.0176-36.6211 44.6777-37.1094 45.7031-38.3301L46.3867-38.3301C45.4102-35.6934 42.7246-33.4473 39.2578-32.666C38.0371-32.373 37.5-31.6895 37.5-30.7129C37.5-29.5898 38.4277-28.8574 39.6484-28.8574C44.1895-28.8574 51.3672-34.2285 51.3672-42.8223C51.3672-48.4375 47.9492-52.9297 42.334-52.9297C37.4512-52.9297 33.8867-49.5117 33.8867-44.6777ZM54.6875-44.6777C54.6875-40.0391 57.5684-36.6211 61.8652-36.6211C63.7695-36.6211 65.4297-37.1094 66.5039-38.3301L67.1387-38.3301C66.1621-35.6934 63.5254-33.4473 60.0098-32.666C58.8379-32.373 58.252-31.6895 58.252-30.7129C58.252-29.5898 59.2285-28.8574 60.4004-28.8574C64.9414-28.8574 72.1191-34.2285 72.1191-42.8223C72.1191-48.4375 68.7012-52.9297 63.0859-52.9297C58.252-52.9297 54.6875-49.5117 54.6875-44.6777Z"/>
  </g>
  <g id="Semibold-S" transform="matrix(1 0 0 1 1990.7 696)">
   <path d="M35.1074 8.30078C37.6465 8.30078 39.5996 7.12891 42.7734 4.39453L55.7129-7.08008L76.5137-7.08008C88.5254-7.08008 95.3613-14.0625 95.3613-25.9277L95.3613-55.3711C95.3613-67.2852 88.5254-74.2676 76.5137-74.2676L28.6621-74.2676C16.6504-74.2676 9.76562-67.2852 9.76562-55.3711L9.76562-25.9277C9.76562-14.0625 16.9434-7.08008 28.1738-7.08008L29.248-7.08008L29.248 1.75781C29.248 5.81055 31.4453 8.30078 35.1074 8.30078ZM37.4023-2.09961L37.4023-12.7441C37.4023-15.3809 36.2305-16.3574 33.7891-16.3574L29.0527-16.3574C22.168-16.3574 19.0918-19.6777 19.0918-26.3672L19.0918-54.9805C19.0918-61.6699 22.168-64.9414 29.0527-64.9414L76.0742-64.9414C82.959-64.9414 86.084-61.6699 86.084-54.9805L86.084-26.3672C86.084-19.6777 82.959-16.3574 76.0742-16.3574L55.0293-16.3574C52.3926-16.3574 51.123-15.918 49.2676-14.0137ZM33.9355-44.6289C33.9355-40.0879 36.7188-36.6699 41.0645-36.6699C42.8223-36.6699 44.4336-37.0605 45.459-38.2812L45.9961-38.2812C44.873-35.498 42.1875-33.3984 39.0625-32.6172C37.7441-32.3242 37.207-31.6406 37.207-30.6641C37.207-29.5898 38.1348-28.8086 39.3066-28.8086C43.6523-28.8086 50.9766-33.9355 50.9766-42.9199C50.9766-48.3398 47.6074-52.6855 42.2363-52.6855C37.4512-52.6855 33.9355-49.3652 33.9355-44.6289ZM54.541-44.6289C54.541-40.0879 57.373-36.6699 61.6699-36.6699C63.4277-36.6699 65.0391-37.0605 66.0645-38.2812L66.6016-38.2812C65.4785-35.498 62.8418-33.3984 59.668-32.6172C58.3496-32.3242 57.8613-31.6406 57.8613-30.6641C57.8613-29.5898 58.7402-28.8086 59.9121-28.8086C64.2578-28.8086 71.582-33.9355 71.582-42.9199C71.582-48.3398 68.2617-52.6855 62.8418-52.6855C58.1055-52.6855 54.541-49.3652 54.541-44.6289Z"/>
  </g>
  <g id="Medium-S" transform="matrix(1 0 0 1 1694.09 696)">
   <path d="M34.7168 7.91016C37.1094 7.91016 38.8672 6.73828 41.7969 4.15039L54.7852-7.42188L76.5137-7.42188C88.5254-7.42188 95.166-14.209 95.166-26.0254L95.166-55.0293C95.166-66.8945 88.5254-73.6816 76.5137-73.6816L28.418-73.6816C16.4062-73.6816 9.76562-66.8945 9.76562-55.0293L9.76562-26.0254C9.76562-14.209 16.5527-7.42188 28.125-7.42188L29.3457-7.42188L29.3457 1.80664C29.3457 5.56641 31.3477 7.91016 34.7168 7.91016ZM36.8164-1.46484L36.8164-12.2559C36.8164-14.7949 35.791-15.7227 33.3496-15.7227L28.6133-15.7227C21.3379-15.7227 18.0664-19.2383 18.0664-26.2695L18.0664-54.7852C18.0664-61.8164 21.3379-65.332 28.6133-65.332L76.3184-65.332C83.5938-65.332 86.8164-61.8164 86.8164-54.7852L86.8164-26.2695C86.8164-19.2383 83.5938-15.7227 76.3184-15.7227L54.248-15.7227C51.709-15.7227 50.4883-15.332 48.7793-13.5254ZM33.9355-44.5801C33.9355-40.1367 36.7188-36.7188 41.0156-36.7188C42.6758-36.7188 44.2871-37.0117 45.2637-38.2324L45.7031-38.2324C44.4336-35.3516 41.7969-33.3496 38.8672-32.6172C37.5-32.2754 37.0117-31.5918 37.0117-30.6641C37.0117-29.5898 37.8906-28.8086 39.0625-28.8086C43.2617-28.8086 50.6836-33.7402 50.6836-43.0176C50.6836-48.291 47.3633-52.4902 42.1387-52.4902C37.4512-52.4902 33.9355-49.2188 33.9355-44.5801ZM54.4434-44.5801C54.4434-40.1367 57.2266-36.7188 61.5234-36.7188C63.1836-36.7188 64.7949-37.0117 65.7715-38.2324L66.2109-38.2324C64.9414-35.3516 62.3047-33.3496 59.375-32.6172C58.0078-32.2754 57.5195-31.5918 57.5195-30.6641C57.5195-29.5898 58.3984-28.8086 59.5703-28.8086C63.7695-28.8086 71.1914-33.7402 71.1914-43.0176C71.1914-48.291 67.8711-52.4902 62.6465-52.4902C57.959-52.4902 54.4434-49.2188 54.4434-44.5801Z"/>
  </g>
  <g id="Regular-S" transform="matrix(1 0 0 1 1397.53 696)">
   <path d="M34.2773 7.37305C36.4258 7.37305 37.8906 6.25 40.5273 3.85742L53.6133-7.86133L76.5625-7.86133C88.5742-7.86133 94.873-14.3555 94.873-26.1719L94.873-54.5898C94.873-66.4062 88.5742-72.9004 76.5625-72.9004L28.0762-72.9004C16.0645-72.9004 9.76562-66.4062 9.76562-54.5898L9.76562-26.1719C9.76562-14.3555 16.0645-7.86133 28.0762-7.86133L29.4922-7.86133L29.4922 1.85547C29.4922 5.22461 31.2012 7.37305 34.2773 7.37305ZM36.084-0.634766L36.084-11.6211C36.084-14.0137 35.2051-14.8926 32.8125-14.8926L28.0762-14.8926C20.2148-14.8926 16.7969-18.6523 16.7969-26.1719L16.7969-54.5898C16.7969-62.0605 20.2148-65.8203 28.0762-65.8203L76.5625-65.8203C84.4238-65.8203 87.8418-62.0605 87.8418-54.5898L87.8418-26.1719C87.8418-18.6523 84.4238-14.8926 76.5625-14.8926L53.2227-14.8926C50.8789-14.8926 49.6582-14.5508 48.0957-12.8906ZM33.9844-44.5312C33.9844-40.1855 36.6211-36.7188 40.9668-36.7188C42.4805-36.7188 44.043-36.9629 45.0195-38.1348L45.3125-38.1348C43.9453-35.1562 41.2598-33.252 38.6719-32.6172C37.207-32.2266 36.7676-31.543 36.7676-30.6152C36.7676-29.5898 37.5488-28.7598 38.7207-28.7598C42.7246-28.7598 50.3418-33.4473 50.3418-43.1152C50.3418-48.1934 47.0703-52.2461 42.041-52.2461C37.4512-52.2461 33.9844-49.0723 33.9844-44.5312ZM54.3457-44.5312C54.3457-40.1855 56.9824-36.7188 61.3281-36.7188C62.8418-36.7188 64.4043-36.9629 65.3809-38.1348L65.6738-38.1348C64.2578-35.1562 61.6211-33.252 59.0332-32.6172C57.5195-32.2266 57.1289-31.543 57.1289-30.6152C57.1289-29.5898 57.9102-28.7598 59.082-28.7598C63.0859-28.7598 70.7031-33.4473 70.7031-43.1152C70.7031-48.1934 67.4316-52.2461 62.4023-52.2461C57.8125-52.2461 54.3457-49.0723 54.3457-44.5312Z"/>
  </g>
  <g id="Light-S" transform="matrix(1 0 0 1 1101.55 696)">
   <path d="M32.4707 6.29883C34.1797 6.29883 35.3516 5.41992 37.3047 3.61328L50.6836-8.1543L76.5625-8.1543C87.4023-8.1543 93.4082-14.3066 93.4082-25L93.4082-55.0781C93.4082-65.7715 87.4023-71.9238 76.5625-71.9238L26.6113-71.9238C15.7715-71.9238 9.76562-65.8203 9.76562-55.0781L9.76562-25C9.76562-14.2578 15.7715-8.1543 26.6113-8.1543L28.7598-8.1543L28.7598 2.00195C28.7598 4.63867 30.127 6.29883 32.4707 6.29883ZM33.8379 0.146484L33.8379-11.0352C33.8379-12.8418 33.1543-13.5742 31.2988-13.5742L26.6602-13.5742C18.9941-13.5742 15.1855-17.627 15.1855-25.0488L15.1855-55.0293C15.1855-62.4512 18.9941-66.5039 26.6602-66.5039L76.5137-66.5039C84.1309-66.5039 87.9883-62.4512 87.9883-55.0293L87.9883-25.0488C87.9883-17.627 84.1309-13.5742 76.5137-13.5742L50.5371-13.5742C48.6328-13.5742 47.6074-13.2812 46.2891-11.9141ZM34.1797-43.7988C34.1797-39.7461 36.7188-36.5723 40.8203-36.5723C42.334-36.5723 43.8477-36.9141 44.8242-38.0859L45.1172-38.0859C43.7988-35.0098 40.8691-33.0566 38.623-32.4707C37.3535-32.1289 36.9629-31.543 36.9629-30.7617C36.9629-29.834 37.6465-29.1016 38.6719-29.1016C42.1875-29.1016 49.5605-33.3984 49.5605-42.4805C49.5605-47.4121 46.2891-51.0742 41.6992-51.0742C37.4023-51.0742 34.1797-48.0469 34.1797-43.7988ZM53.6621-43.7988C53.6621-39.7461 56.25-36.5723 60.3027-36.5723C61.8652-36.5723 63.3789-36.9141 64.3066-38.0859L64.5996-38.0859C63.2812-35.0098 60.4004-33.0566 58.1055-32.4707C56.8359-32.1289 56.4453-31.543 56.4453-30.7617C56.4453-29.834 57.1777-29.1016 58.1543-29.1016C61.6699-29.1016 69.043-33.3984 69.043-42.4805C69.043-47.4121 65.7715-51.0742 61.2305-51.0742C56.9336-51.0742 53.6621-48.0469 53.6621-43.7988Z"/>
  </g>
  <g id="Thin-S" transform="matrix(1 0 0 1 805.763 696)">
   <path d="M30.127 4.88281C31.2012 4.88281 31.9824 4.29688 33.0566 3.32031L46.7773-8.49609L76.5625-8.49609C85.9375-8.49609 91.5527-14.2578 91.5527-23.4863L91.5527-55.7129C91.5527-64.9414 85.9375-70.6543 76.5625-70.6543L24.7559-70.6543C15.3809-70.6543 9.76562-64.9902 9.76562-55.7129L9.76562-23.4863C9.76562-14.1602 15.3809-8.49609 24.7559-8.49609L27.832-8.49609L27.832 2.19727C27.832 3.80859 28.7109 4.88281 30.127 4.88281ZM30.9082 1.17188L30.9082-10.2051C30.9082-11.377 30.4688-11.8164 29.3457-11.8164L24.8047-11.8164C17.4316-11.8164 13.0859-16.2598 13.0859-23.5352L13.0859-55.6152C13.0859-62.9395 17.4316-67.3828 24.8047-67.3828L76.5137-67.3828C83.7402-67.3828 88.2324-62.9395 88.2324-55.6152L88.2324-23.5352C88.2324-16.2598 83.7402-11.8164 76.5137-11.8164L46.9727-11.8164C45.6543-11.8164 44.9707-11.5723 43.8965-10.5469ZM34.4238-42.9199C34.4238-39.209 36.8652-36.4258 40.5762-36.4258C42.1387-36.4258 43.6035-36.8652 44.5312-38.0859L44.8242-38.0859C43.6035-34.8145 40.3809-32.8125 38.5742-32.3242C37.5-32.0312 37.207-31.5918 37.207-30.9082C37.207-30.1758 37.7441-29.5898 38.5742-29.5898C41.4551-29.5898 48.4863-33.3008 48.4863-41.6992C48.4863-46.3867 45.2637-49.6094 41.3086-49.6094C37.4023-49.6094 34.4238-46.7285 34.4238-42.9199ZM52.7832-42.9199C52.7832-39.209 55.2734-36.4258 58.9844-36.4258C60.498-36.4258 61.9629-36.8652 62.8906-38.0859L63.1836-38.0859C62.0117-34.8145 58.7891-32.8125 56.9336-32.3242C55.9082-32.0312 55.5664-31.5918 55.5664-30.9082C55.5664-30.1758 56.1523-29.5898 56.9824-29.5898C59.8145-29.5898 66.8457-33.3008 66.8457-41.6992C66.8457-46.3867 63.623-49.6094 59.668-49.6094C55.7617-49.6094 52.7832-46.7285 52.7832-42.9199Z"/>
  </g>
  <g id="Ultralight-S" transform="matrix(1 0 0 1 509.54 696)">
   <path d="M28.9551 4.10156C29.6387 4.10156 30.2246 3.71094 30.8594 3.17383L44.7266-8.69141L76.5625-8.69141C85.1562-8.69141 90.5762-14.209 90.5762-22.7051L90.5762-56.0059C90.5762-64.502 85.1562-70.0195 76.5625-70.0195L23.7793-70.0195C15.1855-70.0195 9.76562-64.5996 9.76562-56.0059L9.76562-22.7051C9.76562-14.1113 15.1855-8.69141 23.7793-8.69141L27.2949-8.69141L27.2949 2.29492C27.2949 3.41797 27.9785 4.10156 28.9551 4.10156ZM29.3945 1.70898L29.3945-9.81445C29.3945-10.5957 29.0527-10.8887 28.3203-10.8887L23.8281-10.8887C16.6016-10.8887 11.9629-15.5273 11.9629-22.8027L11.9629-55.957C11.9629-63.1836 16.6016-67.8223 23.8281-67.8223L76.4648-67.8223C83.5449-67.8223 88.3301-63.1836 88.3301-55.957L88.3301-22.8027C88.3301-15.5273 83.5449-10.8887 76.4648-10.8887L45.166-10.8887C44.0918-10.8887 43.5547-10.6934 42.6758-9.86328ZM34.5215-42.4316C34.5215-38.916 36.9629-36.2793 40.4785-36.2793C42.041-36.2793 43.457-36.8164 44.3848-38.0371L44.6777-38.0371C43.5059-34.7168 40.1367-32.7148 38.5254-32.2266C37.6465-31.9824 37.3047-31.5918 37.3047-31.0547C37.3047-30.3223 37.8418-29.834 38.5254-29.834C41.0645-29.834 47.9492-33.252 47.9492-41.2598C47.9492-45.8496 44.7266-48.8281 41.0645-48.8281C37.3535-48.8281 34.5215-45.9961 34.5215-42.4316ZM52.3438-42.4316C52.3438-38.916 54.7363-36.2793 58.252-36.2793C59.8145-36.2793 61.2305-36.8164 62.1582-38.0371L62.4512-38.0371C61.3281-34.7168 57.959-32.7148 56.3477-32.2266C55.4199-31.9824 55.127-31.5918 55.127-31.0547C55.127-30.3223 55.6152-29.834 56.3477-29.834C58.8379-29.834 65.7227-33.252 65.7227-41.2598C65.7227-45.8496 62.5-48.8281 58.8867-48.8281C55.1758-48.8281 52.3438-45.9961 52.3438-42.4316Z"/>
  </g>
 </g>
</svg>
