<?xml version="1.0" encoding="UTF-8"?>
<!--Generator: Apple Native CoreSVG 149-->
<!DOCTYPE svg
PUBLIC "-//W3C//DTD SVG 1.1//EN"
       "http://www.w3.org/Graphics/SVG/1.1/DTD/svg11.dtd">
<svg version="1.1" xmlns="http://www.w3.org/2000/svg" xmlns:xlink="http://www.w3.org/1999/xlink" width="3300" height="2200">
 <!--glyph: "uni100C95.medium", point size: 100.000000, font version: "Version 16.0d12e3", template writer version: "8"-->
 <g id="Notes">
  <rect height="2200" id="artboard" style="fill:white;opacity:1" width="3300" x="0" y="0"/>
  <line id="" style="fill:none;stroke:black;opacity:1;stroke-width:0.5;" x1="263" x2="3036" y1="292" y2="292"/>
  <text style="stroke:none;fill:black;font-family:-apple-system,&quot;SF Pro Display&quot;,&quot;SF Pro Text&quot;,Helvetica,sans-serif;font-weight:bold;" transform="matrix(1 0 0 1 263 322)">Weight/Scale Variations</text>
  <text style="stroke:none;fill:black;font-family:-apple-system,&quot;SF Pro Display&quot;,&quot;SF Pro Text&quot;,Helvetica,sans-serif;text-anchor:middle;" transform="matrix(1 0 0 1 559.711 322)">Ultralight</text>
  <text style="stroke:none;fill:black;font-family:-apple-system,&quot;SF Pro Display&quot;,&quot;SF Pro Text&quot;,Helvetica,sans-serif;text-anchor:middle;" transform="matrix(1 0 0 1 856.422 322)">Thin</text>
  <text style="stroke:none;fill:black;font-family:-apple-system,&quot;SF Pro Display&quot;,&quot;SF Pro Text&quot;,Helvetica,sans-serif;text-anchor:middle;" transform="matrix(1 0 0 1 1153.13 322)">Light</text>
  <text style="stroke:none;fill:black;font-family:-apple-system,&quot;SF Pro Display&quot;,&quot;SF Pro Text&quot;,Helvetica,sans-serif;text-anchor:middle;" transform="matrix(1 0 0 1 1449.84 322)">Regular</text>
  <text style="stroke:none;fill:black;font-family:-apple-system,&quot;SF Pro Display&quot;,&quot;SF Pro Text&quot;,Helvetica,sans-serif;text-anchor:middle;" transform="matrix(1 0 0 1 1746.56 322)">Medium</text>
  <text style="stroke:none;fill:black;font-family:-apple-system,&quot;SF Pro Display&quot;,&quot;SF Pro Text&quot;,Helvetica,sans-serif;text-anchor:middle;" transform="matrix(1 0 0 1 2043.27 322)">Semibold</text>
  <text style="stroke:none;fill:black;font-family:-apple-system,&quot;SF Pro Display&quot;,&quot;SF Pro Text&quot;,Helvetica,sans-serif;text-anchor:middle;" transform="matrix(1 0 0 1 2339.98 322)">Bold</text>
  <text style="stroke:none;fill:black;font-family:-apple-system,&quot;SF Pro Display&quot;,&quot;SF Pro Text&quot;,Helvetica,sans-serif;text-anchor:middle;" transform="matrix(1 0 0 1 2636.69 322)">Heavy</text>
  <text style="stroke:none;fill:black;font-family:-apple-system,&quot;SF Pro Display&quot;,&quot;SF Pro Text&quot;,Helvetica,sans-serif;text-anchor:middle;" transform="matrix(1 0 0 1 2933.4 322)">Black</text>
  <line id="" style="fill:none;stroke:black;opacity:1;stroke-width:0.5;" x1="263" x2="3036" y1="1903" y2="1903"/>
  <g id="" transform="matrix(1 0 0 1 263 1933)">
   <path d="M9.24805 0.830078C13.5547 0.830078 17.1387-2.74414 17.1387-7.05078C17.1387-11.3574 13.5449-14.9316 9.23828-14.9316C4.94141-14.9316 1.36719-11.3574 1.36719-7.05078C1.36719-2.74414 4.95117 0.830078 9.24805 0.830078ZM9.24805-0.654297C5.70312-0.654297 2.87109-3.49609 2.87109-7.05078C2.87109-10.6055 5.69336-13.4473 9.23828-13.4473C12.793-13.4473 15.6348-10.6055 15.6445-7.05078C15.6543-3.49609 12.8027-0.654297 9.24805-0.654297ZM9.22852-3.62305C9.69727-3.62305 9.9707-3.93555 9.9707-4.45312L9.9707-6.31836L12.002-6.31836C12.5-6.31836 12.832-6.57227 12.832-7.04102C12.832-7.51953 12.5195-7.7832 12.002-7.7832L9.9707-7.7832L9.9707-9.81445C9.9707-10.332 9.69727-10.6543 9.22852-10.6543C8.75977-10.6543 8.50586-10.3125 8.50586-9.81445L8.50586-7.7832L6.49414-7.7832C5.97656-7.7832 5.64453-7.51953 5.64453-7.04102C5.64453-6.57227 5.99609-6.31836 6.49414-6.31836L8.50586-6.31836L8.50586-4.45312C8.50586-3.95508 8.75977-3.62305 9.22852-3.62305Z"/>
  </g>
  <g id="" transform="matrix(1 0 0 1 281.506 1933)">
   <path d="M11.709 2.91016C17.1582 2.91016 21.6699-1.61133 21.6699-7.05078C21.6699-12.5 17.1484-17.0117 11.6992-17.0117C6.25977-17.0117 1.74805-12.5 1.74805-7.05078C1.74805-1.61133 6.26953 2.91016 11.709 2.91016ZM11.709 1.25C7.09961 1.25 3.41797-2.44141 3.41797-7.05078C3.41797-11.6602 7.08984-15.3516 11.6992-15.3516C16.3086-15.3516 20-11.6602 20.0098-7.05078C20.0195-2.44141 16.3184 1.25 11.709 1.25ZM11.6797-2.66602C12.207-2.66602 12.5098-3.01758 12.5098-3.59375L12.5098-6.23047L15.3223-6.23047C15.8691-6.23047 16.25-6.51367 16.25-7.03125C16.25-7.55859 15.8887-7.86133 15.3223-7.86133L12.5098-7.86133L12.5098-10.6836C12.5098-11.25 12.207-11.6113 11.6797-11.6113C11.1621-11.6113 10.8789-11.2305 10.8789-10.6836L10.8789-7.86133L8.07617-7.86133C7.50977-7.86133 7.13867-7.55859 7.13867-7.03125C7.13867-6.51367 7.5293-6.23047 8.07617-6.23047L10.8789-6.23047L10.8789-3.59375C10.8789-3.03711 11.1621-2.66602 11.6797-2.66602Z"/>
  </g>
  <g id="" transform="matrix(1 0 0 1 304.924 1933)">
   <path d="M14.9707 5.66406C21.9336 5.66406 27.6953-0.0976562 27.6953-7.05078C27.6953-14.0137 21.9238-19.7754 14.9609-19.7754C8.00781-19.7754 2.25586-14.0137 2.25586-7.05078C2.25586-0.0976562 8.01758 5.66406 14.9707 5.66406ZM14.9707 3.84766C8.93555 3.84766 4.08203-1.01562 4.08203-7.05078C4.08203-13.0957 8.92578-17.9492 14.9609-17.9492C21.0059-17.9492 25.8594-13.0957 25.8691-7.05078C25.8789-1.01562 21.0156 3.84766 14.9707 3.84766ZM14.9414-1.38672C15.5176-1.38672 15.8594-1.77734 15.8594-2.38281L15.8594-6.13281L19.7754-6.13281C20.3711-6.13281 20.7812-6.46484 20.7812-7.02148C20.7812-7.59766 20.3906-7.93945 19.7754-7.93945L15.8594-7.93945L15.8594-11.8652C15.8594-12.4805 15.5176-12.8711 14.9414-12.8711C14.375-12.8711 14.0527-12.4609 14.0527-11.8652L14.0527-7.93945L10.1465-7.93945C9.53125-7.93945 9.13086-7.59766 9.13086-7.02148C9.13086-6.46484 9.55078-6.13281 10.1465-6.13281L14.0527-6.13281L14.0527-2.38281C14.0527-1.79688 14.375-1.38672 14.9414-1.38672Z"/>
  </g>
  <text style="stroke:none;fill:black;font-family:-apple-system,&quot;SF Pro Display&quot;,&quot;SF Pro Text&quot;,Helvetica,sans-serif;font-weight:bold;" transform="matrix(1 0 0 1 263 1953)">Design Variations</text>
  <text style="stroke:none;fill:black;font-family:-apple-system,&quot;SF Pro Display&quot;,&quot;SF Pro Text&quot;,Helvetica,sans-serif;" transform="matrix(1 0 0 1 263 1971)">Symbols are supported in up to nine weights and three scales.</text>
  <text style="stroke:none;fill:black;font-family:-apple-system,&quot;SF Pro Display&quot;,&quot;SF Pro Text&quot;,Helvetica,sans-serif;" transform="matrix(1 0 0 1 263 1989)">For optimal layout with text and other symbols, vertically align</text>
  <text style="stroke:none;fill:black;font-family:-apple-system,&quot;SF Pro Display&quot;,&quot;SF Pro Text&quot;,Helvetica,sans-serif;" transform="matrix(1 0 0 1 263 2007)">symbols with the adjacent text.</text>
  <line id="" style="fill:none;stroke:#00AEEF;stroke-width:0.5;opacity:1.0;" x1="776" x2="776" y1="1919" y2="1933"/>
  <g id="" transform="matrix(1 0 0 1 776 1933)">
   <path d="M3.31055 0.126953C3.82812 0.126953 4.08203-0.0683594 4.26758-0.605469L5.52734-4.0625L11.2891-4.0625L12.5488-0.605469C12.7344-0.0683594 12.9883 0.126953 13.4961 0.126953C14.0137 0.126953 14.3457-0.185547 14.3457-0.673828C14.3457-0.839844 14.3164-0.986328 14.2383-1.20117L9.6582-13.3887C9.43359-13.9941 9.0332-14.2871 8.4082-14.2871C7.80273-14.2871 7.39258-13.9941 7.17773-13.3984L2.59766-1.19141C2.51953-0.976562 2.49023-0.830078 2.49023-0.664062C2.49023-0.175781 2.80273 0.126953 3.31055 0.126953ZM6.00586-5.53711L8.37891-12.1094L8.42773-12.1094L10.8008-5.53711Z"/>
  </g>
  <line id="" style="fill:none;stroke:#00AEEF;stroke-width:0.5;opacity:1.0;" x1="792.836" x2="792.836" y1="1919" y2="1933"/>
  <text style="stroke:none;fill:black;font-family:-apple-system,&quot;SF Pro Display&quot;,&quot;SF Pro Text&quot;,Helvetica,sans-serif;font-weight:bold;" transform="matrix(1 0 0 1 776 1953)">Margins</text>
  <text style="stroke:none;fill:black;font-family:-apple-system,&quot;SF Pro Display&quot;,&quot;SF Pro Text&quot;,Helvetica,sans-serif;" transform="matrix(1 0 0 1 776 1971)">Leading and trailing margins on the left and right side of each symbol</text>
  <text style="stroke:none;fill:black;font-family:-apple-system,&quot;SF Pro Display&quot;,&quot;SF Pro Text&quot;,Helvetica,sans-serif;" transform="matrix(1 0 0 1 776 1989)">can be adjusted by modifying the x-location of the margin guidelines.</text>
  <text style="stroke:none;fill:black;font-family:-apple-system,&quot;SF Pro Display&quot;,&quot;SF Pro Text&quot;,Helvetica,sans-serif;" transform="matrix(1 0 0 1 776 2007)">Modifications are automatically applied proportionally to all</text>
  <text style="stroke:none;fill:black;font-family:-apple-system,&quot;SF Pro Display&quot;,&quot;SF Pro Text&quot;,Helvetica,sans-serif;" transform="matrix(1 0 0 1 776 2025)">scales and weights.</text>
  <g id="" transform="matrix(1 0 0 1 1289 1933)">
   <path d="M2.8418 1.86523L4.54102 3.57422C5.40039 4.44336 6.38672 4.38477 7.31445 3.35938L17.4902-7.85156C17.7539-7.76367 18.0273-7.7832 18.3398-7.8418L19.4043-8.03711L20.0684-7.36328L20.0293-6.80664C19.9902-6.30859 20.1172-5.92773 20.6055-5.44922L21.3672-4.70703C21.8457-4.22852 22.4609-4.19922 22.9297-4.66797L25.8398-7.58789C26.3086-8.05664 26.2891-8.65234 25.8105-9.13086L25.0391-9.89258C24.5605-10.3711 24.1895-10.5273 23.7109-10.4883L23.1348-10.4395L22.4902-11.0742L22.7344-12.1973C22.8613-12.7637 22.7051-13.2031 22.1191-13.7891L19.9219-15.9766C16.582-19.2969 12.1484-19.2188 9.25781-16.3281C8.83789-15.918 8.80859-15.3418 9.04297-14.9512C9.27734-14.5898 9.73633-14.3555 10.3809-14.5215C11.8457-14.8633 13.3691-14.9219 14.7949-13.9844L14.209-12.5293C14.0137-12.0508 13.9844-11.6504 14.1113-11.2891L3.04688-0.898438C2.06055 0.0195312 1.98242 0.996094 2.8418 1.86523ZM10.752-15.957C13.1836-17.7344 16.4746-17.4316 18.7012-15.2051L21.1328-12.793C21.3672-12.5586 21.4062-12.373 21.3379-12.0312L21.0156-10.5469L22.5195-9.0625L23.5059-9.12109C23.7598-9.13086 23.8379-9.11133 24.0332-8.91602L24.6094-8.33984L22.168-5.89844L21.5918-6.47461C21.3965-6.66992 21.3672-6.74805 21.377-7.01172L21.4453-7.98828L19.9512-9.47266L18.4277-9.21875C18.1055-9.15039 17.959-9.17969 17.7148-9.41406L15.7129-11.416C15.459-11.6504 15.4297-11.8164 15.5859-12.1875L16.4648-14.2773C14.9023-15.7324 12.8711-16.3574 10.8398-15.7617C10.6836-15.7227 10.625-15.8496 10.752-15.957ZM5.27344 2.30469L4.10156 1.14258C3.63281 0.683594 3.74023 0.341797 4.14062-0.0195312L14.9512-10.1953L16.416-8.71094L6.42578 2.27539C6.07422 2.67578 5.74219 2.77344 5.27344 2.30469Z"/>
  </g>
  <text style="stroke:none;fill:black;font-family:-apple-system,&quot;SF Pro Display&quot;,&quot;SF Pro Text&quot;,Helvetica,sans-serif;font-weight:bold;" transform="matrix(1 0 0 1 1289 1953)">Exporting</text>
  <text style="stroke:none;fill:black;font-family:-apple-system,&quot;SF Pro Display&quot;,&quot;SF Pro Text&quot;,Helvetica,sans-serif;" transform="matrix(1 0 0 1 1289 1971)">Symbols should be outlined when exporting to ensure the</text>
  <text style="stroke:none;fill:black;font-family:-apple-system,&quot;SF Pro Display&quot;,&quot;SF Pro Text&quot;,Helvetica,sans-serif;" transform="matrix(1 0 0 1 1289 1989)">design is preserved when submitting to Xcode.</text>
  <text id="template-version" style="stroke:none;fill:black;font-family:-apple-system,&quot;SF Pro Display&quot;,&quot;SF Pro Text&quot;,Helvetica,sans-serif;text-anchor:end;" transform="matrix(1 0 0 1 3036 1933)">Template v.2.0</text>
  <text style="stroke:none;fill:black;font-family:-apple-system,&quot;SF Pro Display&quot;,&quot;SF Pro Text&quot;,Helvetica,sans-serif;text-anchor:end;" transform="matrix(1 0 0 1 3036 1951)">Requires Xcode 12 or greater</text>
  <text style="stroke:none;fill:black;font-family:-apple-system,&quot;SF Pro Display&quot;,&quot;SF Pro Text&quot;,Helvetica,sans-serif;text-anchor:end;" transform="matrix(1 0 0 1 3036 1969)">Generated from arrow.up.heart</text>
  <text style="stroke:none;fill:black;font-family:-apple-system,&quot;SF Pro Display&quot;,&quot;SF Pro Text&quot;,Helvetica,sans-serif;text-anchor:end;" transform="matrix(1 0 0 1 3036 1987)">Typeset at 100 points</text>
  <text style="stroke:none;fill:black;font-family:-apple-system,&quot;SF Pro Display&quot;,&quot;SF Pro Text&quot;,Helvetica,sans-serif;" transform="matrix(1 0 0 1 263 726)">Small</text>
  <text style="stroke:none;fill:black;font-family:-apple-system,&quot;SF Pro Display&quot;,&quot;SF Pro Text&quot;,Helvetica,sans-serif;" transform="matrix(1 0 0 1 263 1156)">Medium</text>
  <text style="stroke:none;fill:black;font-family:-apple-system,&quot;SF Pro Display&quot;,&quot;SF Pro Text&quot;,Helvetica,sans-serif;" transform="matrix(1 0 0 1 263 1586)">Large</text>
 </g>
 <g id="Guides">
  <g id="H-reference" style="fill:#27AAE1;stroke:none;" transform="matrix(1 0 0 1 339 696)">
   <path d="M0.976562 0L3.66211 0L12.9883-24.4629L45.752-24.4629L55.127 0L57.7637 0L30.6152-70.459L28.125-70.459ZM29.3457-67.1387L29.4434-67.1387L44.873-26.709L13.8672-26.709Z"/>
  </g>
  <line id="Baseline-S" style="fill:none;stroke:#27AAE1;opacity:1;stroke-width:0.5;" x1="263" x2="3036" y1="696" y2="696"/>
  <line id="Capline-S" style="fill:none;stroke:#27AAE1;opacity:1;stroke-width:0.5;" x1="263" x2="3036" y1="625.541" y2="625.541"/>
  <g id="H-reference" style="fill:#27AAE1;stroke:none;" transform="matrix(1 0 0 1 339 1126)">
   <path d="M0.976562 0L3.66211 0L12.9883-24.4629L45.752-24.4629L55.127 0L57.7637 0L30.6152-70.459L28.125-70.459ZM29.3457-67.1387L29.4434-67.1387L44.873-26.709L13.8672-26.709Z"/>
  </g>
  <line id="Baseline-M" style="fill:none;stroke:#27AAE1;opacity:1;stroke-width:0.5;" x1="263" x2="3036" y1="1126" y2="1126"/>
  <line id="Capline-M" style="fill:none;stroke:#27AAE1;opacity:1;stroke-width:0.5;" x1="263" x2="3036" y1="1055.54" y2="1055.54"/>
  <g id="H-reference" style="fill:#27AAE1;stroke:none;" transform="matrix(1 0 0 1 339 1556)">
   <path d="M0.976562 0L3.66211 0L12.9883-24.4629L45.752-24.4629L55.127 0L57.7637 0L30.6152-70.459L28.125-70.459ZM29.3457-67.1387L29.4434-67.1387L44.873-26.709L13.8672-26.709Z"/>
  </g>
  <line id="Baseline-L" style="fill:none;stroke:#27AAE1;opacity:1;stroke-width:0.5;" x1="263" x2="3036" y1="1556" y2="1556"/>
  <line id="Capline-L" style="fill:none;stroke:#27AAE1;opacity:1;stroke-width:0.5;" x1="263" x2="3036" y1="1485.54" y2="1485.54"/>
  <line id="left-margin" style="fill:none;stroke:#00AEEF;stroke-width:0.5;opacity:1.0;" x1="1389.3" x2="1389.3" y1="1030.79" y2="1150.12"/>
  <line id="right-margin" style="fill:none;stroke:#00AEEF;stroke-width:0.5;opacity:1.0;" x1="1510.39" x2="1510.39" y1="1030.79" y2="1150.12"/>
 </g>
 <g id="Symbols">
  <g id="Black-L" transform="matrix(1 0 0 1 2851.54 1556)">
   <path d="M14.3555-52.5879C14.3555-25.293 37.1582 2.00195 71.5332 24.707C75.3418 27.2461 79.248 29.5898 81.8359 29.5898C84.4727 29.5898 88.3789 27.2461 92.1875 24.707C126.562 2.00195 149.365-25.293 149.365-52.5879C149.365-78.9062 130.957-96.1426 109.57-96.1426C96.4844-96.1426 87.3535-90.7715 81.8359-83.252C76.416-90.7715 67.2363-96.1426 54.1504-96.1426C32.7637-96.1426 14.3555-78.9062 14.3555-52.5879ZM36.1328-52.832C36.1328-66.1133 45.3613-75.3418 57.5684-75.3418C67.3828-75.3418 72.4121-70.0195 76.0742-65.0879C77.9785-62.4512 79.6387-61.1816 81.8359-61.1816C84.082-61.1816 85.5957-62.4512 87.5977-65.0879C91.5527-70.0195 96.3379-75.3418 106.152-75.3418C118.359-75.3418 127.588-66.1133 127.588-52.832C127.588-34.4238 109.521-11.9141 82.7148 5.95703C82.373 6.20117 82.0801 6.34766 81.8359 6.34766C81.6406 6.34766 81.3477 6.20117 81.0059 5.95703C54.1992-11.9141 36.1328-34.4238 36.1328-52.832ZM89.8438-15.1367L89.8438-27.2949L89.0625-35.3516L91.6992-32.373L93.6523-30.2246C94.7266-28.8086 96.8262-27.6855 98.6816-27.6855C102.588-27.6855 105.518-30.4688 105.518-34.2285C105.518-36.3281 104.883-37.8418 103.125-39.4043L88.3789-52.5879C86.4746-54.2969 84.4727-55.4199 81.8359-55.4199C79.248-55.4199 77.2461-54.2969 75.3418-52.5879L60.5469-39.4043C58.7891-37.8418 58.1543-36.3281 58.1543-34.2285C58.1543-30.4688 61.084-27.6855 65.0391-27.6855C66.9434-27.6855 68.8477-28.8086 70.0195-30.2246L72.0703-32.373L74.6582-35.3516L73.877-27.2949L73.877-15.1367C73.877-10.6934 77.4414-7.8125 81.8359-7.8125C86.2305-7.8125 89.8438-10.6934 89.8438-15.1367Z"/>
  </g>
  <g id="Heavy-L" transform="matrix(1 0 0 1 2555.98 1556)">
   <path d="M14.5508-52.7344C14.5508-25.6348 37.3535 1.36719 71.8262 24.0234C75 26.1719 78.418 28.125 80.7129 28.125C83.0078 28.125 86.377 26.1719 89.5996 24.0234C124.072 1.36719 146.875-25.6348 146.875-52.7344C146.875-77.9297 129.248-94.8242 108.203-94.8242C95.459-94.8242 86.1816-89.3555 80.7129-81.4941C75.2441-89.3066 65.918-94.8242 53.2227-94.8242C32.1777-94.8242 14.5508-77.9297 14.5508-52.7344ZM33.2031-52.8809C33.2031-67.0898 42.9199-76.8555 55.8105-76.8555C66.0645-76.8555 71.582-71.0449 75.3906-65.6738C77.1973-63.1348 78.7109-62.0117 80.7129-62.0117C82.7148-62.0117 84.082-63.1836 85.9863-65.6738C90.0391-71.0449 95.3613-76.8555 105.615-76.8555C118.506-76.8555 128.223-67.0898 128.223-52.8809C128.223-33.252 108.545-10.1562 81.6406 7.76367C81.25 8.05664 80.957 8.20312 80.7129 8.20312C80.4688 8.20312 80.1758 8.05664 79.7852 7.76367C52.832-10.1562 33.2031-33.252 33.2031-52.8809ZM87.793-13.4766L87.793-28.7109L87.1094-37.4512L90.8203-33.4473L93.5547-30.5176C94.5312-29.248 96.3867-28.3203 98.0469-28.3203C101.562-28.3203 104.199-30.8594 104.199-34.2285C104.199-36.1328 103.564-37.5 102.002-38.916L86.377-53.0273C84.668-54.5898 82.959-55.5176 80.7129-55.5176C78.4668-55.5176 76.709-54.5898 75-53.0273L59.375-38.916C57.8125-37.5 57.2266-36.1328 57.2266-34.2285C57.2266-30.8594 59.8145-28.3203 63.3789-28.3203C65.0391-28.3203 66.7969-29.248 67.8711-30.5176L70.6543-33.4473L74.3164-37.4512L73.6328-28.7109L73.6328-13.4766C73.6328-9.52148 76.8066-6.88477 80.7129-6.88477C84.5703-6.88477 87.793-9.52148 87.793-13.4766Z"/>
  </g>
  <g id="Bold-L" transform="matrix(1 0 0 1 2260.56 1556)">
   <path d="M14.7461-52.8809C14.7461-25.9766 37.5488 0.683594 72.168 23.291C74.707 24.9512 77.4902 26.5137 79.3945 26.5137C81.2988 26.5137 84.1309 24.9512 86.6211 23.291C121.289 0.683594 144.092-25.9766 144.092-52.8809C144.092-76.9043 127.344-93.3105 106.641-93.3105C94.3359-93.3105 84.9121-87.7441 79.3945-79.541C73.9258-87.6953 64.4531-93.3105 52.1973-93.3105C31.4453-93.3105 14.7461-76.9043 14.7461-52.8809ZM29.9316-52.9785C29.9316-68.1641 40.1855-78.5645 53.8574-78.5645C64.6484-78.5645 70.6543-72.2656 74.6094-66.3574C76.3184-63.916 77.6367-62.9395 79.3945-62.9395C81.2012-62.9395 82.373-63.916 84.1797-66.3574C88.3789-72.2168 94.2383-78.5645 104.98-78.5645C118.652-78.5645 128.857-68.1641 128.857-52.9785C128.857-31.9824 107.471-8.20312 80.4199 9.81445C79.9805 10.1562 79.6387 10.3516 79.3945 10.3516C79.1504 10.3516 78.8574 10.1562 78.418 9.81445C51.3184-8.20312 29.9316-31.9824 29.9316-52.9785ZM85.498-11.5723L85.498-30.3223L84.9121-39.8438L89.7949-34.668L93.4082-30.9082C94.2871-29.834 95.8984-29.0527 97.3633-29.0527C100.391-29.0527 102.686-31.25 102.686-34.1797C102.686-35.9375 102.1-37.1582 100.732-38.3301L84.1797-53.5156C82.7148-54.8828 81.25-55.6641 79.4434-55.6641C77.5879-55.6641 76.1719-54.8828 74.6582-53.5156L58.1055-38.3301C56.7383-37.1582 56.1523-35.9375 56.1523-34.1797C56.1523-31.25 58.3984-29.0527 61.4746-29.0527C62.9395-29.0527 64.502-29.834 65.4297-30.9082L69.043-34.668L73.9258-39.8438L73.3398-30.3223L73.3398-11.5723C73.3398-8.25195 76.123-5.85938 79.4434-5.85938C82.7148-5.85938 85.498-8.25195 85.498-11.5723Z"/>
  </g>
  <g id="Semibold-L" transform="matrix(1 0 0 1 1964.75 1556)">
   <path d="M14.8926-52.9785C14.8926-26.2207 37.6465 0.195312 72.4121 22.8027C74.4629 24.1211 76.8555 25.3906 78.5156 25.3906C80.1758 25.3906 82.5684 24.1211 84.6191 22.8027C119.385 0.195312 142.139-26.2207 142.139-52.9785C142.139-76.1719 126.074-92.2363 105.566-92.2363C93.5547-92.2363 84.0332-86.6211 78.5156-78.1738C73.0469-86.5723 63.4766-92.2363 51.4648-92.2363C30.957-92.2363 14.8926-76.1719 14.8926-52.9785ZM27.6855-53.0273C27.6855-68.8965 38.2812-79.7363 52.4902-79.7363C63.623-79.7363 70.0195-73.0469 74.1211-66.7969C75.7324-64.4043 76.9043-63.5742 78.5156-63.5742C80.127-63.5742 81.2012-64.4531 82.9102-66.7969C87.207-72.998 93.457-79.7363 104.541-79.7363C118.75-79.7363 129.346-68.8965 129.346-53.0273C129.346-31.1035 106.738-6.83594 79.5898 11.2305C79.1016 11.5723 78.7598 11.8164 78.5156 11.8164C78.2715 11.8164 77.9297 11.5723 77.4414 11.2305C50.293-6.83594 27.6855-31.1035 27.6855-53.0273ZM83.8867-10.2539L83.8867-31.3965L83.3984-41.4551L89.1113-35.498L93.3105-31.1523C94.1406-30.1758 95.5566-29.541 96.875-29.541C99.6094-29.541 101.66-31.4941 101.66-34.1797C101.66-35.791 101.074-36.8652 99.9023-37.9395L82.666-53.8574C81.2988-55.127 80.0781-55.7129 78.5156-55.7129C77.002-55.7129 75.7812-55.127 74.4141-53.8574L57.1777-37.9395C56.0059-36.8652 55.4199-35.791 55.4199-34.1797C55.4199-31.4941 57.4219-29.541 60.2051-29.541C61.4746-29.541 62.8906-30.1758 63.7695-31.1523L67.9688-35.498L73.6816-41.4551L73.1934-31.3965L73.1934-10.2539C73.1934-7.32422 75.6348-5.17578 78.5156-5.17578C81.4453-5.17578 83.8867-7.32422 83.8867-10.2539Z"/>
  </g>
  <g id="Medium-L" transform="matrix(1 0 0 1 1668.72 1556)">
   <path d="M14.9902-53.0273C14.9902-26.3672 37.793-0.146484 72.6074 22.4121C74.2676 23.4863 76.3672 24.5117 77.832 24.5117C79.2969 24.5117 81.3965 23.4863 83.1055 22.4121C117.92-0.146484 140.674-26.3672 140.674-53.0273C140.674-75.6348 125.098-91.4551 104.785-91.4551C92.9688-91.4551 83.3496-85.791 77.832-77.1484C72.3633-85.7422 62.6953-91.4551 50.9277-91.4551C30.6152-91.4551 14.9902-75.6348 14.9902-53.0273ZM26.0254-53.0762C26.0254-69.4824 36.8652-80.6152 51.4648-80.6152C62.8418-80.6152 69.5801-73.6816 73.6816-67.1387C75.2441-64.8438 76.3184-64.0625 77.832-64.0625C79.3457-64.0625 80.3223-64.8926 81.9824-67.1387C86.3281-73.584 92.8711-80.6152 104.248-80.6152C118.848-80.6152 129.688-69.4824 129.688-53.0762C129.688-30.4199 106.201-5.81055 78.9551 12.3047C78.4668 12.6465 78.0762 12.8906 77.832 12.8906C77.5879 12.8906 77.2461 12.6465 76.709 12.3047C49.5117-5.81055 26.0254-30.4199 26.0254-53.0762ZM82.7148-9.27734L82.7148-32.2266L82.2754-42.6758L88.5742-36.1816L93.2617-31.3965C94.043-30.4688 95.3125-29.9316 96.5332-29.9316C99.0234-29.9316 100.879-31.6895 100.879-34.1797C100.879-35.6445 100.293-36.6699 99.2188-37.6465L81.543-54.1504C80.2734-55.2734 79.1992-55.8105 77.8809-55.8105C76.5625-55.8105 75.4395-55.2734 74.2188-54.1504L56.4941-37.6465C55.4199-36.6699 54.834-35.6445 54.834-34.1797C54.834-31.6895 56.6895-29.9316 59.2285-29.9316C60.4004-29.9316 61.6699-30.4688 62.5-31.3965L67.1387-36.1816L73.4863-42.6758L73.0469-32.2266L73.0469-9.27734C73.0469-6.68945 75.2441-4.63867 77.8809-4.63867C80.4688-4.63867 82.7148-6.68945 82.7148-9.27734Z"/>
  </g>
  <g id="Regular-L" transform="matrix(1 0 0 1 1372.89 1556)">
   <path d="M15.1367-53.125C15.1367-26.6113 37.8906-0.634766 72.8516 21.875C74.0723 22.6562 75.7812 23.4375 76.9531 23.4375C78.1738 23.4375 79.8828 22.6562 81.1035 21.875C116.016-0.634766 138.77-26.6113 138.77-53.125C138.77-74.9023 123.779-90.4297 103.711-90.4297C92.2363-90.4297 82.4707-84.668 76.9531-75.8301C71.4844-84.6191 61.7188-90.4297 50.1953-90.4297C30.127-90.4297 15.1367-74.9023 15.1367-53.125ZM23.7793-53.125C23.7793-70.2148 34.9609-81.7871 50.0977-81.7871C61.8652-81.7871 68.9453-74.4629 73.1934-67.5781C74.6582-65.332 75.6348-64.6484 76.9531-64.6484C78.3203-64.6484 79.1504-65.3809 80.7617-67.5781C85.2051-74.3652 92.0898-81.7871 103.809-81.7871C118.945-81.7871 130.127-70.2148 130.127-53.125C130.127-29.541 105.42-4.44336 78.125 13.7207C77.5879 14.0625 77.1973 14.3555 76.9531 14.3555C76.709 14.3555 76.3184 14.0625 75.7812 13.7207C48.4863-4.44336 23.7793-29.541 23.7793-53.125ZM81.1035-8.00781L81.1035-33.3008L80.7617-44.2871L87.8906-37.0117L93.1641-31.6406C93.8965-30.8594 94.9707-30.4199 96.0449-30.4199C98.2422-30.4199 99.9023-31.9824 99.9023-34.1797C99.9023-35.498 99.2676-36.4258 98.3887-37.2559L80.0293-54.4922C78.9062-55.4688 78.0273-55.8594 77.002-55.8594C75.9277-55.8594 75.0488-55.4688 73.9746-54.4922L55.6152-37.2559C54.6875-36.4258 54.1016-35.498 54.1016-34.1797C54.1016-31.9824 55.7129-30.4199 57.959-30.4199C58.9844-30.4199 60.1074-30.8594 60.8398-31.6406L66.0645-37.0117L73.2422-44.2871L72.8516-33.3008L72.8516-8.00781C72.8516-5.76172 74.7559-3.95508 77.002-3.95508C79.1992-3.95508 81.1035-5.76172 81.1035-8.00781Z"/>
  </g>
  <g id="Light-L" transform="matrix(1 0 0 1 1077.74 1556)">
   <path d="M14.5996-53.125C14.5996-27.0996 37.7441-1.66016 71.875 20.6543C72.9004 21.2891 74.3652 21.9238 75.3906 21.9238C76.4648 21.9238 77.8809 21.2891 78.9062 20.6543C113.037-1.66016 136.23-27.0996 136.23-53.125C136.23-74.2676 121.631-89.4043 102.051-89.4043C90.7715-89.4043 80.6641-83.3984 75.3906-74.0723C70.166-83.3496 60.0098-89.4043 48.7793-89.4043C29.1992-89.4043 14.5996-74.2676 14.5996-53.125ZM21.1914-53.125C21.1914-70.7031 32.8613-82.7637 48.6816-82.7637C60.3516-82.7637 67.8223-75.5859 72.2656-67.9199C73.4375-66.0645 74.2676-65.4785 75.3906-65.4785C76.5625-65.4785 77.2949-66.1133 78.5156-67.9199C83.1055-75.5371 90.4785-82.7637 102.1-82.7637C117.92-82.7637 129.59-70.7031 129.59-53.125C129.59-29.3945 104.98-4.54102 76.416 14.502C75.9766 14.7949 75.6348 14.9902 75.3906 14.9902C75.1465 14.9902 74.8047 14.7949 74.4141 14.502C45.8008-4.54102 21.1914-29.3945 21.1914-53.125ZM78.6133-6.54297L78.6133-35.1562L78.3203-47.2656L87.8906-37.5L92.7734-32.4707C93.3594-31.8848 94.1895-31.543 95.0684-31.543C96.7285-31.543 98.0469-32.7637 98.0469-34.5215C98.0469-35.7422 97.4609-36.4258 96.6797-37.1582L77.7832-55.3223C76.9531-56.0547 76.2207-56.3965 75.4395-56.3965C74.6094-56.3965 73.877-56.0547 73.0957-55.3223L54.1992-37.1582C53.418-36.4258 52.7832-35.7422 52.7832-34.5215C52.7832-32.7637 54.0527-31.543 55.8105-31.543C56.6406-31.543 57.5195-31.8848 58.0566-32.4707L62.9395-37.5L72.5098-47.2656L72.2168-35.1562L72.2168-6.54297C72.2168-4.83398 73.6816-3.41797 75.4395-3.41797C77.1484-3.41797 78.6133-4.83398 78.6133-6.54297Z"/>
  </g>
  <g id="Thin-L" transform="matrix(1 0 0 1 783.082 1556)">
   <path d="M13.8672-53.125C13.8672-27.7832 37.5488-2.97852 70.6055 18.9941C71.4355 19.4824 72.4609 19.9219 73.3398 19.9219C74.1699 19.9219 75.2441 19.4824 76.0254 18.9941C109.131-2.97852 132.812-27.7832 132.812-53.125C132.812-73.4375 118.75-88.0371 99.8535-88.0371C88.916-88.0371 78.2715-81.7383 73.3398-71.8262C68.4082-81.6895 57.7637-88.0371 46.8262-88.0371C27.9297-88.0371 13.8672-73.4375 13.8672-53.125ZM17.8223-53.125C17.8223-71.3867 30.0781-84.1309 46.8262-84.1309C58.3008-84.1309 66.3574-77.0996 71.0938-68.3594C71.8262-67.041 72.4609-66.5039 73.3398-66.5039C74.2188-66.5039 74.8047-67.041 75.5859-68.3594C80.3711-77.0996 88.3789-84.1309 99.8535-84.1309C116.553-84.1309 128.857-71.3867 128.857-53.125C128.857-29.1992 104.395-4.6875 74.1211 15.5273C73.8281 15.7227 73.584 15.8691 73.3398 15.8691C73.0957 15.8691 72.8516 15.7227 72.5586 15.5273C42.2852-4.6875 17.8223-29.1992 17.8223-53.125ZM75.293-4.63867L75.293-37.6465L75.0977-51.123L87.8906-38.1348L92.2852-33.5938C92.627-33.3008 93.1641-33.0078 93.75-33.0078C94.7754-33.0078 95.6543-33.8379 95.6543-35.0098C95.6543-36.084 94.9707-36.4746 94.3848-37.0605L74.8047-56.4453C74.3652-56.8359 73.8281-57.1289 73.3398-57.1289C72.8516-57.1289 72.3145-56.8359 71.875-56.4453L52.2949-37.0605C51.709-36.4746 51.0742-36.084 51.0742-35.0098C51.0742-33.8379 51.9043-33.0078 52.9785-33.0078C53.5156-33.0078 54.1016-33.3008 54.3945-33.5938L58.7891-38.1348L71.582-51.123L71.3867-37.6465L71.3867-4.63867C71.3867-3.61328 72.2656-2.73438 73.3398-2.73438C74.4141-2.73438 75.293-3.61328 75.293-4.63867Z"/>
  </g>
  <g id="Ultralight-L" transform="matrix(1 0 0 1 487.421 1556)">
   <path d="M13.5254-53.125C13.5254-28.125 37.4512-3.66211 69.9707 18.1152C70.6543 18.5547 71.5332 18.9453 72.2656 18.9453C73.0469 18.9453 73.9258 18.5547 74.5605 18.1152C107.129-3.66211 131.055-28.125 131.055-53.125C131.055-72.998 117.285-87.3535 98.6816-87.3535C87.9395-87.3535 77.002-80.8594 72.2656-70.6543C67.5293-80.8594 56.6406-87.3535 45.8496-87.3535C27.2949-87.3535 13.5254-72.998 13.5254-53.125ZM16.0645-53.125C16.0645-71.6797 28.6621-84.8145 45.8496-84.8145C57.2266-84.8145 65.5762-77.8809 70.5078-68.6035C71.0449-67.5293 71.5332-67.041 72.2656-67.041C72.998-67.041 73.5352-67.5293 74.0723-68.6035C78.9551-77.8809 87.3047-84.8145 98.6816-84.8145C115.869-84.8145 128.516-71.6797 128.516-53.125C128.516-29.1016 104.102-4.73633 72.9492 16.0645C72.7539 16.2109 72.5098 16.3574 72.2656 16.3574C72.0215 16.3574 71.8262 16.2109 71.6309 16.0645C40.4785-4.73633 16.0645-29.1016 16.0645-53.125ZM73.584-3.66211L73.584-38.9648L73.4375-53.125L87.8906-38.4766L92.041-34.1797C92.2363-33.9844 92.627-33.7891 93.0664-33.7891C93.7988-33.7891 94.3848-34.4238 94.3848-35.2051C94.3848-36.2305 93.75-36.4746 93.2129-37.0117L73.2422-57.0312C73.0469-57.2754 72.6074-57.4707 72.2656-57.4707C71.9727-57.4707 71.5332-57.2754 71.2891-57.0312L51.3184-37.0117C50.8301-36.4746 50.1465-36.2305 50.1465-35.2051C50.1465-34.4238 50.7812-33.7891 51.5137-33.7891C51.9043-33.7891 52.3438-33.9844 52.4902-34.1797L56.6406-38.4766L71.0938-53.125L70.9961-38.9648L70.9961-3.66211C70.9961-2.97852 71.582-2.34375 72.2656-2.34375C72.998-2.34375 73.584-2.97852 73.584-3.66211Z"/>
  </g>
  <g id="Black-M" transform="matrix(1 0 0 1 2869.26 1126)">
   <path d="M10.5469-48.5352C10.5469-27.3926 28.4668-6.05469 54.4434 11.4258C58.1055 13.916 61.7188 16.2109 64.1113 16.2109C66.5039 16.2109 70.1172 13.916 73.7793 11.4258C99.8047-6.05469 117.725-27.3926 117.725-48.5352C117.725-69.9707 102.539-83.7402 85.8398-83.7402C75.3418-83.7402 68.2129-79.541 64.1113-73.877C60.0098-79.541 52.9297-83.7402 42.4316-83.7402C25.6836-83.7402 10.5469-69.9707 10.5469-48.5352ZM30.5176-48.7793C30.5176-58.1055 37.3047-64.7949 46.1914-64.7949C53.125-64.7949 56.543-61.377 59.375-57.7637C60.791-55.7617 62.2559-54.6387 64.1113-54.6387C66.0156-54.6387 67.334-55.7617 68.7988-57.7637C71.8262-61.4258 75.1465-64.7949 82.0801-64.7949C90.918-64.7949 97.7539-58.1055 97.7539-48.7793C97.7539-36.084 85.8887-19.5801 64.5996-5.37109C64.4531-5.27344 64.3066-5.22461 64.1113-5.22461C63.916-5.22461 63.8184-5.27344 63.623-5.37109C42.334-19.5801 30.5176-36.084 30.5176-48.7793ZM71.0449-21.1914L71.0449-28.2227L70.3613-34.0332L72.2656-31.7871L72.5586-31.3477C73.3887-30.127 75.1953-29.1504 76.7578-29.1504C80.0781-29.1504 82.6172-31.4941 82.6172-34.668C82.6172-36.4746 82.0801-37.7441 80.5176-39.1113L69.9219-48.5352C68.3594-49.9512 66.5527-51.0254 64.1602-51.0254C61.7676-51.0254 59.9121-49.9512 58.3496-48.5352L47.7539-39.1113C46.1914-37.7441 45.7031-36.4746 45.7031-34.668C45.7031-31.4941 48.1934-29.1504 51.5137-29.1504C53.1738-29.1504 54.7852-30.127 55.7129-31.3477L56.0547-31.7871L57.9102-34.0332L57.2266-28.2227L57.2266-21.1914C57.2266-17.2852 60.3027-14.8926 64.1602-14.8926C67.9688-14.8926 71.0449-17.2852 71.0449-21.1914Z"/>
  </g>
  <g id="Heavy-M" transform="matrix(1 0 0 1 2573.41 1126)">
   <path d="M10.8887-48.6816C10.8887-27.5879 28.7109-6.49414 55.0781 11.0352C58.1055 13.0859 61.2305 14.9902 63.2812 14.9902C65.332 14.9902 68.457 13.0859 71.4844 11.0352C97.8516-6.49414 115.674-27.5879 115.674-48.6816C115.674-69.1406 101.27-82.5195 84.7656-82.5195C74.6094-82.5195 67.4805-78.3203 63.2812-72.4121C59.1309-78.3203 51.9531-82.5195 41.7969-82.5195C25.293-82.5195 10.8887-69.1406 10.8887-48.6816ZM27.9785-48.877C27.9785-59.0332 35.2051-66.2109 44.6289-66.2109C52.0996-66.2109 55.957-62.207 58.8867-58.3496C60.2539-56.3477 61.5723-55.3223 63.2812-55.3223C64.9902-55.3223 66.1621-56.3477 67.6758-58.3496C70.7031-62.2559 74.4629-66.2109 81.9336-66.2109C91.3574-66.2109 98.584-59.0332 98.584-48.877C98.584-34.8633 84.9609-17.627 63.8672-3.56445C63.623-3.41797 63.4766-3.32031 63.2812-3.32031C63.0859-3.32031 62.9395-3.41797 62.6953-3.56445C41.6016-17.627 27.9785-34.8633 27.9785-48.877ZM69.4824-19.7266L69.4824-29.248L68.8477-35.5957L71.2891-32.8613L72.5098-31.4941C73.291-30.4199 74.9023-29.541 76.3672-29.541C79.3457-29.541 81.6406-31.6895 81.6406-34.5703C81.6406-36.1816 81.1523-37.3535 79.7363-38.5742L68.3594-48.7793C66.9434-50.0977 65.3809-51.0254 63.2812-51.0254C61.2305-51.0254 59.668-50.0977 58.2031-48.7793L46.875-38.5742C45.459-37.3535 44.9707-36.1816 44.9707-34.5703C44.9707-31.6895 47.2168-29.541 50.2441-29.541C51.709-29.541 53.2227-30.4199 54.0527-31.4941L55.3223-32.8613L57.7637-35.5957L57.1289-29.248L57.1289-19.7266C57.1289-16.2598 59.9121-14.0625 63.2812-14.0625C66.6992-14.0625 69.4824-16.2598 69.4824-19.7266Z"/>
  </g>
  <g id="Bold-M" transform="matrix(1 0 0 1 2277.65 1126)">
   <path d="M11.3281-48.8281C11.3281-27.832 28.9551-6.93359 55.7129 10.5957C58.1055 12.1582 60.6445 13.623 62.3535 13.623C64.0625 13.623 66.6016 12.1582 68.9453 10.5957C95.7031-6.93359 113.379-27.832 113.379-48.8281C113.379-68.1641 99.8535-81.1523 83.5938-81.1523C73.8281-81.1523 66.6016-76.9043 62.3535-70.8008C58.1055-76.9043 50.8789-81.1523 41.0645-81.1523C24.8047-81.1523 11.3281-68.1641 11.3281-48.8281ZM25.1953-48.9258C25.1953-60.0586 32.8125-67.7734 42.9199-67.7734C50.9766-67.7734 55.3223-63.1836 58.3008-58.9355C59.668-56.9824 60.8398-56.1035 62.3535-56.1035C63.8672-56.1035 64.8926-56.9824 66.3574-58.9355C69.5312-63.1836 73.7305-67.7734 81.7383-67.7734C91.8457-67.7734 99.4629-60.0586 99.4629-48.9258C99.4629-33.4961 83.9355-15.4297 63.0859-1.5625C62.7441-1.36719 62.5488-1.2207 62.3535-1.2207C62.1582-1.2207 61.9141-1.36719 61.6211-1.5625C40.7227-15.4297 25.1953-33.4961 25.1953-48.9258ZM67.6758-18.0664L67.6758-30.4199L67.1875-37.3047L70.2148-34.0332L72.5098-31.6406C73.2422-30.6641 74.6094-29.9805 75.8789-29.9805C78.5156-29.9805 80.5176-31.8848 80.5176-34.4238C80.5176-35.8887 80.0293-36.9141 78.8574-37.9883L66.6016-49.0723C65.332-50.293 64.0137-50.9766 62.3535-50.9766C60.6934-50.9766 59.375-50.293 58.1055-49.0723L45.8496-37.9883C44.6777-36.9141 44.1895-35.8887 44.1895-34.4238C44.1895-31.8848 46.1426-29.9805 48.8281-29.9805C50.0977-29.9805 51.416-30.6641 52.2461-31.6406L54.541-34.0332L57.5195-37.3047L57.0312-30.4199L57.0312-18.0664C57.0312-15.0879 59.4238-13.0859 62.3535-13.0859C65.2832-13.0859 67.6758-15.0879 67.6758-18.0664Z"/>
  </g>
  <g id="Semibold-M" transform="matrix(1 0 0 1 1981.57 1126)">
   <path d="M11.5723-48.9258C11.5723-27.9785 29.1504-7.27539 56.2012 10.3027C58.0566 11.5234 60.2539 12.6953 61.6699 12.6953C63.1348 12.6953 65.2832 11.5234 67.1875 10.3027C94.2383-7.27539 111.816-27.9785 111.816-48.9258C111.816-67.4805 98.877-80.2246 82.7637-80.2246C73.2422-80.2246 66.0156-75.9766 61.6699-69.6289C57.4219-75.9277 50.0977-80.2246 40.625-80.2246C24.4629-80.2246 11.5723-67.4805 11.5723-48.9258ZM23.291-48.9746C23.291-60.791 31.2012-68.8477 41.748-68.8477C50.1953-68.8477 54.8828-63.8672 57.9102-59.375C59.2773-57.4219 60.3027-56.6406 61.6699-56.6406C63.0859-56.6406 64.0137-57.4219 65.4297-59.375C68.6523-63.8184 73.1934-68.8477 81.6406-68.8477C92.1875-68.8477 100.098-60.791 100.098-48.9746C100.098-32.5684 83.252-13.9648 62.5488-0.146484C62.1582 0.0976562 61.8652 0.244141 61.6699 0.244141C61.5234 0.244141 61.2305 0.0976562 60.8398-0.146484C40.1367-13.9648 23.291-32.5684 23.291-48.9746ZM66.4551-16.9434L66.4551-31.25L66.0156-38.5254L69.4336-34.8633L72.4609-31.7383C73.1934-30.9082 74.4141-30.3223 75.5859-30.3223C77.9785-30.3223 79.7852-32.0312 79.7852-34.3262C79.7852-35.6934 79.2969-36.6699 78.2715-37.5488L65.4297-49.3164C64.209-50.3906 63.1348-50.9766 61.7188-50.9766C60.3027-50.9766 59.1797-50.3906 58.0078-49.3164L45.1172-37.5488C44.0918-36.6699 43.6523-35.6934 43.6523-34.3262C43.6523-32.0312 45.4102-30.3223 47.8516-30.3223C48.9746-30.3223 50.1953-30.9082 50.9277-31.7383L53.9551-34.8633L57.4219-38.5254L56.9824-31.25L56.9824-16.9434C56.9824-14.3066 59.1309-12.4512 61.7188-12.4512C64.3066-12.4512 66.4551-14.3066 66.4551-16.9434Z"/>
  </g>
  <g id="Medium-M" transform="matrix(1 0 0 1 1685.35 1126)">
   <path d="M11.7676-48.9746C11.7676-28.125 29.2969-7.51953 56.543 10.0586C58.0566 11.0352 59.9121 12.0117 61.1816 12.0117C62.4512 12.0117 64.3066 11.0352 65.8203 10.0586C93.1152-7.51953 110.596-28.125 110.596-48.9746C110.596-66.9922 98.1445-79.4922 82.1777-79.4922C72.8516-79.4922 65.5762-75.2441 61.1816-68.7988C56.8848-75.1953 49.5605-79.4922 40.2344-79.4922C24.2188-79.4922 11.7676-66.9922 11.7676-48.9746ZM21.8262-49.0234C21.8262-61.3281 29.9316-69.6777 40.8203-69.6777C49.6094-69.6777 54.541-64.3555 57.6172-59.7168C58.9844-57.7148 59.9121-57.0801 61.1816-57.0801C62.5-57.0801 63.3301-57.7637 64.7461-59.7168C68.0664-64.2578 72.8027-69.6777 81.543-69.6777C92.4805-69.6777 100.586-61.3281 100.586-49.0234C100.586-31.8359 82.7148-12.793 62.1094 0.878906C61.6699 1.17188 61.377 1.36719 61.1816 1.36719C60.9863 1.36719 60.6934 1.17188 60.3027 0.878906C39.6973-12.793 21.8262-31.8359 21.8262-49.0234ZM65.5273-16.0645L65.5273-31.8359L65.1367-39.4043L68.8965-35.498L72.4609-31.8359C73.1445-31.0547 74.2676-30.5176 75.3418-30.5176C77.5391-30.5176 79.1992-32.1289 79.1992-34.2773C79.1992-35.498 78.7598-36.4258 77.832-37.2559L64.502-49.4629C63.3789-50.4883 62.4023-50.9277 61.2305-50.9277C60.0098-50.9277 59.0332-50.4883 57.9102-49.4629L44.6289-37.2559C43.7012-36.4258 43.2129-35.498 43.2129-34.2773C43.2129-32.1289 44.873-30.5176 47.1191-30.5176C48.1445-30.5176 49.2676-31.0547 50-31.8359L53.5645-35.498L57.2754-39.4043L56.8848-31.8359L56.8848-16.0645C56.8848-13.7207 58.8867-11.9629 61.2305-11.9629C63.5254-11.9629 65.5273-13.7207 65.5273-16.0645Z"/>
  </g>
  <g id="Regular-M" transform="matrix(1 0 0 1 1389.3 1126)">
   <path d="M12.0605-49.0723C12.0605-28.2715 29.4922-7.8125 57.0312 9.76562C58.0566 10.4004 59.5215 11.084 60.5469 11.084C61.5723 11.084 63.0371 10.4004 64.1113 9.76562C91.6016-7.8125 109.033-28.2715 109.033-49.0723C109.033-66.3574 97.168-78.5645 81.3477-78.5645C72.3145-78.5645 64.9902-74.2676 60.5469-67.6758C56.2012-74.2188 48.7793-78.5645 39.7461-78.5645C23.9258-78.5645 12.0605-66.3574 12.0605-49.0723ZM19.9219-49.0723C19.9219-62.0605 28.3203-70.7031 39.6484-70.7031C48.8281-70.7031 54.1016-64.9902 57.2266-60.1074C58.5449-58.1543 59.375-57.6172 60.5469-57.6172C61.7188-57.6172 62.4512-58.2031 63.8672-60.1074C67.2363-64.8926 72.3145-70.7031 81.4453-70.7031C92.7734-70.7031 101.172-62.0605 101.172-49.0723C101.172-30.9082 81.9824-11.3281 61.5723 2.24609C61.084 2.58789 60.7422 2.83203 60.5469 2.83203C60.3516 2.83203 60.0098 2.58789 59.5703 2.24609C39.1113-11.3281 19.9219-30.9082 19.9219-49.0723ZM64.3066-14.9414L64.3066-32.666L63.9648-40.5762L68.1152-36.3281L72.4121-31.9336C73.0957-31.25 74.0723-30.8594 75-30.8594C76.9531-30.8594 78.4668-32.2266 78.4668-34.2285C78.4668-35.3027 78.0273-36.1328 77.2461-36.8164L63.3301-49.6582C62.2559-50.5859 61.5234-50.9277 60.5469-50.9277C59.6191-50.9277 58.8379-50.5859 57.8125-49.6582L43.8965-36.8164C43.1152-36.1328 42.6758-35.3027 42.6758-34.2285C42.6758-32.2266 44.1406-30.8594 46.1426-30.8594C47.0215-30.8594 48.0469-31.25 48.7305-31.9336L52.9785-36.3281L57.1777-40.5762L56.8359-32.666L56.8359-14.9414C56.8359-12.9395 58.5449-11.3281 60.5469-11.3281C62.5488-11.3281 64.3066-12.9395 64.3066-14.9414Z"/>
  </g>
  <g id="Light-M" transform="matrix(1 0 0 1 1094 1126)">
   <path d="M11.5723-49.0723C11.5723-28.7109 29.3457-8.74023 56.1523 8.64258C57.0312 9.17969 58.252 9.7168 59.1309 9.7168C60.0098 9.7168 61.2305 9.17969 62.1582 8.64258C88.9648-8.74023 106.738-28.7109 106.738-49.0723C106.738-65.7715 95.2148-77.6855 79.834-77.6855C70.9961-77.6855 63.3301-73.1445 59.1309-66.1133C54.9805-73.0957 47.2656-77.6855 38.4277-77.6855C23.0469-77.6855 11.5723-65.7715 11.5723-49.0723ZM17.5781-49.0723C17.5781-62.5 26.416-71.6309 38.3789-71.6309C47.4609-71.6309 53.0762-66.0156 56.4453-60.4004C57.4707-58.7891 58.1543-58.3008 59.1309-58.3008C60.1074-58.3008 60.7422-58.8379 61.8652-60.4004C65.332-65.9668 70.8496-71.6309 79.8828-71.6309C91.8457-71.6309 100.684-62.5 100.684-49.0723C100.684-30.7617 81.5918-11.4258 60.0098 2.97852C59.6191 3.22266 59.3262 3.41797 59.1309 3.41797C58.9355 3.41797 58.6914 3.22266 58.3008 2.97852C36.7188-11.4258 17.5781-30.7617 17.5781-49.0723ZM62.0605-13.6719L62.0605-34.3262L61.8164-43.2129L68.1152-36.7676L72.0703-32.7148C72.6074-32.1777 73.3398-31.8848 74.1211-31.8848C75.6348-31.8848 76.8066-32.959 76.8066-34.5215C76.8066-35.5469 76.3672-36.1816 75.6836-36.7676L61.2793-50.4395C60.5469-51.123 59.9121-51.416 59.1797-51.416C58.4473-51.416 57.8125-51.123 57.0312-50.4395L42.627-36.7676C41.9922-36.1816 41.5039-35.5469 41.5039-34.5215C41.5039-32.959 42.627-31.8848 44.1895-31.8848C44.9219-31.8848 45.7031-32.1777 46.2402-32.7148L50.1953-36.7676L56.543-43.2129L56.25-34.3262L56.25-13.6719C56.25-12.1094 57.6172-10.8398 59.1797-10.8398C60.6934-10.8398 62.0605-12.1094 62.0605-13.6719Z"/>
  </g>
  <g id="Thin-M" transform="matrix(1 0 0 1 799.147 1126)">
   <path d="M10.8887-49.0723C10.8887-29.2969 29.1504-9.96094 54.9805 7.12891C55.6641 7.56836 56.5918 7.95898 57.2754 7.95898C57.959 7.95898 58.8867 7.56836 59.5703 7.12891C85.4004-9.96094 103.662-29.2969 103.662-49.0723C103.662-65.0391 92.627-76.4648 77.832-76.4648C69.2871-76.4648 61.1816-71.6309 57.2754-64.0625C53.418-71.6309 45.2637-76.4648 36.7188-76.4648C21.9238-76.4648 10.8887-65.0391 10.8887-49.0723ZM14.5508-49.0723C14.5508-63.0859 23.9258-72.8516 36.6699-72.8516C45.6055-72.8516 51.709-67.334 55.3223-60.791C56.0059-59.668 56.543-59.2285 57.2754-59.2285C58.0078-59.2285 58.4961-59.668 59.2285-60.791C62.8418-67.334 68.9453-72.8516 77.8809-72.8516C90.625-72.8516 100-63.0859 100-49.0723C100-30.6152 81.0059-11.5234 57.9102 3.90625C57.666 4.05273 57.4707 4.19922 57.2754 4.19922C57.0801 4.19922 56.8848 4.05273 56.6406 3.90625C33.5449-11.5234 14.5508-30.6152 14.5508-49.0723ZM59.082-11.9629L59.082-36.5723L58.8867-46.7285L68.1152-37.3535L71.6309-33.7402C71.9238-33.4473 72.4121-33.2031 72.9492-33.2031C73.877-33.2031 74.6582-33.9355 74.6582-34.9609C74.6582-35.791 74.1699-36.1816 73.6328-36.6699L58.5938-51.416C58.2031-51.8066 57.7637-52.0508 57.2754-52.0508C56.8359-52.0508 56.3965-51.8066 55.957-51.416L40.9668-36.6699C40.4297-36.1816 39.9414-35.791 39.9414-34.9609C39.9414-33.9355 40.7227-33.2031 41.6504-33.2031C42.1387-33.2031 42.6758-33.4473 42.9688-33.7402L46.4355-37.3535L55.7129-46.7285L55.5176-36.5723L55.5176-11.9629C55.5176-10.9863 56.3477-10.2051 57.2754-10.2051C58.252-10.2051 59.082-10.9863 59.082-11.9629Z"/>
  </g>
  <g id="Ultralight-M" transform="matrix(1 0 0 1 503.388 1126)">
   <path d="M10.5469-49.0723C10.5469-29.5898 29.0527-10.5469 54.3945 6.39648C54.9805 6.73828 55.7129 7.03125 56.2988 7.03125C56.9336 7.03125 57.666 6.73828 58.2031 6.39648C83.5938-10.5469 102.1-29.5898 102.1-49.0723C102.1-64.6484 91.3086-75.8301 76.8066-75.8301C68.4082-75.8301 60.0586-70.8496 56.2988-63.0371C52.5879-70.8496 44.2383-75.8301 35.8398-75.8301C21.3379-75.8301 10.5469-64.6484 10.5469-49.0723ZM12.9395-49.0723C12.9395-63.3789 22.6562-73.4375 35.8398-73.4375C44.6777-73.4375 51.0254-68.0176 54.7852-61.0352C55.2734-60.1074 55.7129-59.7168 56.2988-59.7168C56.9336-59.7168 57.373-60.1074 57.8613-61.0352C61.5723-68.0176 67.9688-73.4375 76.8066-73.4375C89.9902-73.4375 99.707-63.3789 99.707-49.0723C99.707-30.5176 80.7617-11.5723 56.8848 4.3457C56.6895 4.49219 56.4941 4.58984 56.2988 4.58984C56.1523 4.58984 55.957 4.49219 55.7617 4.3457C31.8848-11.5723 12.9395-30.5176 12.9395-49.0723ZM57.5195-11.084L57.5195-37.7441L57.4219-48.4863L68.1152-37.6465L71.4355-34.2285C71.582-34.082 71.9727-33.8867 72.3145-33.8867C72.998-33.8867 73.5352-34.4238 73.5352-35.1562C73.5352-35.9375 73.0469-36.1816 72.6074-36.6211L57.2266-51.9531C57.0312-52.1973 56.6406-52.3438 56.3477-52.3438C56.0547-52.3438 55.6641-52.1973 55.4199-51.9531L40.0879-36.6211C39.6484-36.1816 39.1602-35.9375 39.1602-35.1562C39.1602-34.4238 39.6973-33.8867 40.3809-33.8867C40.7227-33.8867 41.0645-34.082 41.2598-34.2285L44.5312-37.6465L55.2734-48.4863L55.127-37.7441L55.127-11.084C55.127-10.4004 55.6641-9.86328 56.3477-9.86328C56.9824-9.86328 57.5195-10.4004 57.5195-11.084Z"/>
  </g>
  <g id="Black-S" transform="matrix(1 0 0 1 2883.2 696)">
   <path d="M8.30078-45.6543C8.30078-29.1016 22.3145-12.4023 42.7246 1.31836C45.5566 3.22266 48.3398 4.98047 50.1953 4.98047C52.0508 4.98047 54.834 3.22266 57.666 1.31836C78.0762-12.4023 92.0898-29.1016 92.0898-45.6543C92.0898-62.4023 80.2734-73.1445 67.1875-73.1445C58.9844-73.1445 53.418-69.873 50.1953-65.4297C46.9727-69.873 41.4062-73.1445 33.2031-73.1445C20.1172-73.1445 8.30078-62.4023 8.30078-45.6543ZM23.7305-45.8496C23.7305-53.2227 29.1016-58.4961 36.084-58.4961C41.5527-58.4961 44.2871-55.7617 46.4844-52.9297C47.6074-51.3672 48.7305-50.4883 50.1953-50.4883C51.6602-50.4883 52.6855-51.3672 53.8574-52.9297C56.2012-55.8105 58.8379-58.4961 64.3066-58.4961C71.2891-58.4961 76.6602-53.2227 76.6602-45.8496C76.6602-35.791 67.2363-22.8027 50.5859-11.7188C50.4395-11.6211 50.3418-11.5723 50.1953-11.5723C50.0488-11.5723 49.9512-11.6211 49.8047-11.7188C33.1543-22.8027 23.7305-35.791 23.7305-45.8496ZM55.5664-24.1211L55.5664-29.7852L55.0293-34.375L56.543-32.6172L56.8359-32.1777C57.4707-31.25 58.8867-30.4688 60.1074-30.4688C62.6953-30.4688 64.6484-32.3242 64.6484-34.7656C64.6484-36.1816 64.2578-37.1582 63.0371-38.2324L54.6875-45.6543C53.4668-46.7773 52.0508-47.6074 50.1953-47.6074C48.3398-47.6074 46.9238-46.7773 45.7031-45.6543L37.3535-38.2324C36.1328-37.1582 35.7422-36.1816 35.7422-34.7656C35.7422-32.3242 37.6953-30.4688 40.2832-30.4688C41.5527-30.4688 42.8223-31.25 43.5547-32.1777L43.8965-32.6172L45.3613-34.375L44.8242-29.7852L44.8242-24.1211C44.8242-21.0938 47.2168-19.2383 50.1953-19.2383C53.1738-19.2383 55.5664-21.0938 55.5664-24.1211Z"/>
  </g>
  <g id="Heavy-S" transform="matrix(1 0 0 1 2586.98 696)">
   <path d="M8.64258-45.752C8.64258-29.1992 22.5098-12.5977 43.2617 1.12305C45.6543 2.73438 48.0957 4.19922 49.707 4.19922C51.3184 4.19922 53.7598 2.73438 56.1035 1.12305C76.9043-12.5977 90.7715-29.1992 90.7715-45.752C90.7715-61.8164 79.541-72.3145 66.5527-72.3145C58.5938-72.3145 53.0273-69.043 49.707-64.4531C46.3867-69.043 40.8203-72.3145 32.8613-72.3145C19.873-72.3145 8.64258-61.8164 8.64258-45.752ZM22.0703-45.8984C22.0703-53.9062 27.6855-59.4727 35.0586-59.4727C40.918-59.4727 43.9453-56.2988 46.1914-53.3203C47.3145-51.709 48.3398-50.9277 49.707-50.9277C51.0742-50.9277 52.002-51.7578 53.1738-53.3203C55.5664-56.2988 58.4961-59.4727 64.3555-59.4727C71.7285-59.4727 77.3438-53.9062 77.3438-45.8984C77.3438-34.8633 66.5527-21.2891 50.1953-10.4004C50-10.2539 49.8535-10.2051 49.707-10.2051C49.5605-10.2051 49.4141-10.2539 49.2188-10.4004C32.8125-21.2891 22.0703-34.8633 22.0703-45.8984ZM54.5898-23.1445L54.5898-30.4199L54.1016-35.2539L55.8105-33.3984L56.8359-32.2266C57.4707-31.3477 58.7402-30.6641 59.9121-30.6641C62.2559-30.6641 64.0625-32.373 64.0625-34.668C64.0625-35.9375 63.7207-36.8652 62.5977-37.8418L53.7109-45.752C52.5391-46.8262 51.3184-47.5098 49.707-47.5098C48.0957-47.5098 46.8262-46.8262 45.7031-45.752L36.8164-37.8418C35.6934-36.8652 35.3516-35.9375 35.3516-34.668C35.3516-32.373 37.1094-30.6641 39.502-30.6641C40.6738-30.6641 41.8457-31.3477 42.5781-32.2266L43.6523-33.3984L45.3125-35.2539L44.8242-30.4199L44.8242-23.1445C44.8242-20.4102 47.0215-18.6523 49.707-18.6523C52.3926-18.6523 54.5898-20.4102 54.5898-23.1445Z"/>
  </g>
  <g id="Bold-S" transform="matrix(1 0 0 1 2290.83 696)">
   <path d="M8.98438-45.8984C8.98438-29.3457 22.7539-12.8418 43.8965 0.927734C45.752 2.19727 47.8027 3.32031 49.1699 3.32031C50.4883 3.32031 52.5391 2.19727 54.3945 0.927734C75.5859-12.8418 89.3066-29.3457 89.3066-45.8984C89.3066-61.1328 78.6621-71.3867 65.8203-71.3867C58.1055-71.3867 52.5391-68.1152 49.1699-63.4277C45.752-68.1152 40.1855-71.3867 32.4707-71.3867C19.6289-71.3867 8.98438-61.1328 8.98438-45.8984ZM20.2148-45.9961C20.2148-54.6387 26.0742-60.5469 33.8867-60.5469C40.2344-60.5469 43.5547-56.9336 45.8496-53.7598C47.0215-52.1484 47.9004-51.4648 49.1699-51.4648C50.3906-51.4648 51.2207-52.1484 52.4414-53.7598C54.8828-56.8848 58.1055-60.5469 64.4043-60.5469C72.2168-60.5469 78.0762-54.6387 78.0762-45.9961C78.0762-33.8379 65.8203-19.6289 49.7559-8.93555C49.4629-8.78906 49.3164-8.64258 49.1699-8.64258C49.0234-8.64258 48.8281-8.78906 48.5352-8.93555C32.4707-19.6289 20.2148-33.8379 20.2148-45.9961ZM53.5156-22.0215L53.5156-31.1035L53.125-36.2793L54.9805-34.2285L56.8359-32.2266C57.4707-31.4453 58.5938-30.9082 59.668-30.9082C61.8164-30.9082 63.4277-32.4219 63.4277-34.5215C63.4277-35.6934 63.0859-36.5723 62.1582-37.3535L52.6367-45.8984C51.5625-46.875 50.4883-47.4609 49.1699-47.4609C47.8027-47.4609 46.7773-46.875 45.7031-45.8984L36.1816-37.3535C35.2539-36.5723 34.8633-35.6934 34.8633-34.5215C34.8633-32.4219 36.4746-30.9082 38.6719-30.9082C39.6973-30.9082 40.7715-31.4453 41.4551-32.2266L43.4082-34.2285L45.2148-36.2793L44.8242-31.1035L44.8242-22.0215C44.8242-19.6289 46.7773-17.9688 49.1699-17.9688C51.5625-17.9688 53.5156-19.6289 53.5156-22.0215Z"/>
  </g>
  <g id="Semibold-S" transform="matrix(1 0 0 1 1994.51 696)">
   <path d="M9.22852-45.9473C9.22852-29.3945 22.9004-13.0371 44.3359 0.78125C45.8496 1.80664 47.6074 2.73438 48.7793 2.73438C49.9512 2.73438 51.709 1.80664 53.2227 0.78125C74.6582-13.0371 88.2812-29.3945 88.2812-45.9473C88.2812-60.6934 78.0762-70.752 65.332-70.752C57.8125-70.752 52.2461-67.4805 48.7793-62.6465C45.3125-67.4805 39.7461-70.752 32.2266-70.752C19.4336-70.752 9.22852-60.6934 9.22852-45.9473ZM18.9453-45.9961C18.9453-55.127 25-61.2793 33.0566-61.2793C39.7461-61.2793 43.3105-57.3242 45.6055-54.0527C46.7773-52.3926 47.6074-51.8066 48.7793-51.8066C49.9023-51.8066 50.6836-52.4414 51.9043-54.0527C54.3945-57.2754 57.8125-61.2793 64.4531-61.2793C72.5586-61.2793 78.6133-55.127 78.6133-45.9961C78.6133-33.1543 65.332-18.5059 49.4629-7.95898C49.1211-7.71484 48.9258-7.56836 48.7793-7.56836C48.6328-7.56836 48.3887-7.71484 48.0469-7.95898C32.2266-18.5059 18.9453-33.1543 18.9453-45.9961ZM52.7832-21.2891L52.7832-31.543L52.3926-36.9629L54.3945-34.8145L56.8848-32.2754C57.4707-31.4941 58.4961-31.0547 59.4727-31.0547C61.4746-31.0547 62.9883-32.4707 62.9883-34.4238C62.9883-35.498 62.6465-36.3281 61.8164-37.0605L51.8555-45.9961C50.8301-46.9238 49.9512-47.4121 48.7793-47.4121C47.6074-47.4121 46.7285-46.9238 45.7031-45.9961L35.7422-37.0605C34.9121-36.3281 34.5703-35.498 34.5703-34.4238C34.5703-32.4707 36.0352-31.0547 38.0859-31.0547C39.0137-31.0547 40.0391-31.4941 40.6738-32.2754L43.2129-34.8145L45.166-36.9629L44.7754-31.543L44.7754-21.2891C44.7754-19.0918 46.6309-17.5293 48.7793-17.5293C50.9277-17.5293 52.7832-19.0918 52.7832-21.2891Z"/>
  </g>
  <g id="Medium-S" transform="matrix(1 0 0 1 1698.07 696)">
   <path d="M9.42383-45.9961C9.42383-29.4922 22.998-13.1348 44.6289 0.683594C45.8984 1.51367 47.4609 2.29492 48.4863 2.29492C49.5117 2.29492 51.0742 1.51367 52.2949 0.683594C73.9746-13.1348 87.5488-29.4922 87.5488-45.9961C87.5488-60.3516 77.6367-70.2637 64.9414-70.2637C57.5684-70.2637 52.002-66.9922 48.4863-62.1094C45.0195-66.9434 39.4043-70.2637 32.0312-70.2637C19.2871-70.2637 9.42383-60.3516 9.42383-45.9961ZM17.9688-46.0449C17.9688-55.5176 24.1699-61.8652 32.4707-61.8652C39.4043-61.8652 43.1152-57.666 45.459-54.2969C46.6309-52.5879 47.4121-52.0508 48.4863-52.0508C49.5605-52.0508 50.2441-52.6367 51.5137-54.2969C54.0039-57.5684 57.6172-61.8652 64.502-61.8652C72.8027-61.8652 79.0039-55.5176 79.0039-46.0449C79.0039-32.6172 64.9414-17.627 49.2676-7.17773C48.877-6.93359 48.6328-6.78711 48.4863-6.78711C48.3398-6.78711 48.0957-6.93359 47.7051-7.17773C32.0312-17.627 17.9688-32.6172 17.9688-46.0449ZM52.1973-20.7031L52.1973-31.9336L51.8555-37.4512L53.9551-35.2539L56.8848-32.2754C57.4707-31.5918 58.4473-31.1523 59.375-31.1523C61.2305-31.1523 62.6953-32.5195 62.6953-34.375C62.6953-35.3516 62.3047-36.1816 61.5723-36.8164L51.3184-46.0938C50.3418-46.9727 49.5117-47.3633 48.4863-47.3633C47.4609-47.3633 46.6797-46.9727 45.7031-46.0938L35.4492-36.8164C34.668-36.1816 34.3262-35.3516 34.3262-34.375C34.3262-32.5195 35.6934-31.1523 37.6465-31.1523C38.5254-31.1523 39.502-31.5918 40.1367-32.2754L43.0664-35.2539L45.1172-37.4512L44.7754-31.9336L44.7754-20.7031C44.7754-18.7012 46.4844-17.1875 48.4863-17.1875C50.4883-17.1875 52.1973-18.7012 52.1973-20.7031Z"/>
  </g>
  <g id="Regular-S" transform="matrix(1 0 0 1 1401.75 696)">
   <path d="M9.66797-46.0938C9.66797-29.541 23.1445-13.3301 45.0684 0.537109C45.9473 1.12305 47.2656 1.70898 48.0957 1.70898C48.9746 1.70898 50.2441 1.12305 51.123 0.537109C73.0469-13.3301 86.5234-29.541 86.5234-46.0938C86.5234-59.8633 77.0508-69.6289 64.4531-69.6289C57.2266-69.6289 51.6602-66.3574 48.0957-61.377C44.5801-66.3086 38.9648-69.6289 31.7383-69.6289C19.1406-69.6289 9.66797-59.8633 9.66797-46.0938ZM16.6992-46.0938C16.6992-56.0059 23.0957-62.5977 31.6895-62.5977C38.916-62.5977 42.8223-58.0566 45.2148-54.5898C46.3867-52.8809 47.1191-52.3926 48.0957-52.3926C49.1211-52.3926 49.707-52.9297 50.9766-54.5898C53.5645-57.959 57.3242-62.5977 64.5508-62.5977C73.1445-62.5977 79.4922-56.0059 79.4922-46.0938C79.4922-31.9336 64.4043-16.4551 48.9746-6.20117C48.5352-5.9082 48.2422-5.71289 48.0957-5.71289C47.9492-5.71289 47.6562-5.9082 47.2656-6.20117C31.7871-16.4551 16.6992-31.9336 16.6992-46.0938ZM51.4648-19.9707L51.4648-32.373L51.1719-38.1348L53.3691-35.8398L56.8848-32.2754C57.4707-31.6406 58.3496-31.2988 59.1797-31.2988C60.9375-31.2988 62.2559-32.5195 62.2559-34.2773C62.2559-35.2051 61.9141-35.9375 61.2305-36.5234L50.5859-46.1426C49.6094-47.0215 48.9746-47.3145 48.1445-47.3145C47.2656-47.3145 46.6309-47.0215 45.6543-46.1426L35.0098-36.5234C34.3262-35.9375 33.9844-35.2051 33.9844-34.2773C33.9844-32.5195 35.2539-31.2988 37.0605-31.2988C37.8418-31.2988 38.7695-31.6406 39.3555-32.2754L42.8711-35.8398L45.0684-38.1348L44.7754-32.373L44.7754-19.9707C44.7754-18.1641 46.3379-16.6992 48.1445-16.6992C49.9023-16.6992 51.4648-18.1641 51.4648-19.9707Z"/>
  </g>
  <g id="Light-S" transform="matrix(1 0 0 1 1106.28 696)">
   <path d="M9.22852-46.0938C9.22852-29.9805 22.998-14.1113 44.2871-0.439453C45.0684 0.0488281 46.0938 0.488281 46.875 0.488281C47.6074 0.488281 48.6328 0.0488281 49.4141-0.439453C70.7031-14.1113 84.4727-29.9805 84.4727-46.0938C84.4727-59.375 75.3418-68.8477 63.0859-68.8477C56.1035-68.8477 50.2441-65.3809 46.875-60.0098C43.5059-65.332 37.5977-68.8477 30.6152-68.8477C18.3594-68.8477 9.22852-59.375 9.22852-46.0938ZM14.6484-46.0938C14.6484-56.4453 21.3867-63.3789 30.5176-63.3789C37.6953-63.3789 41.9434-58.9844 44.4824-54.834C45.4102-53.4668 45.9961-53.0273 46.875-53.0273C47.7051-53.0273 48.2422-53.4668 49.2188-54.834C51.9043-58.8867 56.0547-63.3789 63.1836-63.3789C72.3145-63.3789 79.0527-56.4453 79.0527-46.0938C79.0527-31.7871 64.0625-16.5527 47.5586-5.56641C47.2656-5.37109 47.0215-5.17578 46.875-5.17578C46.7285-5.17578 46.4844-5.37109 46.1426-5.56641C29.6387-16.5527 14.6484-31.7871 14.6484-46.0938ZM49.4629-18.7988L49.4629-33.8867L49.2188-40.4785L53.3691-36.2793L56.5918-32.959C57.0312-32.4707 57.7148-32.2266 58.3984-32.2266C59.7656-32.2266 60.791-33.2031 60.791-34.5703C60.791-35.4004 60.4492-35.9375 59.8633-36.4746L48.7793-46.8262C48.0957-47.4609 47.5098-47.7051 46.875-47.7051C46.2402-47.7051 45.6543-47.4609 44.9707-46.8262L33.8867-36.4746C33.3008-35.9375 32.959-35.4004 32.959-34.5703C32.959-33.2031 33.9844-32.2266 35.3516-32.2266C35.9863-32.2266 36.7188-32.4707 37.1582-32.959L40.3809-36.2793L44.5312-40.4785L44.2871-33.8867L44.2871-18.7988C44.2871-17.4316 45.5078-16.3086 46.875-16.3086C48.2422-16.3086 49.4629-17.4316 49.4629-18.7988Z"/>
  </g>
  <g id="Thin-S" transform="matrix(1 0 0 1 811.207 696)">
   <path d="M8.64258-46.0938C8.64258-30.4688 22.8516-15.1855 43.3105-1.75781C43.8477-1.36719 44.6289-1.07422 45.2148-1.07422C45.8008-1.07422 46.582-1.36719 47.1191-1.75781C67.5781-15.1855 81.7871-30.4688 81.7871-46.0938C81.7871-58.7402 73.0469-67.7734 61.3281-67.7734C54.5898-67.7734 48.291-64.0137 45.2148-58.2031C42.1387-64.0137 35.8398-67.7734 29.0527-67.7734C17.3828-67.7734 8.64258-58.7402 8.64258-46.0938ZM11.9629-46.0938C11.9629-56.9336 19.1895-64.4531 29.0527-64.4531C36.084-64.4531 40.7715-60.1562 43.5547-55.1758C44.1406-54.1992 44.5801-53.8574 45.2148-53.8574C45.8496-53.8574 46.2402-54.1992 46.875-55.1758C49.707-60.1074 54.3457-64.4531 61.377-64.4531C71.2402-64.4531 78.4668-56.9336 78.4668-46.0938C78.4668-31.6406 63.5742-16.6504 45.752-4.78516C45.5566-4.63867 45.3613-4.49219 45.2148-4.49219C45.0684-4.49219 44.873-4.63867 44.6777-4.78516C26.8555-16.6504 11.9629-31.6406 11.9629-46.0938ZM46.8262-17.334L46.8262-35.8398L46.6797-43.5547L53.3691-36.7676L56.2012-33.8379C56.4941-33.5938 56.9336-33.3984 57.373-33.3984C58.2031-33.3984 58.8867-34.0332 58.8867-34.9121C58.8867-35.6445 58.4961-35.9863 58.0566-36.377L46.4355-47.7051C46.0449-48.0957 45.6543-48.291 45.2148-48.291C44.8242-48.291 44.4336-48.0957 44.043-47.7051L32.373-36.377C31.9824-35.9863 31.5918-35.6445 31.5918-34.9121C31.5918-34.0332 32.2266-33.3984 33.1055-33.3984C33.5449-33.3984 33.9844-33.5938 34.2773-33.8379L37.1094-36.7676L43.7988-43.5547L43.6523-35.8398L43.6523-17.334C43.6523-16.4551 44.3848-15.7227 45.2148-15.7227C46.0938-15.7227 46.8262-16.4551 46.8262-17.334Z"/>
  </g>
  <g id="Ultralight-S" transform="matrix(1 0 0 1 515.351 696)">
   <path d="M8.34961-46.0938C8.34961-30.7617 22.7539-15.7227 42.7734-2.44141C43.2617-2.14844 43.8477-1.85547 44.3848-1.85547C44.873-1.85547 45.5078-2.14844 45.9473-2.44141C65.9668-15.7227 80.3711-30.7617 80.3711-46.0938C80.3711-58.3984 71.875-67.2363 60.4492-67.2363C53.8086-67.2363 47.3145-63.3301 44.3848-57.2754C41.4062-63.3301 34.9121-67.2363 28.2715-67.2363C16.8457-67.2363 8.34961-58.3984 8.34961-46.0938ZM10.5469-46.0938C10.5469-57.2266 18.0664-64.9902 28.2715-64.9902C35.2539-64.9902 40.1367-60.7422 43.0664-55.3711C43.5059-54.5898 43.8477-54.2969 44.3848-54.2969C44.873-54.2969 45.2148-54.5898 45.6543-55.3711C48.584-60.7422 53.5156-64.9902 60.4492-64.9902C70.6543-64.9902 78.1738-57.2266 78.1738-46.0938C78.1738-31.543 63.3301-16.6992 44.8242-4.3457C44.6777-4.24805 44.5312-4.15039 44.3848-4.15039C44.2383-4.15039 44.043-4.24805 43.8965-4.3457C25.3906-16.6992 10.5469-31.543 10.5469-46.0938ZM45.459-16.5527L45.459-36.8652L45.3613-45.166L53.3691-37.0605L56.0059-34.3262C56.1523-34.1309 56.4941-33.9844 56.8359-33.9844C57.4219-33.9844 57.9102-34.4727 57.9102-35.1074C57.9102-35.7422 57.5195-35.9863 57.1289-36.3281L45.2148-48.1934C44.9707-48.4375 44.6777-48.584 44.3848-48.584C44.0918-48.584 43.7988-48.4375 43.5547-48.1934L31.6406-36.3281C31.25-35.9863 30.8594-35.7422 30.8594-35.1074C30.8594-34.4727 31.3477-33.9844 31.9336-33.9844C32.2754-33.9844 32.6172-34.1309 32.7637-34.3262L35.4004-37.0605L43.4082-45.166L43.3105-36.8652L43.3105-16.5527C43.3105-15.918 43.7988-15.4297 44.3848-15.4297C44.9707-15.4297 45.459-15.918 45.459-16.5527Z"/>
  </g>
 </g>
</svg>
