<?xml version="1.0" encoding="UTF-8"?>
<!--Generator: Apple Native CoreSVG 149-->
<!DOCTYPE svg
PUBLIC "-//W3C//DTD SVG 1.1//EN"
       "http://www.w3.org/Graphics/SVG/1.1/DTD/svg11.dtd">
<svg version="1.1" xmlns="http://www.w3.org/2000/svg" xmlns:xlink="http://www.w3.org/1999/xlink" width="3300" height="2200">
 <!--glyph: "uni100974.medium", point size: 100.000000, font version: "Version 16.0d12e3", template writer version: "8"-->
 <g id="Notes">
  <rect height="2200" id="artboard" style="fill:white;opacity:1" width="3300" x="0" y="0"/>
  <line id="" style="fill:none;stroke:black;opacity:1;stroke-width:0.5;" x1="263" x2="3036" y1="292" y2="292"/>
  <text style="stroke:none;fill:black;font-family:-apple-system,&quot;SF Pro Display&quot;,&quot;SF Pro Text&quot;,Helvetica,sans-serif;font-weight:bold;" transform="matrix(1 0 0 1 263 322)">Weight/Scale Variations</text>
  <text style="stroke:none;fill:black;font-family:-apple-system,&quot;SF Pro Display&quot;,&quot;SF Pro Text&quot;,Helvetica,sans-serif;text-anchor:middle;" transform="matrix(1 0 0 1 559.711 322)">Ultralight</text>
  <text style="stroke:none;fill:black;font-family:-apple-system,&quot;SF Pro Display&quot;,&quot;SF Pro Text&quot;,Helvetica,sans-serif;text-anchor:middle;" transform="matrix(1 0 0 1 856.422 322)">Thin</text>
  <text style="stroke:none;fill:black;font-family:-apple-system,&quot;SF Pro Display&quot;,&quot;SF Pro Text&quot;,Helvetica,sans-serif;text-anchor:middle;" transform="matrix(1 0 0 1 1153.13 322)">Light</text>
  <text style="stroke:none;fill:black;font-family:-apple-system,&quot;SF Pro Display&quot;,&quot;SF Pro Text&quot;,Helvetica,sans-serif;text-anchor:middle;" transform="matrix(1 0 0 1 1449.84 322)">Regular</text>
  <text style="stroke:none;fill:black;font-family:-apple-system,&quot;SF Pro Display&quot;,&quot;SF Pro Text&quot;,Helvetica,sans-serif;text-anchor:middle;" transform="matrix(1 0 0 1 1746.56 322)">Medium</text>
  <text style="stroke:none;fill:black;font-family:-apple-system,&quot;SF Pro Display&quot;,&quot;SF Pro Text&quot;,Helvetica,sans-serif;text-anchor:middle;" transform="matrix(1 0 0 1 2043.27 322)">Semibold</text>
  <text style="stroke:none;fill:black;font-family:-apple-system,&quot;SF Pro Display&quot;,&quot;SF Pro Text&quot;,Helvetica,sans-serif;text-anchor:middle;" transform="matrix(1 0 0 1 2339.98 322)">Bold</text>
  <text style="stroke:none;fill:black;font-family:-apple-system,&quot;SF Pro Display&quot;,&quot;SF Pro Text&quot;,Helvetica,sans-serif;text-anchor:middle;" transform="matrix(1 0 0 1 2636.69 322)">Heavy</text>
  <text style="stroke:none;fill:black;font-family:-apple-system,&quot;SF Pro Display&quot;,&quot;SF Pro Text&quot;,Helvetica,sans-serif;text-anchor:middle;" transform="matrix(1 0 0 1 2933.4 322)">Black</text>
  <line id="" style="fill:none;stroke:black;opacity:1;stroke-width:0.5;" x1="263" x2="3036" y1="1903" y2="1903"/>
  <g id="" transform="matrix(1 0 0 1 263 1933)">
   <path d="M9.24805 0.830078C13.5547 0.830078 17.1387-2.74414 17.1387-7.05078C17.1387-11.3574 13.5449-14.9316 9.23828-14.9316C4.94141-14.9316 1.36719-11.3574 1.36719-7.05078C1.36719-2.74414 4.95117 0.830078 9.24805 0.830078ZM9.24805-0.654297C5.70312-0.654297 2.87109-3.49609 2.87109-7.05078C2.87109-10.6055 5.69336-13.4473 9.23828-13.4473C12.793-13.4473 15.6348-10.6055 15.6445-7.05078C15.6543-3.49609 12.8027-0.654297 9.24805-0.654297ZM9.22852-3.62305C9.69727-3.62305 9.9707-3.93555 9.9707-4.45312L9.9707-6.31836L12.002-6.31836C12.5-6.31836 12.832-6.57227 12.832-7.04102C12.832-7.51953 12.5195-7.7832 12.002-7.7832L9.9707-7.7832L9.9707-9.81445C9.9707-10.332 9.69727-10.6543 9.22852-10.6543C8.75977-10.6543 8.50586-10.3125 8.50586-9.81445L8.50586-7.7832L6.49414-7.7832C5.97656-7.7832 5.64453-7.51953 5.64453-7.04102C5.64453-6.57227 5.99609-6.31836 6.49414-6.31836L8.50586-6.31836L8.50586-4.45312C8.50586-3.95508 8.75977-3.62305 9.22852-3.62305Z"/>
  </g>
  <g id="" transform="matrix(1 0 0 1 281.506 1933)">
   <path d="M11.709 2.91016C17.1582 2.91016 21.6699-1.61133 21.6699-7.05078C21.6699-12.5 17.1484-17.0117 11.6992-17.0117C6.25977-17.0117 1.74805-12.5 1.74805-7.05078C1.74805-1.61133 6.26953 2.91016 11.709 2.91016ZM11.709 1.25C7.09961 1.25 3.41797-2.44141 3.41797-7.05078C3.41797-11.6602 7.08984-15.3516 11.6992-15.3516C16.3086-15.3516 20-11.6602 20.0098-7.05078C20.0195-2.44141 16.3184 1.25 11.709 1.25ZM11.6797-2.66602C12.207-2.66602 12.5098-3.01758 12.5098-3.59375L12.5098-6.23047L15.3223-6.23047C15.8691-6.23047 16.25-6.51367 16.25-7.03125C16.25-7.55859 15.8887-7.86133 15.3223-7.86133L12.5098-7.86133L12.5098-10.6836C12.5098-11.25 12.207-11.6113 11.6797-11.6113C11.1621-11.6113 10.8789-11.2305 10.8789-10.6836L10.8789-7.86133L8.07617-7.86133C7.50977-7.86133 7.13867-7.55859 7.13867-7.03125C7.13867-6.51367 7.5293-6.23047 8.07617-6.23047L10.8789-6.23047L10.8789-3.59375C10.8789-3.03711 11.1621-2.66602 11.6797-2.66602Z"/>
  </g>
  <g id="" transform="matrix(1 0 0 1 304.924 1933)">
   <path d="M14.9707 5.66406C21.9336 5.66406 27.6953-0.0976562 27.6953-7.05078C27.6953-14.0137 21.9238-19.7754 14.9609-19.7754C8.00781-19.7754 2.25586-14.0137 2.25586-7.05078C2.25586-0.0976562 8.01758 5.66406 14.9707 5.66406ZM14.9707 3.84766C8.93555 3.84766 4.08203-1.01562 4.08203-7.05078C4.08203-13.0957 8.92578-17.9492 14.9609-17.9492C21.0059-17.9492 25.8594-13.0957 25.8691-7.05078C25.8789-1.01562 21.0156 3.84766 14.9707 3.84766ZM14.9414-1.38672C15.5176-1.38672 15.8594-1.77734 15.8594-2.38281L15.8594-6.13281L19.7754-6.13281C20.3711-6.13281 20.7812-6.46484 20.7812-7.02148C20.7812-7.59766 20.3906-7.93945 19.7754-7.93945L15.8594-7.93945L15.8594-11.8652C15.8594-12.4805 15.5176-12.8711 14.9414-12.8711C14.375-12.8711 14.0527-12.4609 14.0527-11.8652L14.0527-7.93945L10.1465-7.93945C9.53125-7.93945 9.13086-7.59766 9.13086-7.02148C9.13086-6.46484 9.55078-6.13281 10.1465-6.13281L14.0527-6.13281L14.0527-2.38281C14.0527-1.79688 14.375-1.38672 14.9414-1.38672Z"/>
  </g>
  <text style="stroke:none;fill:black;font-family:-apple-system,&quot;SF Pro Display&quot;,&quot;SF Pro Text&quot;,Helvetica,sans-serif;font-weight:bold;" transform="matrix(1 0 0 1 263 1953)">Design Variations</text>
  <text style="stroke:none;fill:black;font-family:-apple-system,&quot;SF Pro Display&quot;,&quot;SF Pro Text&quot;,Helvetica,sans-serif;" transform="matrix(1 0 0 1 263 1971)">Symbols are supported in up to nine weights and three scales.</text>
  <text style="stroke:none;fill:black;font-family:-apple-system,&quot;SF Pro Display&quot;,&quot;SF Pro Text&quot;,Helvetica,sans-serif;" transform="matrix(1 0 0 1 263 1989)">For optimal layout with text and other symbols, vertically align</text>
  <text style="stroke:none;fill:black;font-family:-apple-system,&quot;SF Pro Display&quot;,&quot;SF Pro Text&quot;,Helvetica,sans-serif;" transform="matrix(1 0 0 1 263 2007)">symbols with the adjacent text.</text>
  <line id="" style="fill:none;stroke:#00AEEF;stroke-width:0.5;opacity:1.0;" x1="776" x2="776" y1="1919" y2="1933"/>
  <g id="" transform="matrix(1 0 0 1 776 1933)">
   <path d="M3.31055 0.126953C3.82812 0.126953 4.08203-0.0683594 4.26758-0.605469L5.52734-4.0625L11.2891-4.0625L12.5488-0.605469C12.7344-0.0683594 12.9883 0.126953 13.4961 0.126953C14.0137 0.126953 14.3457-0.185547 14.3457-0.673828C14.3457-0.839844 14.3164-0.986328 14.2383-1.20117L9.6582-13.3887C9.43359-13.9941 9.0332-14.2871 8.4082-14.2871C7.80273-14.2871 7.39258-13.9941 7.17773-13.3984L2.59766-1.19141C2.51953-0.976562 2.49023-0.830078 2.49023-0.664062C2.49023-0.175781 2.80273 0.126953 3.31055 0.126953ZM6.00586-5.53711L8.37891-12.1094L8.42773-12.1094L10.8008-5.53711Z"/>
  </g>
  <line id="" style="fill:none;stroke:#00AEEF;stroke-width:0.5;opacity:1.0;" x1="792.836" x2="792.836" y1="1919" y2="1933"/>
  <text style="stroke:none;fill:black;font-family:-apple-system,&quot;SF Pro Display&quot;,&quot;SF Pro Text&quot;,Helvetica,sans-serif;font-weight:bold;" transform="matrix(1 0 0 1 776 1953)">Margins</text>
  <text style="stroke:none;fill:black;font-family:-apple-system,&quot;SF Pro Display&quot;,&quot;SF Pro Text&quot;,Helvetica,sans-serif;" transform="matrix(1 0 0 1 776 1971)">Leading and trailing margins on the left and right side of each symbol</text>
  <text style="stroke:none;fill:black;font-family:-apple-system,&quot;SF Pro Display&quot;,&quot;SF Pro Text&quot;,Helvetica,sans-serif;" transform="matrix(1 0 0 1 776 1989)">can be adjusted by modifying the x-location of the margin guidelines.</text>
  <text style="stroke:none;fill:black;font-family:-apple-system,&quot;SF Pro Display&quot;,&quot;SF Pro Text&quot;,Helvetica,sans-serif;" transform="matrix(1 0 0 1 776 2007)">Modifications are automatically applied proportionally to all</text>
  <text style="stroke:none;fill:black;font-family:-apple-system,&quot;SF Pro Display&quot;,&quot;SF Pro Text&quot;,Helvetica,sans-serif;" transform="matrix(1 0 0 1 776 2025)">scales and weights.</text>
  <g id="" transform="matrix(1 0 0 1 1289 1933)">
   <path d="M2.8418 1.86523L4.54102 3.57422C5.40039 4.44336 6.38672 4.38477 7.31445 3.35938L17.4902-7.85156C17.7539-7.76367 18.0273-7.7832 18.3398-7.8418L19.4043-8.03711L20.0684-7.36328L20.0293-6.80664C19.9902-6.30859 20.1172-5.92773 20.6055-5.44922L21.3672-4.70703C21.8457-4.22852 22.4609-4.19922 22.9297-4.66797L25.8398-7.58789C26.3086-8.05664 26.2891-8.65234 25.8105-9.13086L25.0391-9.89258C24.5605-10.3711 24.1895-10.5273 23.7109-10.4883L23.1348-10.4395L22.4902-11.0742L22.7344-12.1973C22.8613-12.7637 22.7051-13.2031 22.1191-13.7891L19.9219-15.9766C16.582-19.2969 12.1484-19.2188 9.25781-16.3281C8.83789-15.918 8.80859-15.3418 9.04297-14.9512C9.27734-14.5898 9.73633-14.3555 10.3809-14.5215C11.8457-14.8633 13.3691-14.9219 14.7949-13.9844L14.209-12.5293C14.0137-12.0508 13.9844-11.6504 14.1113-11.2891L3.04688-0.898438C2.06055 0.0195312 1.98242 0.996094 2.8418 1.86523ZM10.752-15.957C13.1836-17.7344 16.4746-17.4316 18.7012-15.2051L21.1328-12.793C21.3672-12.5586 21.4062-12.373 21.3379-12.0312L21.0156-10.5469L22.5195-9.0625L23.5059-9.12109C23.7598-9.13086 23.8379-9.11133 24.0332-8.91602L24.6094-8.33984L22.168-5.89844L21.5918-6.47461C21.3965-6.66992 21.3672-6.74805 21.377-7.01172L21.4453-7.98828L19.9512-9.47266L18.4277-9.21875C18.1055-9.15039 17.959-9.17969 17.7148-9.41406L15.7129-11.416C15.459-11.6504 15.4297-11.8164 15.5859-12.1875L16.4648-14.2773C14.9023-15.7324 12.8711-16.3574 10.8398-15.7617C10.6836-15.7227 10.625-15.8496 10.752-15.957ZM5.27344 2.30469L4.10156 1.14258C3.63281 0.683594 3.74023 0.341797 4.14062-0.0195312L14.9512-10.1953L16.416-8.71094L6.42578 2.27539C6.07422 2.67578 5.74219 2.77344 5.27344 2.30469Z"/>
  </g>
  <text style="stroke:none;fill:black;font-family:-apple-system,&quot;SF Pro Display&quot;,&quot;SF Pro Text&quot;,Helvetica,sans-serif;font-weight:bold;" transform="matrix(1 0 0 1 1289 1953)">Exporting</text>
  <text style="stroke:none;fill:black;font-family:-apple-system,&quot;SF Pro Display&quot;,&quot;SF Pro Text&quot;,Helvetica,sans-serif;" transform="matrix(1 0 0 1 1289 1971)">Symbols should be outlined when exporting to ensure the</text>
  <text style="stroke:none;fill:black;font-family:-apple-system,&quot;SF Pro Display&quot;,&quot;SF Pro Text&quot;,Helvetica,sans-serif;" transform="matrix(1 0 0 1 1289 1989)">design is preserved when submitting to Xcode.</text>
  <text id="template-version" style="stroke:none;fill:black;font-family:-apple-system,&quot;SF Pro Display&quot;,&quot;SF Pro Text&quot;,Helvetica,sans-serif;text-anchor:end;" transform="matrix(1 0 0 1 3036 1933)">Template v.2.0</text>
  <text style="stroke:none;fill:black;font-family:-apple-system,&quot;SF Pro Display&quot;,&quot;SF Pro Text&quot;,Helvetica,sans-serif;text-anchor:end;" transform="matrix(1 0 0 1 3036 1951)">Requires Xcode 12 or greater</text>
  <text style="stroke:none;fill:black;font-family:-apple-system,&quot;SF Pro Display&quot;,&quot;SF Pro Text&quot;,Helvetica,sans-serif;text-anchor:end;" transform="matrix(1 0 0 1 3036 1969)">Generated from heart.text.square</text>
  <text style="stroke:none;fill:black;font-family:-apple-system,&quot;SF Pro Display&quot;,&quot;SF Pro Text&quot;,Helvetica,sans-serif;text-anchor:end;" transform="matrix(1 0 0 1 3036 1987)">Typeset at 100 points</text>
  <text style="stroke:none;fill:black;font-family:-apple-system,&quot;SF Pro Display&quot;,&quot;SF Pro Text&quot;,Helvetica,sans-serif;" transform="matrix(1 0 0 1 263 726)">Small</text>
  <text style="stroke:none;fill:black;font-family:-apple-system,&quot;SF Pro Display&quot;,&quot;SF Pro Text&quot;,Helvetica,sans-serif;" transform="matrix(1 0 0 1 263 1156)">Medium</text>
  <text style="stroke:none;fill:black;font-family:-apple-system,&quot;SF Pro Display&quot;,&quot;SF Pro Text&quot;,Helvetica,sans-serif;" transform="matrix(1 0 0 1 263 1586)">Large</text>
 </g>
 <g id="Guides">
  <g id="H-reference" style="fill:#27AAE1;stroke:none;" transform="matrix(1 0 0 1 339 696)">
   <path d="M0.976562 0L3.66211 0L12.9883-24.4629L45.752-24.4629L55.127 0L57.7637 0L30.6152-70.459L28.125-70.459ZM29.3457-67.1387L29.4434-67.1387L44.873-26.709L13.8672-26.709Z"/>
  </g>
  <line id="Baseline-S" style="fill:none;stroke:#27AAE1;opacity:1;stroke-width:0.5;" x1="263" x2="3036" y1="696" y2="696"/>
  <line id="Capline-S" style="fill:none;stroke:#27AAE1;opacity:1;stroke-width:0.5;" x1="263" x2="3036" y1="625.541" y2="625.541"/>
  <g id="H-reference" style="fill:#27AAE1;stroke:none;" transform="matrix(1 0 0 1 339 1126)">
   <path d="M0.976562 0L3.66211 0L12.9883-24.4629L45.752-24.4629L55.127 0L57.7637 0L30.6152-70.459L28.125-70.459ZM29.3457-67.1387L29.4434-67.1387L44.873-26.709L13.8672-26.709Z"/>
  </g>
  <line id="Baseline-M" style="fill:none;stroke:#27AAE1;opacity:1;stroke-width:0.5;" x1="263" x2="3036" y1="1126" y2="1126"/>
  <line id="Capline-M" style="fill:none;stroke:#27AAE1;opacity:1;stroke-width:0.5;" x1="263" x2="3036" y1="1055.54" y2="1055.54"/>
  <g id="H-reference" style="fill:#27AAE1;stroke:none;" transform="matrix(1 0 0 1 339 1556)">
   <path d="M0.976562 0L3.66211 0L12.9883-24.4629L45.752-24.4629L55.127 0L57.7637 0L30.6152-70.459L28.125-70.459ZM29.3457-67.1387L29.4434-67.1387L44.873-26.709L13.8672-26.709Z"/>
  </g>
  <line id="Baseline-L" style="fill:none;stroke:#27AAE1;opacity:1;stroke-width:0.5;" x1="263" x2="3036" y1="1556" y2="1556"/>
  <line id="Capline-L" style="fill:none;stroke:#27AAE1;opacity:1;stroke-width:0.5;" x1="263" x2="3036" y1="1485.54" y2="1485.54"/>
  <line id="left-margin" style="fill:none;stroke:#00AEEF;stroke-width:0.5;opacity:1.0;" x1="1392.45" x2="1392.45" y1="1030.79" y2="1150.12"/>
  <line id="right-margin" style="fill:none;stroke:#00AEEF;stroke-width:0.5;opacity:1.0;" x1="1507.24" x2="1507.24" y1="1030.79" y2="1150.12"/>
 </g>
 <g id="Symbols">
  <g id="Black-L" transform="matrix(1 0 0 1 2855.62 1556)">
   <path d="M39.9902 26.5137L115.576 26.5137C130.811 26.5137 139.502 17.8711 139.502 2.68555L139.502-73.0957C139.502-88.2812 130.811-96.875 115.576-96.875L39.9902-96.875C24.7559-96.875 16.0645-88.2812 16.0645-73.0957L16.0645 2.68555C16.0645 17.8711 24.7559 26.5137 39.9902 26.5137ZM42.6758 6.29883C38.4766 6.29883 36.3281 4.39453 36.3281-0.146484L36.3281-70.2148C36.3281-74.7559 38.4766-76.6602 42.6758-76.6602L112.842-76.6602C117.09-76.6602 119.238-74.7559 119.238-70.2148L119.238-0.146484C119.238 4.39453 117.09 6.29883 112.842 6.29883ZM54.0527-67.2852C49.7559-67.2852 46.1426-63.7695 46.1426-58.4961C46.1426-49.6582 56.3477-43.3105 58.9355-41.6504C59.5215-41.3086 60.1562-40.9668 60.7422-40.9668C61.3281-40.9668 62.0117-41.4062 62.5488-41.6504C65.1367-43.0176 75.3418-49.6582 75.3418-58.4961C75.3418-63.7695 71.8262-67.2852 67.334-67.2852C64.209-67.2852 61.9141-65.3809 60.7422-63.3301C59.5703-65.3809 57.3242-67.2852 54.0527-67.2852ZM50.7324-23.3887L104.932-23.3887C107.471-23.3887 109.424-25.4395 109.424-27.9785C109.424-30.4688 107.471-32.4219 104.932-32.4219L50.7324-32.4219C48.0469-32.4219 46.1426-30.4688 46.1426-27.9785C46.1426-25.4395 48.0469-23.3887 50.7324-23.3887ZM50.7324-5.17578L92.1875-5.17578C94.7754-5.17578 96.6797-7.08008 96.6797-9.57031C96.6797-12.1582 94.7754-14.1602 92.1875-14.1602L50.7324-14.1602C48.0469-14.1602 46.1426-12.1582 46.1426-9.57031C46.1426-7.08008 48.0469-5.17578 50.7324-5.17578Z"/>
  </g>
  <g id="Heavy-L" transform="matrix(1 0 0 1 2559.93 1556)">
   <path d="M38.8184 25.4883L114.697 25.4883C129.346 25.4883 137.451 17.4316 137.451 2.88086L137.451-73.2422C137.451-87.793 129.346-95.8496 114.697-95.8496L38.8184-95.8496C24.2188-95.8496 16.0645-87.793 16.0645-73.2422L16.0645 2.88086C16.0645 17.4316 24.2188 25.4883 38.8184 25.4883ZM40.918 8.00781C36.084 8.00781 33.5938 5.71289 33.5938 0.585938L33.5938-70.9473C33.5938-76.0742 36.084-78.3691 40.918-78.3691L112.549-78.3691C117.383-78.3691 119.922-76.0742 119.922-70.9473L119.922 0.585938C119.922 5.71289 117.383 8.00781 112.549 8.00781ZM52.5879-68.2617C48.0469-68.2617 44.3848-64.6484 44.3848-59.3262C44.3848-50.5859 54.3457-43.9453 57.7637-41.6992C58.3496-41.3574 58.9844-41.0645 59.5215-41.0645C60.0586-41.0645 60.6934-41.4062 61.2305-41.6992C64.6484-43.6523 74.5605-50.5859 74.5605-59.3262C74.5605-64.6484 70.9961-68.2617 66.3086-68.2617C63.1348-68.2617 60.7422-66.3574 59.4727-64.1113C58.252-66.3574 55.8594-68.2617 52.5879-68.2617ZM48.6816-23.3398L104.883-23.3398C107.324-23.3398 109.131-25.2441 109.131-27.6855C109.131-30.0293 107.324-31.8359 104.883-31.8359L48.6816-31.8359C46.1914-31.8359 44.3848-30.0293 44.3848-27.6855C44.3848-25.2441 46.1914-23.3398 48.6816-23.3398ZM48.6816-4.39453L91.1621-4.39453C93.5547-4.39453 95.4102-6.20117 95.4102-8.59375C95.4102-10.9863 93.5547-12.8906 91.1621-12.8906L48.6816-12.8906C46.1914-12.8906 44.3848-10.9863 44.3848-8.59375C44.3848-6.20117 46.1914-4.39453 48.6816-4.39453Z"/>
  </g>
  <g id="Bold-L" transform="matrix(1 0 0 1 2264.37 1556)">
   <path d="M37.5 24.3652L113.721 24.3652C127.637 24.3652 135.156 16.8945 135.156 3.07617L135.156-73.3887C135.156-87.207 127.637-94.7266 113.721-94.7266L37.5-94.7266C23.6328-94.7266 16.0645-87.2559 16.0645-73.3887L16.0645 3.07617C16.0645 16.8945 23.6328 24.3652 37.5 24.3652ZM38.9648 9.91211C33.4473 9.91211 30.5176 7.17773 30.5176 1.41602L30.5176-71.7285C30.5176-77.5391 33.4473-80.2734 38.9648-80.2734L112.256-80.2734C117.725-80.2734 120.703-77.5391 120.703-71.7285L120.703 1.41602C120.703 7.17773 117.725 9.91211 112.256 9.91211ZM50.8789-69.4336C46.0938-69.4336 42.3828-65.625 42.3828-60.2539C42.3828-51.5625 52.0996-44.6289 56.4453-41.7969C57.0312-41.4062 57.6172-41.1133 58.1055-41.1133C58.5938-41.1133 59.1797-41.4551 59.7168-41.7969C64.1113-44.3359 73.7305-51.5625 73.7305-60.2539C73.7305-65.625 70.0684-69.4336 65.1367-69.4336C61.9629-69.4336 59.4238-67.4316 58.0566-65.0391C56.7383-67.4316 54.248-69.4336 50.8789-69.4336ZM46.4355-23.291L104.883-23.291C107.129-23.291 108.838-25.0488 108.838-27.2949C108.838-29.4922 107.129-31.2012 104.883-31.2012L46.4355-31.2012C44.0918-31.2012 42.3828-29.4922 42.3828-27.2949C42.3828-25.0488 44.0918-23.291 46.4355-23.291ZM46.4355-3.56445L89.9902-3.56445C92.2363-3.56445 93.9453-5.27344 93.9453-7.42188C93.9453-9.66797 92.2363-11.4746 89.9902-11.4746L46.4355-11.4746C44.0918-11.4746 42.3828-9.66797 42.3828-7.42188C42.3828-5.27344 44.0918-3.56445 46.4355-3.56445Z"/>
  </g>
  <g id="Semibold-L" transform="matrix(1 0 0 1 1968.44 1556)">
   <path d="M36.6211 23.584L113.037 23.584C126.514 23.584 133.594 16.5039 133.594 3.17383L133.594-73.5352C133.594-86.8164 126.514-93.9453 113.037-93.9453L36.6211-93.9453C23.1934-93.9453 16.0645-86.8652 16.0645-73.5352L16.0645 3.17383C16.0645 16.5527 23.1934 23.584 36.6211 23.584ZM37.5977 11.2793C31.6406 11.2793 28.418 8.20312 28.418 1.95312L28.418-72.3145C28.418-78.5156 31.6406-81.5918 37.5977-81.5918L112.061-81.5918C117.969-81.5918 121.24-78.5156 121.24-72.3145L121.24 1.95312C121.24 8.20312 117.969 11.2793 112.061 11.2793ZM49.7559-70.2148C44.7754-70.2148 41.0156-66.3086 41.0156-60.8887C41.0156-52.2461 50.5371-45.1172 55.5664-41.7969C56.1035-41.4551 56.6895-41.1621 57.1289-41.1621C57.5684-41.1621 58.1543-41.5039 58.6914-41.7969C63.7207-44.8242 73.1445-52.2461 73.1445-60.8887C73.1445-66.3086 69.3848-70.2148 64.3555-70.2148C61.1328-70.2148 58.4961-68.2129 57.0801-65.625C55.6641-68.2129 53.125-70.2148 49.7559-70.2148ZM44.873-23.2422L104.883-23.2422C107.031-23.2422 108.643-24.9512 108.643-27.0508C108.643-29.1504 107.031-30.7617 104.883-30.7617L44.873-30.7617C42.627-30.7617 41.0156-29.1504 41.0156-27.0508C41.0156-24.9512 42.627-23.2422 44.873-23.2422ZM44.873-2.97852L89.1602-2.97852C91.3086-2.97852 92.9199-4.58984 92.9199-6.64062C92.9199-8.78906 91.3086-10.4492 89.1602-10.4492L44.873-10.4492C42.627-10.4492 41.0156-8.78906 41.0156-6.64062C41.0156-4.58984 42.627-2.97852 44.873-2.97852Z"/>
  </g>
  <g id="Medium-L" transform="matrix(1 0 0 1 1672.31 1556)">
   <path d="M35.9375 22.998L112.5 22.998C125.635 22.998 132.422 16.2109 132.422 3.27148L132.422-73.6328C132.422-86.5234 125.635-93.3105 112.5-93.3105L35.9375-93.3105C22.9004-93.3105 16.0645-86.5723 16.0645-73.6328L16.0645 3.27148C16.0645 16.2598 22.9004 22.998 35.9375 22.998ZM36.5723 12.2559C30.2246 12.2559 26.8066 8.98438 26.8066 2.39258L26.8066-72.7051C26.8066-79.2969 30.2246-82.6172 36.5723-82.6172L111.865-82.6172C118.115-82.6172 121.68-79.2969 121.68-72.7051L121.68 2.39258C121.68 8.98438 118.115 12.2559 111.865 12.2559ZM48.877-70.8008C43.7988-70.8008 39.9902-66.7969 39.9902-61.377C39.9902-52.7832 49.3164-45.459 54.8828-41.8457C55.4199-41.5039 56.0059-41.2109 56.3965-41.2109C56.8359-41.2109 57.373-41.5039 57.9102-41.8457C63.4277-45.2148 72.7051-52.7832 72.7051-61.377C72.7051-66.7969 68.8965-70.8008 63.7207-70.8008C60.498-70.8008 57.8125-68.7988 56.3477-66.1133C54.8828-68.7988 52.2949-70.8008 48.877-70.8008ZM43.6523-23.2422L104.834-23.2422C106.934-23.2422 108.447-24.8535 108.447-26.8555C108.447-28.8574 106.934-30.4199 104.834-30.4199L43.6523-30.4199C41.5527-30.4199 39.9902-28.8574 39.9902-26.8555C39.9902-24.8535 41.5527-23.2422 43.6523-23.2422ZM43.6523-2.53906L88.5254-2.53906C90.625-2.53906 92.1387-4.10156 92.1387-6.05469C92.1387-8.10547 90.625-9.7168 88.5254-9.7168L43.6523-9.7168C41.5527-9.7168 39.9902-8.10547 39.9902-6.05469C39.9902-4.10156 41.5527-2.53906 43.6523-2.53906Z"/>
  </g>
  <g id="Regular-L" transform="matrix(1 0 0 1 1376.38 1556)">
   <path d="M35.0586 22.2168L111.816 22.2168C124.463 22.2168 130.859 15.8691 130.859 3.41797L130.859-73.7305C130.859-86.1816 124.463-92.5293 111.816-92.5293L35.0586-92.5293C22.4609-92.5293 16.0645-86.2305 16.0645-73.7305L16.0645 3.41797C16.0645 15.918 22.4609 22.2168 35.0586 22.2168ZM35.2539 13.5742C28.418 13.5742 24.707 9.96094 24.707 2.97852L24.707-73.291C24.707-80.2734 28.418-83.8867 35.2539-83.8867L111.67-83.8867C118.359-83.8867 122.217-80.2734 122.217-73.291L122.217 2.97852C122.217 9.96094 118.359 13.5742 111.67 13.5742ZM47.7539-71.582C42.4805-71.582 38.6719-67.4805 38.6719-62.0117C38.6719-53.4668 47.8027-45.9473 54.0039-41.8945C54.4922-41.5527 55.0781-41.2598 55.4688-41.2598C55.8594-41.2598 56.3477-41.5527 56.8848-41.8945C63.0859-45.7031 72.168-53.4668 72.168-62.0117C72.168-67.4805 68.2617-71.582 62.9395-71.582C59.668-71.582 56.9336-69.5312 55.4199-66.6992C53.8574-69.5312 51.1719-71.582 47.7539-71.582ZM42.1387-23.1934L104.834-23.1934C106.787-23.1934 108.252-24.707 108.252-26.6113C108.252-28.5156 106.787-29.9805 104.834-29.9805L42.1387-29.9805C40.1367-29.9805 38.6719-28.5156 38.6719-26.6113C38.6719-24.707 40.1367-23.1934 42.1387-23.1934ZM42.1387-1.95312L87.7441-1.95312C89.6973-1.95312 91.1621-3.41797 91.1621-5.32227C91.1621-7.22656 89.6973-8.74023 87.7441-8.74023L42.1387-8.74023C40.1367-8.74023 38.6719-7.22656 38.6719-5.32227C38.6719-3.41797 40.1367-1.95312 42.1387-1.95312Z"/>
  </g>
  <g id="Light-L" transform="matrix(1 0 0 1 1080.5 1556)">
   <path d="M34.0332 21.4355L111.23 21.4355C123.096 21.4355 129.199 15.2344 129.199 3.56445L129.199-73.8281C129.199-85.5469 123.096-91.6992 111.23-91.6992L34.0332-91.6992C22.168-91.6992 16.0645-85.6445 16.0645-73.8281L16.0645 3.56445C16.0645 15.3809 22.168 21.4355 34.0332 21.4355ZM34.1797 14.7949C26.709 14.7949 22.7051 10.8398 22.7051 3.22266L22.7051-73.4863C22.7051-81.1523 26.709-85.0586 34.1797-85.0586L111.035-85.0586C118.359-85.0586 122.559-81.1523 122.559-73.4863L122.559 3.22266C122.559 10.8398 118.359 14.7949 111.035 14.7949ZM47.2168-71.3379C41.8945-71.3379 38.0371-67.2363 38.0371-61.7676C38.0371-52.832 47.6074-44.8242 53.7109-41.2109C54.1992-40.918 54.6387-40.625 55.0293-40.625C55.3223-40.625 55.8105-40.8691 56.2988-41.2109C62.2559-44.7754 71.9238-52.832 71.9238-61.7676C71.9238-67.2363 68.0176-71.3379 62.6465-71.3379C59.3262-71.3379 56.4941-69.1895 54.9805-66.4551C53.4668-69.1895 50.6836-71.3379 47.2168-71.3379ZM40.8203-22.998L104.443-22.998C106.055-22.998 107.227-24.2188 107.227-25.7324C107.227-27.2461 106.055-28.418 104.443-28.418L40.8203-28.418C39.209-28.418 38.0371-27.2461 38.0371-25.7324C38.0371-24.2188 39.209-22.998 40.8203-22.998ZM40.8203-2.14844L86.6699-2.14844C88.2324-2.14844 89.4043-3.32031 89.4043-4.83398C89.4043-6.39648 88.2324-7.56836 86.6699-7.56836L40.8203-7.56836C39.209-7.56836 38.0371-6.39648 38.0371-4.83398C38.0371-3.32031 39.209-2.14844 40.8203-2.14844Z"/>
  </g>
  <g id="Thin-L" transform="matrix(1 0 0 1 784.889 1556)">
   <path d="M32.666 20.3613L110.352 20.3613C121.24 20.3613 127.002 14.4531 127.002 3.75977L127.002-73.9746C127.002-84.7168 121.24-90.5762 110.352-90.5762L32.666-90.5762C21.7773-90.5762 16.0645-84.8633 16.0645-73.9746L16.0645 3.75977C16.0645 14.6484 21.7773 20.3613 32.666 20.3613ZM32.8125 16.4062C24.4141 16.4062 19.9707 12.0117 19.9707 3.56445L19.9707-73.7793C19.9707-82.2754 24.4141-86.6699 32.8125-86.6699L110.205-86.6699C118.359-86.6699 123.047-82.2754 123.047-73.7793L123.047 3.56445C123.047 12.0117 118.359 16.4062 110.205 16.4062ZM46.4844-71.0449C41.1133-71.0449 37.207-66.8945 37.207-61.4746C37.207-52.002 47.4121-43.3594 53.3691-40.2832C53.7598-40.0879 54.1016-39.8438 54.4434-39.8438C54.6875-39.8438 55.0781-39.9902 55.5176-40.2832C61.1328-43.6035 71.6309-52.002 71.6309-61.4746C71.6309-66.8945 67.627-71.0449 62.2559-71.0449C58.8379-71.0449 55.957-68.75 54.3945-66.1621C52.9297-68.75 50-71.0449 46.4844-71.0449ZM39.1113-22.7051L103.955-22.7051C105.029-22.7051 105.859-23.5352 105.859-24.5605C105.859-25.5859 105.029-26.416 103.955-26.416L39.1113-26.416C38.0371-26.416 37.207-25.5859 37.207-24.5605C37.207-23.5352 38.0371-22.7051 39.1113-22.7051ZM39.1113-2.39258L85.2051-2.39258C86.2793-2.39258 87.1094-3.22266 87.1094-4.24805C87.1094-5.27344 86.2793-6.05469 85.2051-6.05469L39.1113-6.05469C38.0371-6.05469 37.207-5.27344 37.207-4.24805C37.207-3.22266 38.0371-2.39258 39.1113-2.39258Z"/>
  </g>
  <g id="Ultralight-L" transform="matrix(1 0 0 1 488.739 1556)">
   <path d="M31.9824 19.7754L109.961 19.7754C120.312 19.7754 125.879 14.0625 125.879 3.85742L125.879-74.0723C125.879-84.2773 120.312-89.9902 109.961-89.9902L31.9824-89.9902C21.582-89.9902 16.0645-84.4727 16.0645-74.0723L16.0645 3.85742C16.0645 14.2578 21.582 19.7754 31.9824 19.7754ZM32.1289 17.2363C23.1934 17.2363 18.6035 12.6465 18.6035 3.75977L18.6035-73.9258C18.6035-82.8125 23.1934-87.4512 32.1289-87.4512L109.766-87.4512C118.359-87.4512 123.291-82.8125 123.291-73.9258L123.291 3.75977C123.291 12.6465 118.359 17.2363 109.766 17.2363ZM46.1426-70.8984C40.7227-70.8984 36.7676-66.6992 36.7676-61.3281C36.7676-51.5625 47.3145-42.627 53.2227-39.7949C53.5156-39.6484 53.8086-39.4043 54.1016-39.4043C54.3457-39.4043 54.7363-39.5508 55.127-39.7949C60.5957-43.0176 71.4844-51.5625 71.4844-61.3281C71.4844-66.6992 67.4316-70.8984 62.0605-70.8984C58.5449-70.8984 55.6641-68.5547 54.1016-66.0156C52.6855-68.5547 49.6582-70.8984 46.1426-70.8984ZM38.2324-22.5586L103.662-22.5586C104.541-22.5586 105.176-23.1934 105.176-23.9746C105.176-24.707 104.541-25.3418 103.662-25.3418L38.2324-25.3418C37.4023-25.3418 36.7676-24.707 36.7676-23.9746C36.7676-23.1934 37.4023-22.5586 38.2324-22.5586ZM38.2324-2.53906L84.4727-2.53906C85.3027-2.53906 85.9375-3.17383 85.9375-3.90625C85.9375-4.6875 85.3027-5.32227 84.4727-5.32227L38.2324-5.32227C37.4023-5.32227 36.7676-4.6875 36.7676-3.90625C36.7676-3.17383 37.4023-2.53906 38.2324-2.53906Z"/>
  </g>
  <g id="Black-M" transform="matrix(1 0 0 1 2872.19 1126)">
   <path d="M31.9824 13.5742L90.4297 13.5742C102.686 13.5742 109.961 6.29883 109.961-5.95703L109.961-64.4043C109.961-76.6602 102.686-83.9355 90.4297-83.9355L31.9824-83.9355C19.7266-83.9355 12.4512-76.6602 12.4512-64.4043L12.4512-5.95703C12.4512 6.29883 19.7266 13.5742 31.9824 13.5742ZM34.9121-4.73633C32.0801-4.73633 30.7617-5.81055 30.7617-8.88672L30.7617-61.4746C30.7617-64.5508 32.0801-65.6738 34.9121-65.6738L87.5-65.6738C90.332-65.6738 91.6504-64.5508 91.6504-61.4746L91.6504-8.88672C91.6504-5.81055 90.332-4.73633 87.5-4.73633ZM43.6523-58.5938C40.5273-58.5938 37.793-56.0547 37.793-52.0508C37.793-44.873 46.3379-40.0879 47.1191-39.7949C47.5098-39.5508 48.0469-39.2578 48.5352-39.2578C49.0234-39.2578 49.6094-39.5996 49.9512-39.7949C50.6836-39.9414 59.2773-44.873 59.2773-52.0508C59.2773-56.0547 56.6406-58.5938 53.418-58.5938C51.0254-58.5938 49.3164-57.0801 48.5352-55.8105C47.8027-57.0801 46.1426-58.5938 43.6523-58.5938ZM41.3574-26.0254L81.1035-26.0254C83.1055-26.0254 84.6191-27.5879 84.6191-29.5898C84.6191-31.4941 83.1055-33.0078 81.1035-33.0078L41.3574-33.0078C39.3066-33.0078 37.793-31.4941 37.793-29.5898C37.793-27.5879 39.3066-26.0254 41.3574-26.0254ZM41.3574-13.0371L72.2656-13.0371C74.2676-13.0371 75.7812-14.5508 75.7812-16.4551C75.7812-18.457 74.2676-20.0195 72.2656-20.0195L41.3574-20.0195C39.3066-20.0195 37.793-18.457 37.793-16.4551C37.793-14.5508 39.3066-13.0371 41.3574-13.0371Z"/>
  </g>
  <g id="Heavy-M" transform="matrix(1 0 0 1 2576.39 1126)">
   <path d="M31.0059 12.6465L89.6484 12.6465C101.416 12.6465 108.154 5.9082 108.154-5.81055L108.154-64.5508C108.154-76.2695 101.416-83.0566 89.6484-83.0566L31.0059-83.0566C19.2383-83.0566 12.4512-76.3184 12.4512-64.5508L12.4512-5.81055C12.4512 5.9082 19.2383 12.6465 31.0059 12.6465ZM33.252-3.17383C29.9316-3.17383 28.2715-4.63867 28.2715-8.1543L28.2715-62.207C28.2715-65.7715 29.9316-67.2363 33.252-67.2363L87.3535-67.2363C90.6738-67.2363 92.334-65.7715 92.334-62.207L92.334-8.1543C92.334-4.63867 90.6738-3.17383 87.3535-3.17383ZM42.1387-59.7168C38.8184-59.7168 36.0352-57.0801 36.0352-53.0273C36.0352-45.9961 44.1406-41.0156 45.8984-39.9902C46.3379-39.7461 46.8262-39.502 47.2656-39.502C47.7539-39.502 48.291-39.7949 48.6816-39.9902C50.3418-40.8691 58.4961-45.9961 58.4961-53.0273C58.4961-57.0801 55.8105-59.7168 52.3926-59.7168C49.9512-59.7168 48.1445-58.252 47.2656-56.7383C46.4355-58.252 44.6777-59.7168 42.1387-59.7168ZM39.4531-26.0254L81.2012-26.0254C83.1543-26.0254 84.5703-27.5391 84.5703-29.4434C84.5703-31.3477 83.1543-32.7637 81.2012-32.7637L39.4531-32.7637C37.5-32.7637 36.0352-31.3477 36.0352-29.4434C36.0352-27.5391 37.5-26.0254 39.4531-26.0254ZM39.4531-12.1582L71.4355-12.1582C73.3398-12.1582 74.8047-13.623 74.8047-15.4785C74.8047-17.4316 73.3398-18.8965 71.4355-18.8965L39.4531-18.8965C37.5-18.8965 36.0352-17.4316 36.0352-15.4785C36.0352-13.623 37.5-12.1582 39.4531-12.1582Z"/>
  </g>
  <g id="Bold-M" transform="matrix(1 0 0 1 2280.68 1126)">
   <path d="M29.8828 11.6699L88.7207 11.6699C99.9512 11.6699 106.152 5.46875 106.152-5.66406L106.152-64.6973C106.152-75.8789 99.9512-82.0312 88.7207-82.0312L29.8828-82.0312C18.6523-82.0312 12.4512-75.8789 12.4512-64.6973L12.4512-5.66406C12.4512 5.51758 18.6523 11.6699 29.8828 11.6699ZM31.3965-1.41602C27.5391-1.41602 25.5371-3.27148 25.5371-7.32422L25.5371-63.0371C25.5371-67.1387 27.5391-68.9453 31.3965-68.9453L87.207-68.9453C91.0156-68.9453 93.0664-67.1387 93.0664-63.0371L93.0664-7.32422C93.0664-3.27148 91.0156-1.41602 87.207-1.41602ZM40.4785-61.0352C36.9141-61.0352 34.0332-58.2031 34.0332-54.0527C34.0332-47.3145 41.748-42.1387 44.5312-40.2832C44.9707-39.9902 45.459-39.7461 45.8984-39.7461C46.2891-39.7461 46.7773-40.0391 47.2168-40.2832C50-41.8945 57.666-47.3145 57.666-54.0527C57.666-58.2031 54.8828-61.0352 51.1719-61.0352C48.7305-61.0352 46.8262-59.5215 45.8496-57.7637C44.873-59.5215 43.0176-61.0352 40.4785-61.0352ZM37.3535-26.0254L81.2988-26.0254C83.1543-26.0254 84.5703-27.4902 84.5703-29.3457C84.5703-31.1035 83.1543-32.5195 81.2988-32.5195L37.3535-32.5195C35.4492-32.5195 34.0332-31.1035 34.0332-29.3457C34.0332-27.4902 35.4492-26.0254 37.3535-26.0254ZM37.3535-11.1816L70.459-11.1816C72.3145-11.1816 73.7305-12.5977 73.7305-14.4043C73.7305-16.2598 72.3145-17.6758 70.459-17.6758L37.3535-17.6758C35.4492-17.6758 34.0332-16.2598 34.0332-14.4043C34.0332-12.5977 35.4492-11.1816 37.3535-11.1816Z"/>
  </g>
  <g id="Semibold-M" transform="matrix(1 0 0 1 1984.65 1126)">
   <path d="M29.1016 10.9863L88.0859 10.9863C98.9746 10.9863 104.785 5.17578 104.785-5.56641L104.785-64.8438C104.785-75.5859 98.9746-81.3477 88.0859-81.3477L29.1016-81.3477C18.2617-81.3477 12.4512-75.5859 12.4512-64.8438L12.4512-5.56641C12.4512 5.22461 18.2617 10.9863 29.1016 10.9863ZM30.127-0.195312C25.8789-0.195312 23.6328-2.34375 23.6328-6.78711L23.6328-63.623C23.6328-68.0664 25.8789-70.166 30.127-70.166L87.1094-70.166C91.2598-70.166 93.6035-68.0664 93.6035-63.623L93.6035-6.78711C93.6035-2.34375 91.2598-0.195312 87.1094-0.195312ZM39.3066-61.9629C35.5957-61.9629 32.7148-58.9844 32.7148-54.834C32.7148-48.1934 40.0391-42.8711 43.6035-40.4785C44.043-40.1855 44.5312-39.9414 44.9219-39.9414C45.3125-39.9414 45.752-40.2344 46.1914-40.4785C49.7559-42.5781 57.0801-48.1934 57.0801-54.834C57.0801-58.9844 54.1992-61.9629 50.3906-61.9629C47.9004-61.9629 45.9473-60.4492 44.873-58.4961C43.7988-60.4492 41.8945-61.9629 39.3066-61.9629ZM35.9375-26.0254L81.3477-26.0254C83.1543-26.0254 84.5215-27.4414 84.5215-29.248C84.5215-30.957 83.1543-32.3242 81.3477-32.3242L35.9375-32.3242C34.0332-32.3242 32.7148-30.957 32.7148-29.248C32.7148-27.4414 34.0332-26.0254 35.9375-26.0254ZM35.9375-10.498L69.7754-10.498C71.582-10.498 72.9492-11.8652 72.9492-13.623C72.9492-15.4297 71.582-16.8457 69.7754-16.8457L35.9375-16.8457C34.0332-16.8457 32.7148-15.4297 32.7148-13.623C32.7148-11.8652 34.0332-10.498 35.9375-10.498Z"/>
  </g>
  <g id="Medium-M" transform="matrix(1 0 0 1 1688.47 1126)">
   <path d="M28.5156 10.4492L87.6465 10.4492C98.2422 10.4492 103.711 4.98047 103.711-5.46875L103.711-64.8926C103.711-75.3418 98.2422-80.8105 87.6465-80.8105L28.5156-80.8105C17.9688-80.8105 12.4512-75.3906 12.4512-64.8926L12.4512-5.46875C12.4512 4.98047 17.9688 10.4492 28.5156 10.4492ZM29.1504 0.732422C24.6582 0.732422 22.168-1.61133 22.168-6.34766L22.168-64.0137C22.168-68.75 24.6582-71.0938 29.1504-71.0938L87.0117-71.0938C91.4551-71.0938 93.9941-68.75 93.9941-64.0137L93.9941-6.34766C93.9941-1.61133 91.4551 0.732422 87.0117 0.732422ZM38.4277-62.6465C34.5703-62.6465 31.6406-59.5703 31.6406-55.3711C31.6406-48.877 38.7695-43.457 42.9199-40.625C43.3594-40.2832 43.8477-40.0879 44.1895-40.0879C44.5312-40.0879 44.9707-40.332 45.4102-40.625C49.6094-43.1152 56.6406-48.877 56.6406-55.3711C56.6406-59.5703 53.7109-62.6465 49.7559-62.6465C47.2656-62.6465 45.2637-61.1328 44.1406-59.0332C43.0176-61.1328 41.0645-62.6465 38.4277-62.6465ZM34.8145-26.0254L81.3965-26.0254C83.2031-26.0254 84.5215-27.3926 84.5215-29.1504C84.5215-30.8594 83.2031-32.1777 81.3965-32.1777L34.8145-32.1777C33.0078-32.1777 31.6406-30.8594 31.6406-29.1504C31.6406-27.3926 33.0078-26.0254 34.8145-26.0254ZM34.8145-10.0098L69.2871-10.0098C71.0449-10.0098 72.3633-11.3281 72.3633-13.0371C72.3633-14.7949 71.0449-16.2109 69.2871-16.2109L34.8145-16.2109C33.0078-16.2109 31.6406-14.7949 31.6406-13.0371C31.6406-11.3281 33.0078-10.0098 34.8145-10.0098Z"/>
  </g>
  <g id="Regular-M" transform="matrix(1 0 0 1 1392.45 1126)">
   <path d="M27.7832 9.76562L87.0117 9.76562C97.2656 9.76562 102.344 4.6875 102.344-5.37109L102.344-64.9902C102.344-75.0488 97.2656-80.127 87.0117-80.127L27.7832-80.127C17.5781-80.127 12.4512-75.0977 12.4512-64.9902L12.4512-5.37109C12.4512 4.73633 17.5781 9.76562 27.7832 9.76562ZM27.8809 1.9043C22.998 1.9043 20.3125-0.683594 20.3125-5.76172L20.3125-64.5996C20.3125-69.6777 22.998-72.2656 27.8809-72.2656L86.9141-72.2656C91.748-72.2656 94.4824-69.6777 94.4824-64.5996L94.4824-5.76172C94.4824-0.683594 91.748 1.9043 86.9141 1.9043ZM37.3047-63.5254C33.252-63.5254 30.3223-60.3516 30.3223-56.1035C30.3223-49.7559 37.1582-44.1895 41.9922-40.7715C42.4316-40.4785 42.9199-40.2344 43.2129-40.2344C43.5547-40.2344 43.9453-40.5273 44.4336-40.7715C49.3652-43.8477 56.0547-49.7559 56.0547-56.1035C56.0547-60.3516 53.0762-63.5254 48.9258-63.5254C46.4355-63.5254 44.3848-62.0117 43.1641-59.7656C41.9434-62.0117 39.9414-63.5254 37.3047-63.5254ZM33.3984-26.0254L81.4941-26.0254C83.2031-26.0254 84.4727-27.3438 84.4727-29.0527C84.4727-30.7129 83.2031-32.0312 81.4941-32.0312L33.3984-32.0312C31.5918-32.0312 30.3223-30.7129 30.3223-29.0527C30.3223-27.3438 31.5918-26.0254 33.3984-26.0254ZM33.3984-9.32617L68.6035-9.32617C70.3613-9.32617 71.6309-10.6445 71.6309-12.3047C71.6309-14.0137 70.3613-15.332 68.6035-15.332L33.3984-15.332C31.5918-15.332 30.3223-14.0137 30.3223-12.3047C30.3223-10.6445 31.5918-9.32617 33.3984-9.32617Z"/>
  </g>
  <g id="Light-M" transform="matrix(1 0 0 1 1096.47 1126)">
   <path d="M26.8555 9.0332L86.4746 9.0332C95.9961 9.0332 100.879 4.15039 100.879-5.22461L100.879-65.0879C100.879-74.5117 95.9961-79.3945 86.4746-79.3945L26.8555-79.3945C17.334-79.3945 12.4512-74.5605 12.4512-65.0879L12.4512-5.22461C12.4512 4.19922 17.334 9.0332 26.8555 9.0332ZM26.9531 2.97852C21.4844 2.97852 18.5059 0.0976562 18.5059-5.56641L18.5059-64.7949C18.5059-70.4102 21.4844-73.3398 26.9531-73.3398L86.3281-73.3398C91.748-73.3398 94.8242-70.4102 94.8242-64.7949L94.8242-5.56641C94.8242 0.0976562 91.748 2.97852 86.3281 2.97852ZM36.8164-63.3301C32.7637-63.3301 29.7363-60.1562 29.7363-55.9082C29.7363-49.1699 36.9629-43.1641 41.748-40.1855C42.1387-39.8926 42.5293-39.6973 42.8223-39.6973C43.1152-39.6973 43.5059-39.8926 43.8965-40.1855C48.6328-43.0176 55.8594-49.1699 55.8594-55.9082C55.8594-60.1562 52.832-63.3301 48.6816-63.3301C46.1426-63.3301 43.9941-61.7188 42.7734-59.5703C41.6016-61.7188 39.502-63.3301 36.8164-63.3301ZM32.2266-25.8301L81.1035-25.8301C82.5195-25.8301 83.5449-26.9043 83.5449-28.2715C83.5449-29.5898 82.5195-30.6641 81.1035-30.6641L32.2266-30.6641C30.8105-30.6641 29.7363-29.5898 29.7363-28.2715C29.7363-26.9043 30.8105-25.8301 32.2266-25.8301ZM32.2266-9.52148L67.627-9.52148C69.043-9.52148 70.0684-10.5469 70.0684-11.8652C70.0684-13.2324 69.043-14.3066 67.627-14.3066L32.2266-14.3066C30.8105-14.3066 29.7363-13.2324 29.7363-11.8652C29.7363-10.5469 30.8105-9.52148 32.2266-9.52148Z"/>
  </g>
  <g id="Thin-M" transform="matrix(1 0 0 1 800.758 1126)">
   <path d="M25.6348 8.05664L85.7422 8.05664C94.3848 8.05664 98.877 3.4668 98.877-5.0293L98.877-65.2344C98.877-73.7305 94.3848-78.3691 85.7422-78.3691L25.6348-78.3691C16.9922-78.3691 12.4512-73.877 12.4512-65.2344L12.4512-5.0293C12.4512 3.56445 16.9922 8.05664 25.6348 8.05664ZM25.7324 4.44336C19.3848 4.44336 16.0645 1.12305 16.0645-5.22461L16.0645-65.0391C16.0645-71.4355 19.3848-74.7559 25.7324-74.7559L85.5957-74.7559C91.748-74.7559 95.2637-71.4355 95.2637-65.0391L95.2637-5.22461C95.2637 1.12305 91.748 4.44336 85.5957 4.44336ZM36.1816-63.0371C32.0312-63.0371 29.0039-59.8145 29.0039-55.6641C29.0039-48.3887 36.7676-41.8457 41.4551-39.3066C41.748-39.1602 42.041-38.9648 42.2852-38.9648C42.5293-38.9648 42.8711-39.1113 43.2129-39.3066C47.6074-41.9922 55.5664-48.3887 55.5664-55.6641C55.5664-59.8145 52.4902-63.0371 48.3398-63.0371C45.7031-63.0371 43.457-61.3281 42.2852-59.2773C41.1621-61.3281 38.916-63.0371 36.1816-63.0371ZM30.6641-25.5859L80.6641-25.5859C81.6406-25.5859 82.3242-26.3184 82.3242-27.1973C82.3242-28.125 81.6406-28.8086 80.6641-28.8086L30.6641-28.8086C29.7363-28.8086 29.0039-28.125 29.0039-27.1973C29.0039-26.3184 29.7363-25.5859 30.6641-25.5859ZM30.6641-9.7168L66.3574-9.7168C67.2852-9.7168 68.0176-10.4492 68.0176-11.3281C68.0176-12.2559 67.2852-12.9883 66.3574-12.9883L30.6641-12.9883C29.7363-12.9883 29.0039-12.2559 29.0039-11.3281C29.0039-10.4492 29.7363-9.7168 30.6641-9.7168Z"/>
  </g>
  <g id="Ultralight-M" transform="matrix(1 0 0 1 504.535 1126)">
   <path d="M25 7.56836L85.3516 7.56836C93.5059 7.56836 97.9004 3.125 97.9004-4.98047L97.9004-65.2832C97.9004-73.3887 93.5059-77.832 85.3516-77.832L25-77.832C16.7969-77.832 12.4512-73.4863 12.4512-65.2832L12.4512-4.98047C12.4512 3.22266 16.7969 7.56836 25 7.56836ZM25.0977 5.17578C18.3594 5.17578 14.8438 1.66016 14.8438-5.07812L14.8438-65.1855C14.8438-71.9727 18.3594-75.4395 25.0977-75.4395L85.2051-75.4395C91.748-75.4395 95.5078-71.9727 95.5078-65.1855L95.5078-5.07812C95.5078 1.66016 91.748 5.17578 85.2051 5.17578ZM35.8398-62.9395C31.6895-62.9395 28.6133-59.668 28.6133-55.5176C28.6133-47.998 36.6699-41.2109 41.3086-38.916C41.5527-38.7695 41.7969-38.5742 42.041-38.5742C42.2363-38.5742 42.5293-38.7207 42.8223-38.916C47.1191-41.4551 55.4199-47.998 55.4199-55.5176C55.4199-59.668 52.3438-62.9395 48.1445-62.9395C45.459-62.9395 43.2129-61.1328 42.041-59.1309C40.918-61.1328 38.623-62.9395 35.8398-62.9395ZM29.8828-25.4883L80.4199-25.4883C81.1523-25.4883 81.6895-26.0254 81.6895-26.6602C81.6895-27.3438 81.1523-27.8809 80.4199-27.8809L29.8828-27.8809C29.1504-27.8809 28.6133-27.3438 28.6133-26.6602C28.6133-26.0254 29.1504-25.4883 29.8828-25.4883ZM29.8828-9.86328L65.6738-9.86328C66.4062-9.86328 66.9434-10.4004 66.9434-11.0352C66.9434-11.7188 66.4062-12.2559 65.6738-12.2559L29.8828-12.2559C29.1504-12.2559 28.6133-11.7188 28.6133-11.0352C28.6133-10.4004 29.1504-9.86328 29.8828-9.86328Z"/>
  </g>
  <g id="Black-S" transform="matrix(1 0 0 1 2885.5 696)">
   <path d="M25 2.92969L70.8008 2.92969C80.3711 2.92969 86.0352-2.73438 86.0352-12.3047L86.0352-58.1055C86.0352-67.6758 80.3711-73.3398 70.8008-73.3398L25-73.3398C15.4297-73.3398 9.76562-67.6758 9.76562-58.1055L9.76562-12.3047C9.76562-2.73438 15.4297 2.92969 25 2.92969ZM27.2461-11.2305C25-11.2305 23.9258-12.1094 23.9258-14.5508L23.9258-55.8594C23.9258-58.3008 25-59.1797 27.2461-59.1797L68.5547-59.1797C70.8008-59.1797 71.875-58.3008 71.875-55.8594L71.875-14.5508C71.875-12.1094 70.8008-11.2305 68.5547-11.2305ZM34.082-53.6133C31.6406-53.6133 29.4922-51.6113 29.4922-48.4863C29.4922-42.8711 36.1328-39.1113 36.8164-38.8184C37.1582-38.623 37.5488-38.4277 37.9395-38.4277C38.3301-38.4277 38.7695-38.6719 39.0625-38.8184C39.6973-39.0137 46.3867-42.8711 46.3867-48.4863C46.3867-51.6113 44.3359-53.6133 41.7969-53.6133C39.8926-53.6133 38.5742-52.4414 37.9395-51.416C37.3535-52.4414 36.0352-53.6133 34.082-53.6133ZM32.2754-28.0273L63.5742-28.0273C65.1367-28.0273 66.3086-29.248 66.3086-30.8105C66.3086-32.3242 65.1367-33.4961 63.5742-33.4961L32.2754-33.4961C30.6641-33.4961 29.4922-32.3242 29.4922-30.8105C29.4922-29.248 30.6641-28.0273 32.2754-28.0273ZM32.2754-17.7734L56.5918-17.7734C58.1543-17.7734 59.3262-18.9453 59.3262-20.459C59.3262-22.0215 58.1543-23.2422 56.5918-23.2422L32.2754-23.2422C30.6641-23.2422 29.4922-22.0215 29.4922-20.459C29.4922-18.9453 30.6641-17.7734 32.2754-17.7734Z"/>
  </g>
  <g id="Heavy-S" transform="matrix(1 0 0 1 2589.4 696)">
   <path d="M24.3652 2.34375L70.2637 2.34375C79.541 2.34375 84.8145-2.97852 84.8145-12.207L84.8145-58.2031C84.8145-67.4316 79.541-72.7539 70.2637-72.7539L24.3652-72.7539C15.0879-72.7539 9.76562-67.4316 9.76562-58.2031L9.76562-12.207C9.76562-2.97852 15.0879 2.34375 24.3652 2.34375ZM26.0742-10.1562C23.5352-10.1562 22.2656-11.2793 22.2656-14.0137L22.2656-56.3965C22.2656-59.1309 23.5352-60.2539 26.0742-60.2539L68.5059-60.2539C71.0449-60.2539 72.3633-59.1309 72.3633-56.3965L72.3633-14.0137C72.3633-11.2793 71.0449-10.1562 68.5059-10.1562ZM33.0078-54.541C30.3711-54.541 28.2227-52.4414 28.2227-49.2188C28.2227-43.7988 34.4727-39.9414 35.9375-39.0625C36.2793-38.8672 36.6699-38.6719 37.0117-38.6719C37.4023-38.6719 37.793-38.916 38.1348-39.0625C39.5508-39.7949 45.8496-43.7988 45.8496-49.2188C45.8496-52.4414 43.7012-54.541 41.0156-54.541C39.1113-54.541 37.6953-53.3691 37.0117-52.1484C36.3281-53.3691 34.9609-54.541 33.0078-54.541ZM30.957-28.0273L63.6719-28.0273C65.2344-28.0273 66.4062-29.248 66.4062-30.8105C66.4062-32.3242 65.2344-33.4473 63.6719-33.4473L30.957-33.4473C29.3457-33.4473 28.2227-32.3242 28.2227-30.8105C28.2227-29.248 29.3457-28.0273 30.957-28.0273ZM30.957-17.0898L56.0547-17.0898C57.5684-17.0898 58.7402-18.2617 58.7402-19.7754C58.7402-21.2891 57.5684-22.5098 56.0547-22.5098L30.957-22.5098C29.3457-22.5098 28.2227-21.2891 28.2227-19.7754C28.2227-18.2617 29.3457-17.0898 30.957-17.0898Z"/>
  </g>
  <g id="Bold-S" transform="matrix(1 0 0 1 2293.35 696)">
   <path d="M23.6328 1.66016L69.6289 1.66016C78.6133 1.66016 83.4961-3.22266 83.4961-12.1094L83.4961-58.3008C83.4961-67.1875 78.6133-72.0703 69.6289-72.0703L23.6328-72.0703C14.6973-72.0703 9.76562-67.1875 9.76562-58.3008L9.76562-12.1094C9.76562-3.22266 14.6973 1.66016 23.6328 1.66016ZM24.8047-8.93555C21.9238-8.93555 20.3613-10.3516 20.3613-13.4277L20.3613-56.9824C20.3613-60.0586 21.9238-61.4746 24.8047-61.4746L68.457-61.4746C71.3379-61.4746 72.9004-60.0586 72.9004-56.9824L72.9004-13.4277C72.9004-10.3516 71.3379-8.93555 68.457-8.93555ZM31.7871-55.5664C29.0039-55.5664 26.7578-53.3203 26.7578-50.0977C26.7578-44.873 32.666-40.918 34.9121-39.3555C35.3027-39.1113 35.6934-38.916 35.9863-38.916C36.3281-38.916 36.7188-39.1602 37.0605-39.3555C39.3555-40.6738 45.2148-44.873 45.2148-50.0977C45.2148-53.3203 43.0176-55.5664 40.1367-55.5664C38.2324-55.5664 36.7676-54.3945 35.9863-52.9785C35.2051-54.3945 33.7891-55.5664 31.7871-55.5664ZM29.4922-28.0762L63.7695-28.0762C65.332-28.0762 66.5039-29.248 66.5039-30.8105C66.5039-32.2754 65.332-33.4473 63.7695-33.4473L29.4922-33.4473C27.9297-33.4473 26.7578-32.2754 26.7578-30.8105C26.7578-29.248 27.9297-28.0762 29.4922-28.0762ZM29.4922-16.3086L55.4199-16.3086C56.9336-16.3086 58.1055-17.4805 58.1055-18.9453C58.1055-20.5078 56.9336-21.6797 55.4199-21.6797L29.4922-21.6797C27.9297-21.6797 26.7578-20.5078 26.7578-18.9453C26.7578-17.4805 27.9297-16.3086 29.4922-16.3086Z"/>
  </g>
  <g id="Semibold-S" transform="matrix(1 0 0 1 1997.1 696)">
   <path d="M23.0957 1.17188L69.1895 1.17188C77.9297 1.17188 82.5684-3.36914 82.5684-12.0117L82.5684-58.3984C82.5684-67.041 77.9297-71.582 69.1895-71.582L23.0957-71.582C14.4043-71.582 9.76562-67.041 9.76562-58.3984L9.76562-12.0117C9.76562-3.36914 14.4043 1.17188 23.0957 1.17188ZM23.877-8.10547C20.752-8.10547 19.0918-9.7168 19.0918-12.9883L19.0918-57.4219C19.0918-60.6934 20.752-62.3047 23.877-62.3047L68.4082-62.3047C71.5332-62.3047 73.2422-60.6934 73.2422-57.4219L73.2422-12.9883C73.2422-9.7168 71.5332-8.10547 68.4082-8.10547ZM30.957-56.25C28.0273-56.25 25.7812-53.9551 25.7812-50.6836C25.7812-45.6055 31.3965-41.5527 34.2285-39.5508C34.6191-39.3066 35.0098-39.1113 35.3027-39.1113C35.5957-39.1113 35.9863-39.3555 36.3281-39.5508C39.2578-41.3086 44.7754-45.6055 44.7754-50.6836C44.7754-53.9551 42.5293-56.25 39.5508-56.25C37.6465-56.25 36.084-55.127 35.2539-53.5645C34.4238-55.127 32.959-56.25 30.957-56.25ZM28.4668-28.0762L63.8672-28.0762C65.3809-28.0762 66.5527-29.248 66.5527-30.8105C66.5527-32.2754 65.3809-33.3984 63.8672-33.3984L28.4668-33.3984C26.9043-33.3984 25.7812-32.2754 25.7812-30.8105C25.7812-29.248 26.9043-28.0762 28.4668-28.0762ZM28.4668-15.7715L54.9805-15.7715C56.4941-15.7715 57.666-16.9434 57.666-18.4082C57.666-19.9219 56.4941-21.1426 54.9805-21.1426L28.4668-21.1426C26.9043-21.1426 25.7812-19.9219 25.7812-18.4082C25.7812-16.9434 26.9043-15.7715 28.4668-15.7715Z"/>
  </g>
  <g id="Medium-S" transform="matrix(1 0 0 1 1700.75 696)">
   <path d="M22.7051 0.830078L68.8965 0.830078C77.4414 0.830078 81.8359-3.51562 81.8359-11.9629L81.8359-58.4473C81.8359-66.8945 77.4414-71.2402 68.8965-71.2402L22.7051-71.2402C14.209-71.2402 9.76562-66.8945 9.76562-58.4473L9.76562-11.9629C9.76562-3.51562 14.209 0.830078 22.7051 0.830078ZM23.1934-7.4707C19.9219-7.4707 18.0664-9.22852 18.0664-12.6953L18.0664-57.7148C18.0664-61.1816 19.9219-62.9395 23.1934-62.9395L68.4082-62.9395C71.6797-62.9395 73.5352-61.1816 73.5352-57.7148L73.5352-12.6953C73.5352-9.22852 71.6797-7.4707 68.4082-7.4707ZM30.2734-56.7871C27.2949-56.7871 25-54.4434 25-51.123C25-46.1426 30.4199-42.0898 33.6914-39.6973C34.082-39.4531 34.5215-39.2578 34.7656-39.2578C35.0586-39.2578 35.4492-39.4531 35.791-39.6973C39.1602-41.748 44.4336-46.1426 44.4336-51.123C44.4336-54.4434 42.1875-56.7871 39.0625-56.7871C37.1582-56.7871 35.5957-55.6641 34.7168-54.0039C33.8379-55.6641 32.3242-56.7871 30.2734-56.7871ZM27.7344-28.0762L63.916-28.0762C65.4297-28.0762 66.6016-29.248 66.6016-30.8105C66.6016-32.2754 65.4297-33.3984 63.916-33.3984L27.7344-33.3984C26.1719-33.3984 25-32.2754 25-30.8105C25-29.248 26.1719-28.0762 27.7344-28.0762ZM27.7344-15.3809L54.6875-15.3809C56.2012-15.3809 57.3242-16.5527 57.3242-18.0176C57.3242-19.5312 56.2012-20.7031 54.6875-20.7031L27.7344-20.7031C26.1719-20.7031 25-19.5312 25-18.0176C25-16.5527 26.1719-15.3809 27.7344-15.3809Z"/>
  </g>
  <g id="Regular-S" transform="matrix(1 0 0 1 1404.51 696)">
   <path d="M22.2168 0.390625L68.457 0.390625C76.8066 0.390625 80.9082-3.71094 80.9082-11.9141L80.9082-58.4961C80.9082-66.6992 76.8066-70.8008 68.457-70.8008L22.2168-70.8008C13.916-70.8008 9.76562-66.6992 9.76562-58.4961L9.76562-11.9141C9.76562-3.71094 13.916 0.390625 22.2168 0.390625ZM22.3145-6.68945C18.7988-6.68945 16.7969-8.54492 16.7969-12.2559L16.7969-58.1543C16.7969-61.8164 18.7988-63.7207 22.3145-63.7207L68.3594-63.7207C71.875-63.7207 73.877-61.8164 73.877-58.1543L73.877-12.2559C73.877-8.54492 71.875-6.68945 68.3594-6.68945ZM29.4434-57.4707C26.3184-57.4707 24.0234-55.0293 24.0234-51.6602C24.0234-46.875 29.1992-42.7246 33.0078-39.8926C33.3984-39.5996 33.8379-39.4043 34.082-39.4043C34.375-39.4043 34.668-39.6484 35.0586-39.8926C39.0625-42.334 43.9941-46.875 43.9941-51.6602C43.9941-55.0293 41.6992-57.4707 38.4766-57.4707C36.5723-57.4707 34.9609-56.3477 34.0332-54.541C33.0566-56.3477 31.543-57.4707 29.4434-57.4707ZM26.709-28.0762L64.0137-28.0762C65.5273-28.0762 66.6504-29.2969 66.6504-30.7617C66.6504-32.2266 65.5273-33.3984 64.0137-33.3984L26.709-33.3984C25.1465-33.3984 24.0234-32.2266 24.0234-30.7617C24.0234-29.2969 25.1465-28.0762 26.709-28.0762ZM26.709-14.8926L54.248-14.8926C55.7617-14.8926 56.8848-16.0156 56.8848-17.4805C56.8848-18.9941 55.7617-20.166 54.248-20.166L26.709-20.166C25.1465-20.166 24.0234-18.9941 24.0234-17.4805C24.0234-16.0156 25.1465-14.8926 26.709-14.8926Z"/>
  </g>
  <g id="Light-S" transform="matrix(1 0 0 1 1108.46 696)">
   <path d="M21.3867-0.292969L67.9688-0.292969C75.7324-0.292969 79.5898-4.15039 79.5898-11.7676L79.5898-58.5938C79.5898-66.2109 75.7324-70.1172 67.9688-70.1172L21.3867-70.1172C13.6719-70.1172 9.76562-66.2598 9.76562-58.5938L9.76562-11.7676C9.76562-4.15039 13.6719-0.292969 21.3867-0.292969ZM21.4844-5.71289C17.4316-5.71289 15.1855-7.86133 15.1855-12.0605L15.1855-58.3008C15.1855-62.5 17.4316-64.6973 21.4844-64.6973L67.8711-64.6973C71.875-64.6973 74.1699-62.5 74.1699-58.3008L74.1699-12.0605C74.1699-7.86133 71.875-5.71289 67.8711-5.71289ZM29.0527-57.3242C25.8789-57.3242 23.5352-54.834 23.5352-51.5137C23.5352-46.3867 29.0527-41.8457 32.8125-39.3555C33.1543-39.1113 33.4961-38.916 33.7402-38.916C33.9355-38.916 34.2773-39.1113 34.6191-39.3555C38.3789-41.6504 43.8477-46.3867 43.8477-51.5137C43.8477-54.834 41.5039-57.3242 38.2324-57.3242C36.2793-57.3242 34.6191-56.1035 33.6914-54.3457C32.7637-56.1035 31.1035-57.3242 29.0527-57.3242ZM25.6836-27.9297L63.7207-27.9297C64.9414-27.9297 65.8203-28.8574 65.8203-30.0781C65.8203-31.25 64.9414-32.1777 63.7207-32.1777L25.6836-32.1777C24.4629-32.1777 23.5352-31.25 23.5352-30.0781C23.5352-28.8574 24.4629-27.9297 25.6836-27.9297ZM25.6836-15.0391L53.3691-15.0391C54.5898-15.0391 55.5176-15.918 55.5176-17.0898C55.5176-18.3105 54.5898-19.2383 53.3691-19.2383L25.6836-19.2383C24.4629-19.2383 23.5352-18.3105 23.5352-17.0898C23.5352-15.918 24.4629-15.0391 25.6836-15.0391Z"/>
  </g>
  <g id="Thin-S" transform="matrix(1 0 0 1 812.599 696)">
   <path d="M20.3125-1.12305L67.334-1.12305C74.2676-1.12305 77.8809-4.78516 77.8809-11.6211L77.8809-58.6914C77.8809-65.5762 74.2676-69.2383 67.334-69.2383L20.3125-69.2383C13.3789-69.2383 9.76562-65.625 9.76562-58.6914L9.76562-11.6211C9.76562-4.6875 13.3789-1.12305 20.3125-1.12305ZM20.4102-4.44336C15.625-4.44336 13.0859-6.93359 13.0859-11.8164L13.0859-58.5449C13.0859-63.3789 15.625-65.918 20.4102-65.918L67.2363-65.918C71.875-65.918 74.5605-63.3789 74.5605-58.5449L74.5605-11.8164C74.5605-6.93359 71.875-4.44336 67.2363-4.44336ZM28.4668-57.0801C25.2441-57.0801 22.9004-54.5898 22.9004-51.2695C22.9004-45.7031 28.8574-40.6738 32.5684-38.623C32.8125-38.4766 33.0566-38.2812 33.252-38.2812C33.4473-38.2812 33.6914-38.4277 33.9844-38.623C37.5-40.7227 43.6035-45.7031 43.6035-51.2695C43.6035-54.5898 41.2109-57.0801 37.9395-57.0801C35.8887-57.0801 34.1797-55.7617 33.252-54.1016C32.3242-55.7617 30.6152-57.0801 28.4668-57.0801ZM24.3652-27.7344L63.2812-27.7344C64.1113-27.7344 64.7461-28.3691 64.7461-29.1504C64.7461-29.9316 64.1113-30.5664 63.2812-30.5664L24.3652-30.5664C23.4863-30.5664 22.9004-29.9316 22.9004-29.1504C22.9004-28.3691 23.4863-27.7344 24.3652-27.7344ZM24.3652-15.1855L52.2461-15.1855C53.0762-15.1855 53.7109-15.8203 53.7109-16.6016C53.7109-17.4316 53.0762-18.0664 52.2461-18.0664L24.3652-18.0664C23.4863-18.0664 22.9004-17.4316 22.9004-16.6016C22.9004-15.8203 23.4863-15.1855 24.3652-15.1855Z"/>
  </g>
  <g id="Ultralight-S" transform="matrix(1 0 0 1 516.352 696)">
   <path d="M19.7754-1.5625L66.9922-1.5625C73.5352-1.5625 76.9531-5.12695 76.9531-11.5234L76.9531-58.7891C76.9531-65.2344 73.5352-68.75 66.9922-68.75L19.7754-68.75C13.2324-68.75 9.76562-65.2832 9.76562-58.7891L9.76562-11.5234C9.76562-5.0293 13.2324-1.5625 19.7754-1.5625ZM19.873-3.75977C14.6484-3.75977 11.9629-6.44531 11.9629-11.6699L11.9629-58.6426C11.9629-63.8672 14.6484-66.5527 19.873-66.5527L66.8945-66.5527C71.875-66.5527 74.7559-63.8672 74.7559-58.6426L74.7559-11.6699C74.7559-6.44531 71.875-3.75977 66.8945-3.75977ZM28.1738-56.9824C24.9023-56.9824 22.5586-54.4434 22.5586-51.1719C22.5586-45.3613 28.7598-40.0879 32.4219-38.2324C32.6172-38.1348 32.8125-37.9883 33.0078-37.9883C33.1543-37.9883 33.3984-38.0859 33.6426-38.2324C37.0605-40.2344 43.5059-45.3613 43.5059-51.1719C43.5059-54.4434 41.0645-56.9824 37.793-56.9824C35.6934-56.9824 33.9355-55.5664 33.0078-54.0039C32.1289-55.5664 30.3223-56.9824 28.1738-56.9824ZM23.6328-27.6367L63.0859-27.6367C63.7207-27.6367 64.209-28.0762 64.209-28.6621C64.209-29.248 63.7207-29.7363 63.0859-29.7363L23.6328-29.7363C22.998-29.7363 22.5586-29.248 22.5586-28.6621C22.5586-28.0762 22.998-27.6367 23.6328-27.6367ZM23.6328-15.332L51.6602-15.332C52.2949-15.332 52.7344-15.7715 52.7344-16.3574C52.7344-16.9434 52.2949-17.4316 51.6602-17.4316L23.6328-17.4316C22.998-17.4316 22.5586-16.9434 22.5586-16.3574C22.5586-15.7715 22.998-15.332 23.6328-15.332Z"/>
  </g>
 </g>
</svg>
